<?xml version="1.0" encoding="utf-8"?>
<!-- Generator: Adobe Illustrator 19.0.0, SVG Export Plug-In . SVG Version: 6.00 Build 0)  -->
<svg version="1.1" id="Слой_1" xmlns="http://www.w3.org/2000/svg" xmlns:xlink="http://www.w3.org/1999/xlink" x="0px" y="0px"
	 viewBox="-177 300.9 240 240" style="enable-background:new -177 300.9 240 240;" xml:space="preserve">
<style type="text/css">
	.st0{fill:#FFC648;}
	.st1{fill:#FFB43B;}
	.st2{fill:#103754;}
	.st3{fill:#174F78;}
	.st4{fill:#FFFFFF;}
	.st5{fill:#A8B442;}
	.st6{fill:#C1E2DE;}
	.st7{fill:#889135;}
	.st8{fill:#C2D64C;}
	.st9{fill:#A1B400;}
	.st10{clip-path:url(#SVGID_2_);fill:#A1B400;}
	.st11{clip-path:url(#SVGID_4_);fill:#A1B400;}
</style>
<circle id="XMLID_144_" class="st0" cx="-60.2" cy="423.7" r="79"/>
<g>
	<path class="st1" d="M-49.2,383.8c0.4-1.1,0.7-2.2,0.7-3.4c0-5.2-4.2-9.4-9.4-9.4h0c-1.2,0-2.4,0.2-3.4,0.7l-26.3-26.3
		c-2-2-5.1-2.2-6.8-0.5l-3.2,3.2c-1.8,1.8-1.6,4.8,0.5,6.8c0.4,12.9-2.9,25.6-10.1,36.3c-3.1,4.7-6.8,8.6-10.9,12l-0.2-0.2
		l-20.2,20.2c-7.8,7.8-7.8,20.4,0,28.1l9.7,9.7c6.9,6.9,17.7,7.7,25.4,2.2l26.4,18.5c2.2,1.6,5.3,1,6.9-1.2l7.6-10.9
		c1.6-2.2,1-5.3-1.2-6.9l-22.8-15.9l6-6l-0.3-0.3c3.3-4.1,7.3-7.7,12-10.9c10.7-7.2,23.4-10.4,36.3-10.1l0.1,0.1
		c2,2,5.1,2.2,6.8,0.5l3.2-3.2c1.8-1.8,1.5-4.8-0.5-6.8L-49.2,383.8z"/>
	<path class="st1" d="M-44,366.8c0.2,0.2,0.4,0.3,0.6,0.3c0.2,0,0.5-0.1,0.6-0.3l37.1-37.1c0.4-0.4,0.4-0.9,0-1.3
		c-0.4-0.4-0.9-0.4-1.3,0L-44,365.5C-44.4,365.8-44.4,366.4-44,366.8z"/>
	<path class="st1" d="M-52.4,359.7c0.1,0,0.2,0,0.3,0c0.4,0,0.7-0.2,0.9-0.6l16.9-49.6c0.2-0.5-0.1-1-0.6-1.2
		c-0.5-0.2-1,0.1-1.2,0.6l-16.9,49.6C-53.1,359-52.8,359.5-52.4,359.7z"/>
	<path class="st1" d="M14.4,357.6c-0.2-0.5-0.7-0.7-1.2-0.6l-49.6,16.9c-0.5,0.2-0.7,0.7-0.6,1.2c0.1,0.4,0.5,0.6,0.9,0.6
		c0.1,0,0.2,0,0.3,0l49.6-16.9C14.3,358.6,14.6,358.1,14.4,357.6z"/>
</g>
<g>
	<g>
		<path class="st2" d="M-65.2,458.2c2.2,1.6,2.8,4.7,1.2,6.9l-7.6,10.9c-1.6,2.2-4.7,2.8-6.9,1.2l-27.8-19.5
			c-2.2-1.6-2.8-4.7-1.2-6.9l7.6-10.9c1.6-2.2,4.7-2.8,6.9-1.2L-65.2,458.2z"/>
		<g>
			<path class="st3" d="M-59.3,366.6c-5.2,0-9.4,4.2-9.4,9.4c0,5.2,4.2,9.4,9.4,9.4c0,0,0,0,0,0c0,0,0,0,0,0c5.2,0,9.4-4.2,9.4-9.4
				C-50,370.8-54.2,366.6-59.3,366.6L-59.3,366.6L-59.3,366.6z"/>
		</g>
		<path class="st4" d="M-120.5,399.5l27.6,27.6l36.8-36.8l-42.6-42.6c0.9,13.8-2.2,27.6-9.9,39.1
			C-112.1,391.8-116.1,396-120.5,399.5z"/>
		<path class="st3" d="M-119.8,398.5l-20.2,20.2c-7.8,7.8-7.8,20.4,0,28.1l9.7,9.7c7.8,7.8,20.4,7.8,28.1,0l20.2-20.2L-119.8,398.5z
			"/>
		<path class="st5" d="M-27.1,415.7c-1.8,1.8-4.8,1.6-6.8-0.5l-64.7-64.7c-2-2-2.2-5.1-0.5-6.8l3.2-3.2c1.8-1.8,4.8-1.6,6.8,0.5
			l64.7,64.7c2,2,2.2,5.1,0.5,6.8L-27.1,415.7z"/>
		<path class="st6" d="M-31.2,415.2l-33.9-33.9l-36.8,36.8L-83,437c3.5-4.5,7.7-8.5,12.7-11.8C-58.8,417.5-45,414.3-31.2,415.2z"/>
		<path class="st2" d="M-101.1,417.2l-34.3,34.3l5,5c7.8,7.8,20.4,7.8,28.1,0l20.2-20.2L-101.1,417.2z"/>
		<path class="st7" d="M-24.4,405.7l-32.6-32.6l-9.6,9.6l32.6,32.6c2,2,5.1,2.2,6.8,0.5l3.2-3.2C-22.1,410.7-22.3,407.7-24.4,405.7z
			"/>
		<path class="st3" d="M-94.6,454.8c-1.5-1-3.5-0.6-4.5,0.8l0,0c-1,1.5-0.6,3.5,0.8,4.5l20.8,14.3c1.5,1,3.5,0.6,4.5-0.8l0,0
			c1-1.5,0.6-3.5-0.8-4.5L-94.6,454.8z"/>
	</g>
	<g>
		<g>
			<path class="st4" d="M-44.8,362.7c-0.2,0-0.5-0.1-0.6-0.3c-0.4-0.4-0.4-0.9,0-1.3L-8.4,324c0.4-0.4,0.9-0.4,1.3,0
				c0.4,0.4,0.4,0.9,0,1.3l-37.1,37.1C-44.4,362.6-44.6,362.7-44.8,362.7L-44.8,362.7z"/>
		</g>
		<g>
			<g>
				<path class="st4" d="M-53.5,355.4c-0.1,0-0.2,0-0.3,0c-0.5-0.2-0.7-0.7-0.6-1.2l16.9-49.6c0.2-0.5,0.7-0.7,1.2-0.6
					c0.5,0.2,0.7,0.7,0.6,1.2l-16.9,49.6C-52.8,355.1-53.1,355.4-53.5,355.4L-53.5,355.4z"/>
			</g>
			<g>
				<path class="st4" d="M-37.5,371.3c-0.4,0-0.7-0.2-0.9-0.6c-0.2-0.5,0.1-1,0.6-1.2l49.6-16.9c0.5-0.2,1,0.1,1.2,0.6
					c0.2,0.5-0.1,1-0.6,1.2l-49.6,16.9C-37.3,371.3-37.4,371.3-37.5,371.3L-37.5,371.3z"/>
			</g>
		</g>
	</g>
</g>
<g>
	<g>
		<path class="st8" d="M-68.6,446.5c6.6,15.5,13.2,31,19.8,46.5c38.5,12.1,46.1-48.2,84.6-36.1c-6.6-15.5-13.2-31-19.8-46.5
			C-22.6,398.3-30.1,458.6-68.6,446.5z"/>
		<g>
			<path class="st9" d="M-14.7,457.9c-1.5,1.6-3.1,2.4-4.4,2.7c0.2,1.3,0.5,2.7,0.7,4c1.1-0.3,2.9-1.3,4.5-2.8
				c0.4,0.9,0.8,1.8,1.1,2.7c0.8-0.8,1.5-1.6,2.3-2.4c-0.4-1-0.8-1.9-1.2-2.9c2.4-3.3,3-6.9,1.9-9.4c-1.1-2.6-2.9-3-6.1-1.4
				c-2.4,1.2-3.4,1.4-3.8,0.5c-0.3-0.8-0.2-2.1,1.3-3.7c1.7-1.7,3-2.2,3.8-2.5c-0.2-1.3-0.4-2.6-0.7-3.9c-1,0.4-2.2,1-3.8,2.6
				c-0.4-0.8-0.7-1.7-1.1-2.5c-0.8,0.8-1.5,1.6-2.3,2.4c0.4,0.9,0.8,1.8,1.1,2.7c-2.2,3.2-2.9,6.5-1.8,9.1c1.2,2.7,3.5,2.5,6.4,0.9
				c2-1.1,3.1-1.2,3.5-0.1C-12.7,454.9-13.3,456.5-14.7,457.9z"/>
			<path class="st9" d="M6.7,438.4c2.3-1,3.5-3.3,2.5-5.6c-1-2.3-3.8-3.7-6-2.7c-2.3,1-3.2,3.9-2.2,6.2
				C1.9,438.7,4.5,439.4,6.7,438.4z"/>
			<path class="st9" d="M-36.1,473.2c2.3-1,3.2-3.9,2.2-6.2c-1-2.3-3.5-3.1-5.8-2.1c-2.3,1-3.5,3.3-2.5,5.6
				C-41.1,472.8-38.3,474.2-36.1,473.2z"/>
			<path class="st9" d="M-46.5,485.6c2.8,0.1,6.2,1.9,7.2,4.3c0,0,0.1,0.3,0.1,0.3c0.1,0.3,0.3,0.6,0.7,0.8c0.3,0.2,0.7,0.3,1,0.2
				c24.2-2.5,35-36.6,59.2-39.1c0.3,0,0.5-0.3,0.7-0.5c0.1-0.2,0.1-0.7-0.1-0.9c-1-2.3,0.4-4.3,3.2-4c0.2,0,0.4,0.1,0.8,0.2
				c0.4,0.1,0.7,0.1,0.9-0.1c0.2-0.1,0.2-0.4,0.1-0.7c-3.8-9-7.7-17.9-11.5-26.9c-0.1-0.3-0.4-0.6-0.8-0.9c-0.4-0.3-0.8-0.4-1.2-0.4
				c-2.9-0.1-6.4-1.8-7.4-4.3c-0.4,0-0.8,0-1.2,0c0.4-0.1,0.7-0.2,1.1-0.3c-0.1-0.3-0.3-0.6-0.7-0.8c-0.3-0.2-0.7-0.3-1-0.3
				c-24.2,2.5-34.9,36.6-59.2,39.1c-0.3,0-0.5,0.3-0.6,0.6c-0.1,0.2-0.1,0.7,0.1,0.9c1.1,2.5-0.8,4.6-3.9,3.8
				c-0.4-0.1-0.7-0.1-1,0.1c-0.2,0.1-0.3,0.4-0.1,0.7c3.8,9,7.7,17.9,11.5,26.9c0.1,0.3,0.5,0.6,0.9,0.9
				C-47.4,485.4-46.9,485.6-46.5,485.6z M2.3,428.1c3.4-1.5,7.7,0.9,9.2,4.3c1.5,3.4-0.5,6.7-3.9,8.2C4.2,442,0.5,441-1,437.6
				C-2.4,434.2-1.1,429.6,2.3,428.1z M-22.8,436.7c6.7-7.3,15.4-5.4,18.9,3c3.5,8.2,0.5,19.7-6.2,27c-6.7,7.2-15.4,5.4-18.9-3
				C-32.5,455.5-29.5,444-22.8,436.7z M-40.5,462.9c3.4-1.5,7.1-0.5,8.6,2.9c1.5,3.4,0.1,8-3.3,9.5c-3.4,1.5-7.7-0.9-9.2-4.3
				C-45.8,467.6-43.9,464.3-40.5,462.9z"/>
		</g>
		<g>
			<defs>
				<path id="SVGID_1_" d="M-68.6,446.5c6.6,15.5,13.2,31,19.8,46.5c38.5,12.1,46.1-48.2,84.6-36.1c-6.6-15.5-13.2-31-19.8-46.5
					C-22.6,398.3-30.1,458.6-68.6,446.5z"/>
			</defs>
			<clipPath id="SVGID_2_">
				<use xlink:href="#SVGID_1_"  style="overflow:visible;"/>
			</clipPath>
			<path class="st10" d="M-73.2,452.5c5.2,16,10.3,32.1,15.5,48.1c37.3,15.6,50.3-43.8,87.6-28.2c-5.2-16-10.3-32.1-15.5-48.1
				C-22.9,408.6-36,468.1-73.2,452.5z"/>
		</g>
	</g>
	<g>
		<path class="st8" d="M-75,450.7c3.1,16.6,6.2,33.1,9.2,49.7c35,20.2,55.5-37.1,90.4-16.8c-3.1-16.6-6.2-33.1-9.2-49.7
			C-19.5,413.6-40.1,470.9-75,450.7z"/>
		<g>
			<path class="st9" d="M-24.8,473.6c-1.8,1.2-3.6,1.7-4.9,1.7c-0.1,1.4-0.1,2.7-0.2,4.1c1.2,0,3.1-0.6,5-1.8c0.2,1,0.4,1.9,0.5,2.9
				c0.9-0.6,1.8-1.2,2.8-1.8c-0.2-1-0.4-2.1-0.6-3.1c3.1-2.7,4.4-6.1,3.9-8.8c-0.5-2.7-2.1-3.6-5.7-2.7c-2.6,0.7-3.7,0.6-3.8-0.3
				c-0.2-0.8,0.3-2.1,2.1-3.3c2-1.3,3.4-1.5,4.2-1.6c0.1-1.3,0.1-2.6,0.2-4c-1.1,0.1-2.4,0.5-4.2,1.7c-0.2-0.9-0.3-1.8-0.5-2.7
				c-0.9,0.6-1.8,1.2-2.7,1.8c0.2,1,0.4,1.9,0.5,2.9c-2.9,2.6-4.2,5.8-3.7,8.5c0.5,2.9,2.9,3.2,6,2.3c2.2-0.6,3.3-0.5,3.5,0.6
				C-22.2,471.1-23.2,472.5-24.8,473.6z"/>
			<path class="st9" d="M0.3,459.2c2.4-0.5,4.1-2.5,3.7-4.9c-0.5-2.4-2.9-4.4-5.3-3.9c-2.4,0.5-4,3.1-3.5,5.5
				C-4.4,458.4-2.1,459.7,0.3,459.2z"/>
			<path class="st9" d="M-49,483.8c2.4-0.5,4-3.1,3.5-5.5c-0.5-2.4-2.7-3.7-5.2-3.3c-2.4,0.5-4.1,2.5-3.7,4.9
				C-53.9,482.4-51.5,484.3-49,483.8z"/>
			<path class="st9" d="M-61.9,493.6c2.7,0.7,5.7,3.2,6.1,5.8c0,0,0,0.3,0,0.3c0,0.3,0.2,0.6,0.5,0.9c0.3,0.3,0.6,0.4,0.9,0.5
				c24.2,2.9,42.1-28.1,66.3-25.2c0.3,0,0.6-0.2,0.8-0.4c0.2-0.2,0.2-0.6,0.1-0.9c-0.4-2.4,1.3-4.1,4-3.2c0.2,0.1,0.4,0.1,0.7,0.3
				c0.4,0.2,0.7,0.2,0.9,0.1c0.2-0.1,0.3-0.3,0.3-0.7c-1.8-9.6-3.6-19.2-5.3-28.7c-0.1-0.3-0.3-0.7-0.6-1c-0.3-0.3-0.7-0.6-1-0.6
				c-2.8-0.7-5.8-3.2-6.3-5.8c-0.4-0.1-0.8-0.2-1.2-0.2c0.4,0,0.8-0.1,1.1-0.1c0-0.3-0.2-0.6-0.5-0.9c-0.3-0.3-0.6-0.4-0.9-0.5
				c-24.2-2.8-42.1,28.1-66.3,25.2c-0.3,0-0.6,0.2-0.7,0.4c-0.2,0.2-0.2,0.6-0.1,0.9c0.5,2.6-1.8,4.3-4.7,2.9
				c-0.4-0.2-0.7-0.2-1-0.1c-0.2,0.1-0.3,0.3-0.3,0.7c1.8,9.6,3.6,19.2,5.3,28.7c0.1,0.3,0.4,0.7,0.7,1
				C-62.7,493.3-62.2,493.6-61.9,493.6z M-1.7,448.2c3.7-0.7,7.3,2.5,8,6.2c0.7,3.7-1.9,6.4-5.6,7.1c-3.7,0.7-7.1-1.1-7.8-4.7
				C-7.7,453.1-5.4,448.9-1.7,448.2z M-28.1,451.1c8.1-5.6,16.2-1.9,17.9,7c1.6,8.7-3.8,19.3-11.9,25c-8.1,5.6-16.2,1.9-17.8-7
				C-41.7,467.4-36.2,456.8-28.1,451.1z M-51.1,472.8c3.7-0.7,7.1,1.1,7.8,4.7c0.7,3.6-1.6,7.9-5.3,8.6c-3.7,0.7-7.3-2.5-8-6.2
				C-57.3,476.2-54.7,473.5-51.1,472.8z"/>
		</g>
		<g>
			<defs>
				<path id="SVGID_3_" d="M-75,450.7c3.1,16.6,6.2,33.1,9.2,49.7c35,20.2,55.5-37.1,90.4-16.8c-3.1-16.6-6.2-33.1-9.2-49.7
					C-19.5,413.6-40.1,470.9-75,450.7z"/>
			</defs>
			<clipPath id="SVGID_4_">
				<use xlink:href="#SVGID_3_"  style="overflow:visible;"/>
			</clipPath>
			<path class="st11" d="M-80.8,455.5c1.6,16.8,3.1,33.5,4.7,50.3c33,23.3,58.6-31.8,91.6-8.5c-1.6-16.8-3.1-33.5-4.7-50.3
				C-22.1,423.7-47.8,478.9-80.8,455.5z"/>
		</g>
	</g>
	<g>
		<path class="st8" d="M-85.1,456.6c0,16.8,0,33.7,0,50.5c30.7,26.3,61.3-26.3,92,0c0-16.8,0-33.7,0-50.5
			C-23.8,430.3-54.4,482.9-85.1,456.6z"/>
		<g>
			<path class="st9" d="M-40,488.3c-2,0.9-3.8,1-5.1,0.8c-0.3,1.3-0.6,2.6-0.9,4c1.2,0.2,3.2-0.1,5.2-0.9c0,1,0,1.9,0,2.9
				c1-0.4,2-0.9,3-1.3c0-1.1,0-2.1,0-3.2c3.5-2.1,5.4-5.2,5.4-7.9c0-2.8-1.4-3.9-5.1-3.7c-2.6,0.2-3.7,0-3.7-1c0-0.9,0.6-2,2.6-2.9
				c2.2-0.9,3.7-0.8,4.4-0.8c0.3-1.3,0.6-2.6,0.9-3.9c-1.1,0-2.5,0.1-4.5,0.9c0-0.9,0-1.8,0-2.7c-1,0.4-2,0.9-3,1.3c0,1,0,1.9,0,2.9
				c-3.3,2-5.2,4.9-5.2,7.6c0,3,2.2,3.6,5.5,3.3c2.3-0.2,3.3,0.1,3.3,1.3C-37,486.3-38.2,487.5-40,488.3z"/>
			<path class="st9" d="M-12.6,478.8c2.5,0,4.5-1.7,4.5-4.2c0-2.5-2-4.8-4.5-4.8c-2.5,0-4.5,2.3-4.5,4.8
				C-17.1,477.1-15.1,478.8-12.6,478.8z"/>
			<path class="st9" d="M-65.6,494c2.5,0,4.5-2.3,4.5-4.8c0-2.5-2-4.2-4.5-4.2c-2.5,0-4.5,1.7-4.5,4.2
				C-70.1,491.6-68.1,494-65.6,494z"/>
			<path class="st9" d="M-80.1,501.2c2.5,1.2,5,4.2,5,6.8c0,0,0,0.3,0,0.3c0,0.3,0.1,0.6,0.3,0.9c0.2,0.3,0.5,0.5,0.8,0.6
				c23.2,7.2,46.5-19.9,69.8-12.7c0.3,0.1,0.6-0.1,0.8-0.2c0.2-0.2,0.3-0.6,0.3-0.9c0-2.5,2-3.8,4.5-2.4c0.2,0.1,0.3,0.2,0.7,0.5
				c0.3,0.2,0.7,0.3,0.9,0.3c0.2-0.1,0.4-0.3,0.4-0.6c0-9.7,0-19.5,0-29.2c0-0.3-0.1-0.7-0.4-1.1c-0.3-0.4-0.6-0.7-0.9-0.8
				c-2.6-1.2-5.1-4.2-5.1-6.8c-0.4-0.2-0.7-0.3-1.1-0.4c0.4,0,0.8,0.1,1.1,0.1c0-0.3-0.1-0.7-0.3-1c-0.2-0.3-0.5-0.5-0.8-0.6
				c-23.2-7.2-46.5,19.9-69.8,12.7c-0.3-0.1-0.6,0.1-0.8,0.3c-0.2,0.2-0.3,0.6-0.3,0.9c0,2.7-2.6,3.9-5.1,2
				c-0.3-0.2-0.7-0.4-0.9-0.3c-0.3,0.1-0.4,0.3-0.4,0.6c0,9.7,0,19.5,0,29.2c0,0.3,0.2,0.8,0.5,1.2
				C-80.8,500.7-80.4,501.1-80.1,501.2z M-12.6,467.5c3.7,0,6.8,3.8,6.8,7.6c0,3.7-3,5.9-6.8,6c-3.7,0-6.8-2.3-6.8-6.1
				C-19.4,471.3-16.3,467.5-12.6,467.5z M-39.1,465.6c9-4.1,16.3,1.1,16.3,10.2c0,8.9-7.3,18.3-16.3,22.4c-9,4.1-16.3-1.1-16.3-10.2
				C-55.4,479.1-48.1,469.7-39.1,465.6z M-65.6,482.7c3.7,0,6.8,2.3,6.8,6.1c0,3.7-3,7.4-6.8,7.5c-3.7,0-6.8-3.8-6.8-7.6
				C-72.4,484.9-69.4,482.7-65.6,482.7z"/>
		</g>
	</g>
</g>
</svg>
