<?xml version="1.0" encoding="utf-8"?>
<!-- Generator: Adobe Illustrator 19.0.0, SVG Export Plug-In . SVG Version: 6.00 Build 0)  -->
<svg version="1.1" id="Слой_1" xmlns="http://www.w3.org/2000/svg" xmlns:xlink="http://www.w3.org/1999/xlink" x="0px" y="0px"
	 viewBox="0 0 22 22" style="enable-background:new 0 0 22 22;" xml:space="preserve">
<style type="text/css">
	.st0{fill:#0C0E0F;}
</style>
<g id="XMLID_48_">
	<g id="XMLID_1_">
		<path id="XMLID_17_" class="st0" d="M11,1c5.5,0,10,4.5,10,10c0,5.5-4.5,10-10,10S1,16.5,1,11C1,5.5,5.5,1,11,1 M11,0
			C4.9,0,0,4.9,0,11c0,6.1,4.9,11,11,11s11-4.9,11-11C22,4.9,17.1,0,11,0L11,0z"/>
	</g>
	<g id="XMLID_4_">
		<path id="XMLID_2_" class="st0" d="M15.3,7.4l-7.8,7.8c-0.2,0.2-0.5,0.2-0.7,0l0,0c-0.2-0.2-0.2-0.5,0-0.7l7.8-7.8
			c0.2-0.2,0.5-0.2,0.7,0l0,0C15.4,7,15.4,7.3,15.3,7.4z"/>
		<path id="XMLID_3_" class="st0" d="M7.4,6.7l7.8,7.8c0.2,0.2,0.2,0.5,0,0.7l0,0c-0.2,0.2-0.5,0.2-0.7,0L6.7,7.4
			C6.6,7.3,6.6,7,6.7,6.8l0,0C7,6.6,7.3,6.6,7.4,6.7z"/>
	</g>
</g>
</svg>
