<?xml version="1.0" encoding="utf-8"?>
<!-- Generator: Adobe Illustrator 19.0.0, SVG Export Plug-In . SVG Version: 6.00 Build 0)  -->
<svg version="1.1" id="Слой_1" xmlns="http://www.w3.org/2000/svg" xmlns:xlink="http://www.w3.org/1999/xlink" x="0px" y="0px"
	 viewBox="-178 302 238.8 238.9" style="enable-background:new -178 302 238.8 238.9;" xml:space="preserve">
<style type="text/css">
	.st0{clip-path:url(#XMLID_3_);}
	.st1{fill:#DB3333;}
	.st2{fill:#1F141C;}
	.st3{fill:#EAD5BB;}
	.st4{fill:#F5E8D7;}
	.st5{fill:#73A65E;}
</style>
<g>
	<defs>
		<circle id="XMLID_1_" cx="-58.6" cy="421.4" r="113.4"/>
	</defs>
	<clipPath id="XMLID_3_">
		<use xlink:href="#XMLID_1_"  style="overflow:visible;"/>
	</clipPath>
	<g class="st0">
		<path class="st1" d="M-127.4,472.6c-1.7-0.1-1.5-6.4,0.3-6.3l5.1,0.2c1.7,0.1,3.1,1.6,3,3.3l0,0c-0.1,1.7-1.6,3.1-3.3,3
			L-127.4,472.6z"/>
		<path class="st2" d="M-127.1,470.7c-0.9-0.4-1.3-1.4-0.9-2.2l0.1-0.2c0.4-0.9,1.4-1.3,2.2-0.9l1.7,0.7l0.3-0.8
			c0.6-1.5-0.1-3.2-1.6-3.8l-3-1.3l-8.1,19.5l3,1.3c0.1,0,0.2,0.1,0.3,0.1l2.7-6.5c0.3-0.6,0.6-2.5,3.5-1.7l1.4-3.5L-127.1,470.7z"
			/>
		<path class="st2" d="M-69.1,478.4c-5.5,0.7-11.2,0.8-16.3,0.2l-37-4.5l0.9-7.8l37,4.5c12.6,1.5,29.7-2.1,37.2-7.9L-32,451l4.8,6.2
			L-42.5,469C-48.5,473.7-58.7,477.1-69.1,478.4L-69.1,478.4z"/>
		<path class="st1" d="M74,445.7c1.7,0.5-0.1,6.5-1.8,6l-4.9-1.4c-1.7-0.5-2.6-2.2-2.1-3.9l0,0c0.5-1.7,2.2-2.6,3.9-2.1L74,445.7z"
			/>
		<path class="st2" d="M76.2,429.1l-1.5,8.9c-0.3,1.5-1.6,2.5-3.1,2.4l-1,6.1l1.8,0.3c0.9,0.2,1.5,1,1.4,2l0,0.2
			c-0.2,0.9-1,1.5-2,1.4L70,450l-0.3,1.8c-0.3,1.6,0.8,3.1,2.4,3.4l3.2,0.6l4.5-26.1l-3.2-0.6C76.4,429.1,76.3,429.1,76.2,429.1z"/>
		<path class="st3" d="M25.5,371.8c0.6-0.2,1-0.8,0.9-1.4l-0.2-1.9c-0.1-0.7,0.2-1.8,0.5-2.2l1-1.3c0.5-0.6,0.3-1.4-0.2-1.9
			c-0.6-0.5-1.4-0.3-1.9,0.2l-1,1.3c-0.8,1-1.2,2.8-1.1,4.2l0.2,1.9c0.1,0.7,0.8,1.2,1.5,1.1C25.3,371.8,25.4,371.8,25.5,371.8
			L25.5,371.8z"/>
		<path class="st3" d="M27.7,371.8c0.6-0.2,1-0.8,0.9-1.4l-0.2-1.9c-0.1-0.7,0.2-1.8,0.5-2.2l1-1.3c0.5-0.6,0.3-1.4-0.2-1.9
			c-0.6-0.5-1.4-0.3-1.9,0.2l-1,1.3c-0.8,1-1.2,2.8-1.1,4.2l0.2,1.9c0.1,0.7,0.8,1.2,1.5,1.1C27.6,371.8,27.6,371.8,27.7,371.8
			L27.7,371.8z"/>
		<path class="st3" d="M30,372.7c0.6-0.2,1-0.8,0.9-1.4l-0.2-1.9c-0.1-0.7,0.2-1.8,0.5-2.2l1-1.3c0.4-0.6,0.3-1.4-0.2-1.9
			c-0.6-0.5-1.4-0.3-1.9,0.2l-1,1.3c-0.8,1-1.2,2.8-1.1,4.2l0.2,1.9c0.1,0.7,0.8,1.2,1.5,1.1C29.8,372.7,29.9,372.7,30,372.7
			L30,372.7z"/>
		<path class="st2" d="M-7.5,394.2c-3.2-1.4-7.1-2.8-10.6-3.7c-3.9,0-14.9-2-18.7-2.8c-3.6-0.1-7.2,0-10.7,0.3l-7.5,48.2
			c-1.7,11,5.8,21.4,16.8,23.1c11,1.7,21.4-5.8,23.1-16.9L-7.5,394.2z"/>
		<path class="st3" d="M-28.3,407.7l10.2-17.3c-2.9-0.9-5.9-1.5-8.9-2c-3.3-0.5-6.5-0.8-9.8-0.8l4.5,19.5L-28.3,407.7z"/>
		<polygon class="st3" points="-31.2,413 -23.8,400.3 -28.4,395.5 -34.2,398.7 		"/>
		<polygon class="st1" points="-29.9,400.5 -28.5,400.7 -26.1,398 -28.4,395.5 -31.3,397.1 		"/>
		<path class="st2" d="M-96.3,404c-0.2-0.1-0.4-0.2-0.7-0.4c-1.6-1.3-1.9-3.6-0.7-5.3l11.4-14.7c7.4-9.6,21.5-12.4,31.4-6.2
			l15.1,9.4c1.8,1.1,2.3,3.4,1.2,5.2c-1.1,1.8-3.4,2.3-5.2,1.2l-15.1-9.4c-6.6-4.1-16.4-2.1-21.5,4.4l-11.4,14.7
			C-92.8,404.4-94.8,404.8-96.3,404L-96.3,404z"/>
		<path class="st3" d="M-21.7,391.5c-1,2.8-4.1,4.3-6.9,3.3l0,0c-2.8-1-4.3-4.1-3.3-6.9l4.9-14.3c1-2.8,4.1-4.3,6.9-3.3l0,0
			c2.8,1,4.3,4.1,3.3,6.9L-21.7,391.5z"/>
		<path class="st3" d="M-3.1,360.9c0-8.1-5.7-14.7-13.8-14.7c-8.1,0-14.7,6.6-14.7,14.7v11.5c0,8.1,6.6,14.7,14.7,14.7
			c0.1,0,0.2,0,0.3,0v0h6.1c4,0,7.4-3.3,7.4-7.3V360.9z"/>
		<path class="st2" d="M-25.1,367.5c0-2.2,1.8-3.9,3.9-3.9v-9.6h-7.7v15.6h3.8V367.5z"/>
		<path class="st2" d="M-21.3,361.4c0-2.2,1.8-3.9,3.9-3.9v-9.6h-7.7v15.6h3.8V361.4z"/>
		<path class="st3" d="M-27.4,367.4h-5.2c-2.3,0-4.1,1.8-4.1,4.1c0,2.3,1.8,4.1,4.1,4.1h6.7L-27.4,367.4z"/>
		<path class="st2" d="M-25.1,370.5c0,1.4-1.1,2.4-2.4,2.4l0,0c-1.4,0-2.4-1.1-2.4-2.4v-14.3c0-1.4,1.1-2.4,2.4-2.4l0,0
			c1.4,0,2.4,1.1,2.4,2.4V370.5z"/>
		<path class="st2" d="M-6.5,353.2h-11.9c0,0.1,0,0.2,0,0.2c0,0,0,0.9,0,1c0,1.6-1.5,2.4-3,2.4h-1.3c0.3,3,2.8,5.4,5.9,5.5h0.8
			c3.5,0,6.6-2.3,7.4-5.5C-8.3,355.4-7.5,354.1-6.5,353.2L-6.5,353.2z"/>
		<path class="st2" d="M-41.5,361.1c0.7,4.7,4.1,8.3,8.2,8.3c4.1,0,7.5-3.6,8.2-8.3H-41.5z"/>
		<path class="st2" d="M-0.1,355.4c-0.2,2.8-2.6,4.9-5.4,4.9c-2.3,0-4.2-1.4-5-3.3c-0.4-1-1.1-1.7-2.1-1.7c-1.1,0-8.8,0-11.6,0
			c-2.5,0-4.5,1.8-5.1,4.2c-0.6,2.6-3.2,4.5-6,4.5H-36c-2.5-0.1-4.5-2-4.7-4.4h1c1.2,0,2.4-0.7,2.4-2c0,0,0-0.8,0-0.8
			c0-6.6,5.4-12,12-12h14.8c5.7,0,10.4,4.7,10.4,10.4C-0.1,355.2-0.1,355.3-0.1,355.4z"/>
		<path class="st2" d="M17.2,410.5c-3.2,0-6.7-0.7-10.2-2.2l-20.5-8.5l2.9-6.9l20.5,8.5c5,2.1,9.6,2.2,12.4,0.3
			c1.9-1.3,2.8-3.3,2.8-6.1v-17.8h7.5v17.8c0,5.3-2.2,9.7-6.2,12.3C23.9,409.6,20.7,410.5,17.2,410.5L17.2,410.5z"/>
		<path class="st3" d="M29.8,364.9c-1.7-0.2-3.3,1.1-3.5,2.9l-0.6,5.3c-0.2,1.7,1.1,3.3,2.9,3.5l0,0c1.7,0.2,3.3-1.1,3.5-2.9
			l0.4-7.5C32.6,364.3,31.5,365,29.8,364.9L29.8,364.9z"/>
		<path class="st3" d="M22.8,365.4c0.6,0,1.1,0.5,1.2,1.1l0.3,1.8c0.1,0.7,1.1,2.2,2,3.1c0.3,0.3,0.9,1.2,0.9,1.2
			c0.6,0.4,0.7,1.3,0.3,1.8c-0.4,0.6-1.3,0.7-1.8,0.3c0,0-1.4-1.5-2-2.2c-0.8-1-1.8-2.5-2-3.9l-0.3-1.8c-0.1-0.7,0.4-1.4,1.1-1.5
			C22.6,365.4,22.7,365.4,22.8,365.4L22.8,365.4z"/>
		<rect x="25.7" y="374.7" class="st3" width="6.5" height="3.4"/>
		<path class="st4" d="M-98.4,399.7c1.3-1.7,3.6-2.1,5.2-0.9l0,0c1.6,1.2,1.8,3.5,0.5,5.2l-0.6,0.7c-1.3,1.7-3.6,2.1-5.2,0.9l0,0
			c-1.6-1.2-1.8-3.5-0.5-5.2L-98.4,399.7z"/>
		<path class="st1" d="M-29.7,400C-29.7,400-29.7,400-29.7,400l-0.2,0c-1.2,2.4-3.2,2.8-3.9,2.8c-2.1,0.2-17.3-2.6-18.2-2.7
			c-3.8-0.6-13-2.5-16.7,7.3l0.5,4l3.6-0.8c1.2-5.2,7-7.2,13-7c0.9,0,16.5,1.6,18.7,1.1c1-0.2,3.4-1.1,4.5-4.2L-29.7,400z"/>
		<path class="st2" d="M-45.6,456.5l-4.1-3.4l-1.6-3l41.6-12.8c13.8-4.2,36.4-4.7,50.3-1.1l28.7,7.5l-2,7.6l-28.7-7.5
			c-12.5-3.3-33.6-2.8-46,1L-45.6,456.5L-45.6,456.5z"/>
		<path class="st4" d="M-99.6,412.4c-0.3-0.5-0.2-1.2,0.3-1.6l1.4-1.2c0.6-0.5,1.1-1.5,1.1-2l0.1-1.7c0.1-0.7,0.7-1.3,1.4-1.2
			c0.7,0.1,1.3,0.7,1.2,1.4l-0.1,1.7c-0.1,1.3-1,2.9-2,3.8l-1.4,1.2c-0.6,0.5-1.4,0.4-1.9-0.2C-99.5,412.6-99.6,412.5-99.6,412.4
			L-99.6,412.4z"/>
		<path class="st4" d="M-98.4,405.2c0.4,0.5,0.4,1.2,0,1.7l-1.1,1.5c-0.4,0.6-0.7,1.6-0.7,2.1l0.2,1.7c0.1,0.7-0.4,1.4-1.1,1.5
			c-0.7,0.1-1.4-0.4-1.5-1.1l-0.2-1.7c-0.2-1.3,0.3-3,1.2-4.1l1.1-1.5c0.4-0.6,1.3-0.7,1.9-0.2C-98.6,405.1-98.5,405.1-98.4,405.2
			L-98.4,405.2z"/>
		<path class="st4" d="M-95.2,407.6c-0.7,0.3-2.1,3.7-2.3,4.2l-0.6,1.6c-0.3,0.7-1,1-1.7,0.8c-0.7-0.3-1-1-0.8-1.7l0.6-1.6
			c0.4-1.2,2.4-5.1,3.7-5.7L-95.2,407.6z"/>
		<path class="st4" d="M-100,403.9c0.4,0.5,0.4,1.2,0,1.7l-1.2,1.4c-0.5,0.6-0.8,1.6-0.8,2.1l0.1,1.7c0.1,0.7-0.5,1.4-1.2,1.4
			c-0.7,0.1-1.4-0.5-1.4-1.2l-0.1-1.7c-0.1-1.3,0.5-3,1.4-4.1l1.2-1.4c0.5-0.6,1.3-0.6,1.9-0.2C-100.1,403.8-100.1,403.8-100,403.9
			L-100,403.9z"/>
		<path class="st4" d="M-101.1,408.8c-1.7-1.3-1.9-3.8-0.5-5.4l1.8-2.2c1.3-1.6,3.8-1.9,5.4-0.5l0,0c1.7,1.3,1.9,3.8,0.5,5.4
			l-1.8,2.2C-97,409.9-99.5,410.1-101.1,408.8L-101.1,408.8z"/>
		<path class="st5" d="M-170.7,493.1c-1.6-0.3-0.6-6.1,1-5.8l4.7,0.8c1.6,0.3,2.7,1.8,2.4,3.4l0,0c-0.3,1.6-1.8,2.7-3.4,2.4
			L-170.7,493.1z"/>
		<path class="st2" d="M-170.3,491.4c-0.8-0.4-1-1.4-0.6-2.1l0.1-0.2c0.4-0.8,1.4-1,2.2-0.6l1.5,0.8l0.4-0.7c0.7-1.3,0.3-3-1-3.7
			l-2.6-1.5l-9.7,17.1l2.6,1.5c0.1,0,0.2,0.1,0.3,0.1l3.3-5.7c0.3-0.5,0.9-2.3,3.4-1.2l1.7-3L-170.3,491.4z"/>
		<path class="st2" d="M-131.5,500.5c-1.7,0-3.4-0.1-5.1-0.3l-29.3-3.9l1.1-8.6l29.3,3.9c12.7,1.7,25.3-5.2,27.6-15l5.1-21.9
			l8.4,1.9l-5.1,21.9C-102.4,491.4-116.2,500.5-131.5,500.5L-131.5,500.5z"/>
		<path class="st5" d="M-36,497.9c0.6,1.5-4.9,3.6-5.5,2l-1.7-4.5c-0.6-1.5,0.2-3.2,1.7-3.8l0,0c1.5-0.6,3.2,0.2,3.8,1.7L-36,497.9z
			"/>
		<path class="st2" d="M-24.3,486.1l-6.3,5.5c-1.1,0.9-2.6,0.9-3.6,0l-4.3,3.8l1.1,1.3c0.6,0.7,0.5,1.7-0.1,2.2l-0.1,0.1
			c-0.7,0.6-1.7,0.5-2.2-0.1l-1.1-1.3l-1.3,1.1c-1.1,1-1.2,2.7-0.2,3.8l2,2.3l18.5-16.3l-2-2.3C-24.2,486.3-24.3,486.2-24.3,486.1z"
			/>
		<path class="st3" d="M-46.7,377.7c0.6-0.2,1-0.8,0.9-1.4l-0.2-1.9c-0.1-0.7,0.2-1.8,0.5-2.2l1-1.3c0.5-0.6,0.4-1.4-0.2-1.9
			c-0.6-0.5-1.4-0.3-1.9,0.2l-1,1.3c-0.8,1-1.2,2.8-1.1,4.2l0.2,1.9c0.1,0.7,0.8,1.2,1.5,1.1C-46.9,377.8-46.8,377.7-46.7,377.7
			L-46.7,377.7z"/>
		<path class="st3" d="M-44.4,377.7c0.6-0.2,1-0.8,0.9-1.4l-0.2-1.9c-0.1-0.7,0.2-1.8,0.5-2.2l1-1.3c0.5-0.6,0.4-1.4-0.2-1.9
			c-0.6-0.5-1.4-0.3-1.9,0.2l-1,1.3c-0.8,1-1.2,2.8-1.1,4.2l0.2,1.9c0.1,0.7,0.8,1.2,1.5,1.1C-44.6,377.8-44.5,377.7-44.4,377.7
			L-44.4,377.7z"/>
		<path class="st3" d="M-42.2,378.6c0.6-0.2,1-0.8,0.9-1.4l-0.2-1.9c-0.1-0.7,0.2-1.8,0.5-2.2l1-1.3c0.5-0.6,0.4-1.4-0.2-1.9
			c-0.6-0.5-1.4-0.3-1.9,0.2l-1,1.3c-0.8,1-1.2,2.8-1.1,4.2l0.2,1.9c0.1,0.7,0.8,1.2,1.5,1.1C-42.3,378.7-42.2,378.7-42.2,378.6
			L-42.2,378.6z"/>
		<path class="st2" d="M-79.8,400.2c-3.2-1.4-7.2-2.8-10.6-3.7c-3.9,0-15-2-18.8-2.8c-3.6-0.1-7.2,0-10.7,0.3l-7.6,48.5
			c-1.7,11.1,5.9,21.5,16.9,23.2c11.1,1.7,21.5-5.9,23.2-16.9L-79.8,400.2z"/>
		<path class="st3" d="M-100.7,413.8l10.3-17.4c-2.9-0.9-5.9-1.5-9-2c-3.3-0.5-6.6-0.8-9.8-0.8l4.5,19.6L-100.7,413.8z"/>
		<polygon class="st3" points="-103.6,419.2 -96.2,406.3 -100.8,401.6 -106.6,404.7 		"/>
		<polygon class="st5" points="-102.3,406.6 -100.9,406.8 -98.5,404 -100.8,401.6 -103.8,403.2 		"/>
		<path class="st2" d="M-160.6,434.1c-0.3,0-0.5,0-0.8-0.1c-2-0.4-3.4-2.4-2.9-4.5l3.8-18.3c2.5-11.9,13.9-20.7,25.6-19.4l17.7,1.8
			c2.1,0.2,3.6,2.1,3.4,4.1c-0.2,2.1-2.1,3.6-4.1,3.4l-17.7-1.8c-7.8-0.8-15.8,5.3-17.4,13.5l-3.8,18.3
			C-157.2,432.8-158.8,434.1-160.6,434.1L-160.6,434.1z"/>
		<path class="st3" d="M-94.1,397.6c-1,2.8-4.1,4.3-6.9,3.3l0,0c-2.8-1-4.3-4.1-3.3-6.9l4.9-14.4c1-2.8,4.1-4.3,6.9-3.3l0,0
			c2.8,1,4.3,4.1,3.3,6.9L-94.1,397.6z"/>
		<path class="st3" d="M-75.3,366.8c0-8.2-5.7-14.8-13.9-14.8c-8.2,0-14.8,6.6-14.8,14.8v11.6c0,8.2,6.6,14.8,14.8,14.8
			c0.1,0,0.2,0,0.3,0v0h6.1c4.1,0,7.4-3.3,7.4-7.4V366.8z"/>
		<path class="st3" d="M-99.8,373.3h-5.3c-2.3,0-4.1,1.9-4.1,4.1c0,2.3,1.9,4.1,4.1,4.1h6.7L-99.8,373.3z"/>
		<path class="st2" d="M-55,416.6c-3.2,0-6.7-0.7-10.2-2.2l-20.6-8.5l2.9-7l20.6,8.5c5,2.1,9.7,2.2,12.5,0.3
			c1.9-1.3,2.8-3.3,2.8-6.1v-17.8h7.5v17.8c0,5.3-2.2,9.7-6.2,12.4C-48.3,415.7-51.5,416.6-55,416.6L-55,416.6z"/>
		<path class="st2" d="M-45.5,495.7l-8.9-24.6c-4.1-11.4-18.2-18.6-30.7-15.8l-33.2,7.3c0,0-2.9-2.2-4.4-3.7
			c-1.2-1.3-2.5-3.6-2.5-3.6l38.2-8.5c16.8-3.8,35.1,5.8,40.7,21.3l8.9,24.6L-45.5,495.7L-45.5,495.7z"/>
		<path class="st3" d="M-42.4,370.8c-1.8-0.2-3.3,1.1-3.5,2.9l-0.6,5.3c-0.2,1.8,1.1,3.3,2.9,3.5l0,0c1.8,0.2,3.3-1.1,3.5-2.9
			l0.4-7.6C-39.5,370.2-40.6,370.9-42.4,370.8L-42.4,370.8z"/>
		<path class="st3" d="M-49.4,371.3c0.6,0,1.2,0.5,1.3,1.1l0.3,1.9c0.1,0.7,1.1,2.2,2.1,3.1c0.3,0.3,0.9,1.2,0.9,1.2
			c0.6,0.4,0.7,1.3,0.3,1.9c-0.4,0.6-1.3,0.7-1.9,0.3c0,0-1.4-1.5-2-2.2c-0.8-1-1.8-2.5-2.1-3.9l-0.3-1.9c-0.1-0.7,0.4-1.4,1.1-1.5
			C-49.6,371.3-49.5,371.3-49.4,371.3L-49.4,371.3z"/>
		<rect x="-46.5" y="380.7" class="st3" width="6.6" height="3.4"/>
		<path class="st3" d="M-164.3,431.1c0.4-2.1,2.3-3.5,4.3-3.1l0,0c1.9,0.4,3.2,2.4,2.8,4.5l-0.2,0.9c-0.4,2.1-2.3,3.5-4.3,3.1l0,0
			c-1.9-0.4-3.2-2.4-2.8-4.5L-164.3,431.1z"/>
		<path class="st3" d="M-162.2,436.6c-0.6-0.1-1.3,0.3-1.5,0.9l-0.6,2c-0.2,0.8-1.2,2.2-2.2,3l-2,1.6c-0.6,0.5-0.7,1.3-0.2,1.9
			c0.5,0.6,1.3,0.7,1.9,0.2l2-1.6c1.3-1.1,2.6-2.9,3.1-4.3l0.6-2c0.2-0.7-0.2-1.4-0.9-1.7C-162.1,436.7-162.1,436.6-162.2,436.6
			L-162.2,436.6z"/>
		<path class="st3" d="M-160.1,437.4c-0.6,0-1.2,0.6-1.2,1.2l-0.2,2.1c-0.1,0.8-0.7,2.4-1.5,3.4l-1.6,2c-0.5,0.6-0.4,1.4,0.2,1.9
			c0.6,0.5,1.4,0.4,1.9-0.2l1.6-2c1.1-1.3,2-3.4,2.1-4.8l0.2-2.1c0.1-0.7-0.5-1.4-1.2-1.4C-160,437.4-160,437.4-160.1,437.4
			L-160.1,437.4z"/>
		<path class="st3" d="M-164.8,434.8c-0.6-0.1-1.2,0.3-1.4,0.9l-0.6,1.8c-0.2,0.7-1,1.5-1.5,1.7l-1.5,0.7c-0.7,0.3-1,1.1-0.7,1.8
			c0.3,0.7,1.1,1,1.8,0.7l1.5-0.7c1.2-0.5,2.4-1.9,2.9-3.2l0.6-1.8c0.3-0.7-0.1-1.5-0.8-1.7C-164.6,434.8-164.7,434.8-164.8,434.8
			L-164.8,434.8z"/>
		<path class="st3" d="M-163.3,441.1c-2.2-0.5-3.6-2.7-3.1-5l0.7-2.9c0.5-2.2,2.7-3.6,5-3.1l0,0c2.2,0.5,3.6,2.7,3.1,5l-0.7,2.9
			C-158.8,440.3-161.1,441.7-163.3,441.1L-163.3,441.1z"/>
		<path class="st5" d="M-102.1,406C-102.1,406.1-102.1,406.1-102.1,406l-0.2,0c-1.2,2.4-3.2,2.8-4,2.9c-2.1,0.2-5.9-0.6-8.9-1.2
			c-1.3-0.3-2.5-0.5-3.5-0.7c-3.8-0.6-9.6-0.3-13.3,9.6l0.5,4l3.7-0.8c1.2-5.2,3.6-9.4,9.6-9.3c1,0,2.2,0.1,3.5,0.2
			c3.4,0.2,7.2,0.5,9.4,0c1-0.2,3.4-1.1,4.6-4.2L-102.1,406z"/>
		<path class="st2" d="M-102.6,377.1v-3.8h-3.7c0,0-1.4-5.3-1.7-9.8c-0.3-6.2,6.6-11.4,12.8-11.4h11.3c5.3,0,9.7,4.3,9.7,9.7
			c0,0.1-22.2,5.3-22.2,5.3v2.6c-1.8,0-3.3,1.3-3.6,3.1v5.2L-102.6,377.1z"/>
	</g>
</g>
</svg>
