<?xml version="1.0" encoding="utf-8"?>
<!-- Generator: Adobe Illustrator 19.0.0, SVG Export Plug-In . SVG Version: 6.00 Build 0)  -->
<svg version="1.1" id="Слой_1" xmlns="http://www.w3.org/2000/svg" xmlns:xlink="http://www.w3.org/1999/xlink" x="0px" y="0px"
	 viewBox="0 0 240 240" style="enable-background:new 0 0 240 240;" xml:space="preserve">
<style type="text/css">
	.st0{fill:#576D7A;}
	.st1{fill:#74BFC9;}
	.st2{fill:#E8CB79;}
	.st3{fill:#FFFFFF;}
	.st4{fill:#D9756A;}
	.st5{fill:#D7D5CB;}
</style>
<g id="XMLID_65_">
	<g id="XMLID_38_">
		<path id="XMLID_42_" class="st0" d="M189.8,151.4v-85c0-4.7-3.8-8.5-8.5-8.5H57.8c-4.7,0-8.5,3.8-8.5,8.5v85h-22
			c0,5.6,4.6,10.2,10.2,10.2h20.3h123.5h21.3c5.6,0,10.2-4.6,10.2-10.2H189.8z"/>
		<circle id="XMLID_41_" class="st1" cx="120" cy="63.2" r="3"/>
		<path id="XMLID_40_" class="st2" d="M105.7,154.6h28.6c1.8,0,3.2-1.4,3.2-3.2h-35C102.5,153.2,103.9,154.6,105.7,154.6z"/>
		<rect id="XMLID_39_" x="58" y="67.4" class="st3" width="123.8" height="77.5"/>
	</g>
	<g id="XMLID_32_">
		<path id="XMLID_37_" class="st0" d="M196.3,182.1h-33.5c-3.4,0-6.2-2.8-6.2-6.2V94c0-3.4,2.8-6.2,6.2-6.2h33.5
			c3.4,0,6.2,2.8,6.2,6.2v81.9C202.5,179.3,199.7,182.1,196.3,182.1z"/>
		<rect id="XMLID_36_" x="160.3" y="102.8" class="st3" width="38.3" height="62"/>
		<circle id="XMLID_35_" class="st4" cx="179.5" cy="174.1" r="4.7"/>
		<path id="XMLID_34_" class="st5" d="M185.3,97.1h-11.7c-1,0-1.8-0.8-1.8-1.8v0c0-1,0.8-1.8,1.8-1.8h11.7c1,0,1.8,0.8,1.8,1.8v0
			C187.2,96.3,186.3,97.1,185.3,97.1z"/>
		<circle id="XMLID_33_" class="st5" cx="166.6" cy="95.3" r="1.4"/>
	</g>
</g>
</svg>
