<?xml version="1.0" encoding="utf-8"?>
<!-- Generator: Adobe Illustrator 19.0.0, SVG Export Plug-In . SVG Version: 6.00 Build 0)  -->
<svg version="1.1" id="Слой_1" xmlns="http://www.w3.org/2000/svg" xmlns:xlink="http://www.w3.org/1999/xlink" x="0px" y="0px"
	 viewBox="-177 300.9 240 240" style="enable-background:new -177 300.9 240 240;" xml:space="preserve">
<style type="text/css">
	.st0{fill:#AEDEFF;}
	.st1{fill:#FFFFFF;}
	.st2{fill:#B2B3AB;}
	.st3{fill:#858185;}
	.st4{fill:#98989A;}
	.st5{fill:#A2BF4B;}
	.st6{fill:none;stroke:#7CB244;stroke-width:6;stroke-miterlimit:10;}
	.st7{fill:none;stroke:#B5C95D;stroke-width:3;stroke-linecap:round;stroke-linejoin:round;stroke-miterlimit:10;}
	.st8{fill:none;stroke:#FFFFFF;stroke-width:3;stroke-linecap:round;stroke-linejoin:round;stroke-miterlimit:10;}
	.st9{fill:none;stroke:#5FA427;stroke-width:3;stroke-miterlimit:10;}
	.st10{fill:#8DB04E;}
</style>
<g id="XMLID_146_">
	<circle id="XMLID_144_" class="st0" cx="-57.2" cy="420.7" r="79"/>
</g>
<g>
	<polygon class="st1" points="-43.1,392.1 -80,449 -77.1,451.5 -37.2,391.1 	"/>
	
		<rect x="-26.7" y="446.8" transform="matrix(0.7071 -0.7071 0.7071 0.7071 -329.2729 115.7005)" class="st2" width="3.5" height="17.1"/>
	
		<rect x="-25.2" y="446.1" transform="matrix(0.7071 -0.7071 0.7071 0.7071 -328.6242 115.9692)" class="st3" width="1.7" height="17.1"/>
	<path class="st4" d="M11.5,488.6l-3.2,3.2c-0.8,0.8-2.1,0.8-2.8,0l-29.1-29.1c-0.8-0.8-0.8-2.1,0-2.8l3.2-3.2
		c0.8-0.8,2.1-0.8,2.8,0l29.1,29.1C12.3,486.6,12.3,487.9,11.5,488.6z"/>
	
		<rect x="-6.3" y="452.2" transform="matrix(0.7071 -0.7071 0.7071 0.7071 -336.3809 135.0394)" class="st3" width="2.2" height="42.7"/>
	<path class="st5" d="M-93.6,349.6c0,0-4.5,13.8,1.7,25.1c6.2,11.4,20,13.8,20,13.8l16.5-2.4c0,0-2.8-21.3-18.2-26.5
		C-89.1,354.4-90.9,354.8-93.6,349.6z"/>
	<path class="st5" d="M0.6,328.9c0,0-2.1,10.3-15.5,12.4s-39.2,15.6-42,38.8l-1.7,4.6l15.8,5.5c0,0,25.5,0.7,39.6-21.2
		S0.6,328.9,0.6,328.9z"/>
	<polygon class="st1" points="-36.9,396.2 -73.8,453.1 -65.3,457.1 -28.3,400.5 	"/>
	<circle class="st6" cx="-57.7" cy="422.6" r="37.6"/>
	<path class="st7" d="M-81.7,451.5c-8.3-6.9-13.6-17.3-13.6-28.9c0-20.7,16.8-37.6,37.6-37.6c5.2,0,10.1,1.1,14.6,3"/>
	<path class="st7" d="M-78.3,391.1c0.8-0.5,1.6-1,2.4-1.5"/>
	<path class="st8" d="M-92.4,407.9c2.5-5.9,6.5-11,11.4-14.9"/>
	<circle class="st9" cx="-57.7" cy="422.6" r="34.6"/>
	<path class="st10" d="M0.7,336.1c0,0-3.7,16.5-17.7,22.7c-14,6.2-23.9,10-33.4,24.1c0,0,8.5-10.6,31.8-19.6
		C0.9,355.7,0.7,336.1,0.7,336.1z"/>
	<path class="st10" d="M-93.7,351.7c0,0,2.1,11,9.8,15.1s13.2,6.6,18.4,16c0,0-4.7-7-17.6-13.1C-93.8,364.8-93.7,351.7-93.7,351.7z"
		/>
</g>
</svg>
