<?xml version="1.0" encoding="utf-8"?>
<!-- Generator: Adobe Illustrator 19.0.0, SVG Export Plug-In . SVG Version: 6.00 Build 0)  -->
<svg version="1.1" id="Слой_1" xmlns="http://www.w3.org/2000/svg" xmlns:xlink="http://www.w3.org/1999/xlink" x="0px" y="0px"
	 viewBox="0 0 240 240" style="enable-background:new 0 0 240 240;" xml:space="preserve">
<style type="text/css">
	.st0{fill:#576D7A;}
	.st1{fill:#CECDCD;}
	.st2{fill:#FFFFFF;}
	.st3{fill:#E19044;}
	.st4{fill:#D24D43;}
	.st5{fill:#97CCD3;}
	.st6{fill:#C63E3E;}
	.st7{fill:#DC7B7D;}
	.st8{fill:#2E3F4E;}
	.st9{fill:#50708F;}
	.st10{fill:none;}
	.st11{fill:#BEDED9;}
	.st12{clip-path:url(#XMLID_137_);}
</style>
<g id="XMLID_33_">
	<path id="XMLID_130_" class="st0" d="M103.5,159c-1.6,6.4-3.1,12.8-4.7,19.2c14.6,0,29.2,0,43.7,0c-1.6-6.4-3.1-12.8-4.7-19.2
		C126.4,159,115,159,103.5,159z"/>
	<path id="XMLID_129_" class="st1" d="M145.2,177.9H96.1c-1.2,0-2.3,1.2-2.3,2.7v1h53.7v-1C147.5,179,146.5,177.9,145.2,177.9z"/>
	<path id="XMLID_128_" class="st1" d="M46.8,151.6v10.6c0,2,1.6,3.7,3.7,3.7h140.4c2,0,3.7-1.6,3.7-3.7v-10.6H46.8z"/>
	<path id="XMLID_127_" class="st0" d="M194.6,151.6V62.2c0-2-1.6-3.7-3.7-3.7H50.5c-2,0-3.7,1.6-3.7,3.7v89.4H194.6z"/>
	<rect id="XMLID_126_" x="52.8" y="64.2" class="st2" width="135.7" height="81.2"/>
	<g id="XMLID_115_">
		<rect id="XMLID_124_" x="67.8" y="132.1" class="st3" width="6.2" height="8.3"/>
		<rect id="XMLID_123_" x="80.3" y="124.6" class="st3" width="6.2" height="15.7"/>
		<rect id="XMLID_122_" x="92.7" y="118.9" class="st3" width="6.2" height="21.5"/>
		<rect id="XMLID_121_" x="105.1" y="124.1" class="st3" width="6.2" height="16.3"/>
		<rect id="XMLID_120_" x="117.6" y="105.6" class="st3" width="6.2" height="34.8"/>
		<rect id="XMLID_119_" x="130" y="111.8" class="st3" width="6.2" height="28.6"/>
		<rect id="XMLID_118_" x="142.4" y="98.9" class="st3" width="6.2" height="41.4"/>
		<rect id="XMLID_117_" x="154.9" y="87.3" class="st3" width="6.2" height="53"/>
		<rect id="XMLID_116_" x="167.3" y="75.3" class="st3" width="6.2" height="65.1"/>
	</g>
	<g id="XMLID_106_">
		<rect id="XMLID_114_" x="61.8" y="73.7" class="st4" width="25.4" height="2.4"/>
		<rect id="XMLID_113_" x="61.8" y="79.9" class="st5" width="45.8" height="1.5"/>
		<rect id="XMLID_112_" x="61.8" y="84.4" class="st5" width="38.9" height="1.5"/>
		<rect id="XMLID_111_" x="61.8" y="89" class="st5" width="43.2" height="1.5"/>
		<rect id="XMLID_110_" x="61.8" y="93.5" class="st5" width="33.6" height="1.5"/>
		<path id="XMLID_107_" class="st4" d="M61.8,99.3v4.3h14.8v-4.3H61.8z M74.2,102.2h-9.9v-1.5h9.9V102.2z"/>
	</g>
	<g id="XMLID_103_">
		<path id="XMLID_104_" class="st5" d="M61.3,131.5c-0.2,0-0.4-0.1-0.6-0.3c-0.2-0.3-0.1-0.7,0.2-0.9l35.4-22.9
			c0.2-0.1,0.5-0.1,0.7,0l10.6,5.9l13-20.4c0.1-0.2,0.3-0.3,0.4-0.3c0.2,0,0.4,0,0.5,0.1l11.2,8.6l36.7-31.7
			c0.3-0.2,0.7-0.2,0.9,0.1c0.2,0.3,0.2,0.7-0.1,0.9l-37.1,32c-0.2,0.2-0.6,0.2-0.8,0l-11-8.5l-13,20.3c-0.2,0.3-0.6,0.4-0.9,0.2
			l-10.8-6l-35.1,22.7C61.5,131.5,61.4,131.5,61.3,131.5L61.3,131.5z"/>
	</g>
	<circle id="XMLID_102_" class="st4" cx="62.2" cy="130.5" r="2.6"/>
	<circle id="XMLID_101_" class="st4" cx="96.3" cy="108.1" r="2.6"/>
	<circle id="XMLID_100_" class="st4" cx="107.8" cy="113.9" r="2.6"/>
	<circle id="XMLID_99_" class="st4" cx="121.4" cy="93.3" r="2.6"/>
	<circle id="XMLID_98_" class="st4" cx="133.3" cy="102.3" r="2.6"/>
	<circle id="XMLID_97_" class="st4" cx="169.9" cy="70" r="2.6"/>
	<path id="XMLID_96_" class="st6" d="M227.9,158.8C227.9,158.8,227.9,158.8,227.9,158.8c-2.6,2.6-6.7,2.5-9.3,0l-19.9-20
		c-2.5-2.6-2.5-6.7,0-9.2c0,0,0,0,0,0c2.6-2.5,6.7-2.5,9.2,0l19.9,20C230.5,152.1,230.5,156.2,227.9,158.8L227.9,158.8z"/>
	<path id="XMLID_95_" class="st7" d="M225.1,158.6c-1,1-2.6,1-3.6,0l-19.9-20c-1-1-1-2.6,0-3.6c1-1,2.6-1,3.6,0l19.9,20
		C226.1,156,226.1,157.6,225.1,158.6L225.1,158.6z"/>
	<path id="XMLID_94_" class="st8" d="M196,126.6L196,126.6c-4.8,4.8-11.3,7.5-18.1,7.5c-14.1,0-25.5-11.5-25.5-25.6
		c0-6.8,2.7-13.2,7.5-18c4.8-4.8,11.3-7.5,18.1-7.5c6.8,0,13.2,2.7,18.1,7.5c4.8,4.8,7.5,11.3,7.5,18.1
		C203.4,115.4,200.8,121.8,196,126.6L196,126.6z"/>
	<g id="XMLID_92_">
		<path id="XMLID_93_" class="st9" d="M177.8,132.7c-6.4,0-12.5-2.5-17-7.1c-4.6-4.6-7.1-10.6-7-17.1c0-6.4,2.5-12.5,7.1-17
			c4.6-4.6,10.6-7.1,17-7.1c0,0,0,0,0,0l0,3.2c0,0,0,0,0,0c-5.6,0-10.8,2.2-14.8,6.1c-3.9,3.9-6.1,9.2-6.1,14.7
			c0,5.6,2.2,10.8,6.1,14.8c3.9,4,9.2,6.1,14.8,6.2L177.8,132.7L177.8,132.7z"/>
	</g>
	<g id="XMLID_90_">
		<path id="XMLID_91_" class="st10" d="M193.8,124.4"/>
	</g>
	<path id="XMLID_89_" class="st5" d="M164.4,95.1c-3.6,3.6-5.6,8.4-5.6,13.4c0,10.5,8.5,19,19,19.1c5.1,0,9.9-2,13.5-5.6l0,0
		c3.6-3.6,5.6-8.3,5.6-13.4c0-5.1-2-9.9-5.6-13.5c-3.6-3.6-8.4-5.6-13.4-5.6C172.8,89.5,168.1,91.5,164.4,95.1L164.4,95.1z"/>
	<path id="XMLID_88_" class="st11" d="M191.4,95.1c-3.6-3.6-8.4-5.6-13.4-5.6c-1.4,0-2.8,0.2-4.2,0.5c-2.1,0.9-4,2.2-5.6,3.9
		c-3.6,3.6-5.6,8.4-5.6,13.4c0,10.5,8.5,19,19,19.1c1.4,0,2.8-0.2,4.2-0.5c2.1-0.9,4-2.2,5.6-3.9l0,0c3.6-3.6,5.6-8.3,5.6-13.4
		C196.9,103.5,195,98.7,191.4,95.1z"/>
	<g id="XMLID_86_">
		<path id="XMLID_87_" class="st8" d="M201.3,132.1c-1.3,1.3-3.3,1.3-4.6,0l-4.1-4.2c-1.3-1.3-1.3-3.3,0-4.6c0,0,0,0,0,0
			c1.3-1.3,3.3-1.3,4.6,0l4.1,4.2C202.6,128.8,202.6,130.9,201.3,132.1C201.3,132.1,201.3,132.1,201.3,132.1z"/>
	</g>
	<g id="XMLID_81_">
		<defs>
			<path id="XMLID_82_" d="M164.4,95.1c-3.6,3.6-5.6,8.4-5.6,13.4c0,10.5,8.5,19,19,19.1c5.1,0,9.9-2,13.5-5.6l0,0
				c3.6-3.6,5.6-8.3,5.6-13.4c0-5.1-2-9.9-5.6-13.5c-3.6-3.6-8.4-5.6-13.4-5.6C172.8,89.5,168.1,91.5,164.4,95.1L164.4,95.1z"/>
		</defs>
		<clipPath id="XMLID_137_">
			<use xlink:href="#XMLID_82_"  style="overflow:visible;"/>
		</clipPath>
		<g id="XMLID_83_" class="st12">
			<rect id="XMLID_85_" x="152.4" y="62.1" class="st3" width="11.2" height="95.3"/>
			<rect id="XMLID_84_" x="169.9" y="41" class="st3" width="11.2" height="116.9"/>
		</g>
	</g>
</g>
</svg>
