<?xml version="1.0" encoding="utf-8"?>
<!-- Generator: Adobe Illustrator 19.0.0, SVG Export Plug-In . SVG Version: 6.00 Build 0)  -->
<svg version="1.1" id="Слой_1" xmlns="http://www.w3.org/2000/svg" xmlns:xlink="http://www.w3.org/1999/xlink" x="0px" y="0px"
	 viewBox="0 0 240 240" style="enable-background:new 0 0 240 240;" xml:space="preserve">
<style type="text/css">
	.st0{fill:#E3E3E6;}
	.st1{fill:#545559;}
	.st2{fill:#D86A4C;}
	.st3{fill:#9FA1A6;}
	.st4{fill:#EAEAEA;}
	.st5{fill:#CCCED1;}
	.st6{fill:#8C8F93;}
	.st7{fill:#393B3D;}
	.st8{fill:#A75743;}
	.st9{fill:#FFFFFF;}
</style>
<g id="XMLID_81_">
	<polygon id="XMLID_536_" class="st0" points="51.1,76.7 54.2,76.7 54.2,57.7 51.1,57.7 51.1,76.7 	"/>
	<polygon id="XMLID_535_" class="st0" points="186.6,76.7 189.8,76.7 189.8,57.7 186.6,57.7 186.6,76.7 	"/>
	<polygon id="XMLID_534_" class="st1" points="186.6,89.5 50.7,89.5 50.7,77.5 186.6,77.5 186.6,89.5 	"/>
	<polygon id="XMLID_533_" class="st2" points="60,63.3 54.9,63.3 54.9,72.2 58.7,73.5 60,73.5 65.1,73.5 65.1,63.3 60,63.3 	"/>
	<polygon id="XMLID_532_" class="st2" points="180.9,63.3 186,63.3 186,72.2 182.2,73.5 180.9,73.5 175.8,73.5 175.8,63.3 
		180.9,63.3 	"/>
	<polygon id="XMLID_531_" class="st2" points="59.3,73.5 181.5,73.5 181.5,63.3 59.3,63.3 59.3,73.5 	"/>
	<polygon id="XMLID_530_" class="st0" points="186.6,58.9 54.2,58.9 54.2,57.7 186.6,57.7 186.6,58.9 	"/>
	<polygon id="XMLID_529_" class="st0" points="53.1,69.1 42.9,69.1 42.9,58.9 53.1,58.9 53.1,69.1 	"/>
	<polygon id="XMLID_528_" class="st1" points="53.3,92 48.2,92 48.2,76.7 53.3,76.7 53.3,92 	"/>
	<polygon id="XMLID_527_" class="st3" points="53,61.5 47.9,61.5 47.9,66.6 53,66.6 53,61.5 	"/>
	<polygon id="XMLID_526_" class="st4" points="176.8,43.4 64.1,43.4 64.1,83.2 176.8,83.2 176.8,43.4 	"/>
	<polygon id="XMLID_525_" class="st3" points="48.8,66.6 51.8,66.6 51.8,67.2 48.8,67.2 48.8,66.6 	"/>
	<path id="XMLID_524_" class="st0" d="M39.9,81.2h-1V65.9l0-0.1c0,0,0.9-3,0.9-5.2c0-2.1-0.9-4-0.9-4l0.9-0.4c0,0.1,1,2.1,1,4.4
		c0,2.1-0.8,4.9-1,5.4V81.2L39.9,81.2z"/>
	<path id="XMLID_523_" class="st5" d="M50.6,61.5c0,1.4-1.1,2.5-2.5,2.5c-1.4,0-2.5-1.1-2.5-2.5c0-1.4,1.1-2.5,2.5-2.5
		C49.4,58.9,50.6,60.1,50.6,61.5L50.6,61.5z"/>
	<polygon id="XMLID_522_" class="st0" points="40.5,81.8 39.6,81.8 39.6,71.5 42.1,68.9 42.1,61.5 43.1,61.5 43.1,69.3 40.5,71.8 
		40.5,81.8 	"/>
	<path id="XMLID_521_" class="st5" d="M50.2,66.6c0,0.7-0.6,1.3-1.3,1.3s-1.3-0.6-1.3-1.3s0.6-1.3,1.3-1.3S50.2,65.9,50.2,66.6
		L50.2,66.6z"/>
	<path id="XMLID_520_" class="st3" d="M49.6,66.6c0,0.4-0.3,0.6-0.6,0.6c-0.4,0-0.6-0.3-0.6-0.6s0.3-0.6,0.6-0.6
		C49.3,65.9,49.6,66.2,49.6,66.6L49.6,66.6z"/>
	<path id="XMLID_519_" class="st3" d="M49.9,61.5c0,1.1-0.9,1.9-1.9,1.9c-1.1,0-1.9-0.9-1.9-1.9s0.9-1.9,1.9-1.9
		C49.1,59.6,49.9,60.4,49.9,61.5L49.9,61.5z"/>
	<polygon id="XMLID_518_" class="st5" points="46.7,62.9 46.6,62.8 49.3,60.1 49.4,60.2 46.7,62.9 	"/>
	<polygon id="XMLID_517_" class="st0" points="51.1,86.9 53,86.9 53,60.7 51.1,60.7 51.1,86.9 	"/>
	<path id="XMLID_516_" class="st0" d="M51.1,76.7v10.2c0,0.5,0.4,1,1,1c0.5,0,1-0.4,1-1V76.7H51.1L51.1,76.7z"/>
	<path id="XMLID_515_" class="st5" d="M49.1,95.8c0,0.7-0.6,1.3-1.3,1.3h-5.1c-0.7,0-1.3-0.6-1.3-1.3V72.9c0-0.7,0.6-1.3,1.3-1.3
		h5.1c0.7,0,1.3,0.6,1.3,1.3V95.8L49.1,95.8z"/>
	<polygon id="XMLID_514_" class="st6" points="47.9,97.1 42.8,97.1 42.8,71.7 47.9,71.7 47.9,97.1 	"/>
	<polygon id="XMLID_513_" class="st5" points="47.9,96.6 42.8,96.6 42.8,96.4 47.9,96.4 47.9,96.6 	"/>
	<polygon id="XMLID_512_" class="st5" points="47.9,95.3 42.8,95.3 42.8,95.1 47.9,95.1 47.9,95.3 	"/>
	<polygon id="XMLID_511_" class="st5" points="47.9,94 42.8,94 42.8,93.9 47.9,93.9 47.9,94 	"/>
	<polygon id="XMLID_510_" class="st5" points="47.9,92.7 42.8,92.7 42.8,92.6 47.9,92.6 47.9,92.7 	"/>
	<polygon id="XMLID_509_" class="st5" points="47.9,91.5 42.8,91.5 42.8,91.3 47.9,91.3 47.9,91.5 	"/>
	<polygon id="XMLID_508_" class="st5" points="47.9,90.2 42.8,90.2 42.8,90 47.9,90 47.9,90.2 	"/>
	<polygon id="XMLID_507_" class="st5" points="47.9,88.9 42.8,88.9 42.8,88.8 47.9,88.8 47.9,88.9 	"/>
	<polygon id="XMLID_506_" class="st5" points="47.9,87.6 42.8,87.6 42.8,87.5 47.9,87.5 47.9,87.6 	"/>
	<polygon id="XMLID_505_" class="st5" points="47.9,86.4 42.8,86.4 42.8,86.2 47.9,86.2 47.9,86.4 	"/>
	<polygon id="XMLID_504_" class="st5" points="47.9,85.1 42.8,85.1 42.8,84.9 47.9,84.9 47.9,85.1 	"/>
	<polygon id="XMLID_503_" class="st5" points="47.9,83.8 42.8,83.8 42.8,83.7 47.9,83.7 47.9,83.8 	"/>
	<polygon id="XMLID_502_" class="st5" points="47.9,82.6 42.8,82.6 42.8,82.4 47.9,82.4 47.9,82.6 	"/>
	<polygon id="XMLID_501_" class="st5" points="47.9,81.3 42.8,81.3 42.8,81.1 47.9,81.1 47.9,81.3 	"/>
	<polygon id="XMLID_500_" class="st5" points="47.9,80 42.8,80 42.8,79.8 47.9,79.8 47.9,80 	"/>
	<polygon id="XMLID_499_" class="st5" points="47.9,78.7 42.8,78.7 42.8,78.6 47.9,78.6 47.9,78.7 	"/>
	<polygon id="XMLID_498_" class="st5" points="47.9,77.5 42.8,77.5 42.8,77.3 47.9,77.3 47.9,77.5 	"/>
	<polygon id="XMLID_497_" class="st5" points="47.9,76.2 42.8,76.2 42.8,76 47.9,76 47.9,76.2 	"/>
	<polygon id="XMLID_496_" class="st5" points="47.9,74.9 42.8,74.9 42.8,74.8 47.9,74.8 47.9,74.9 	"/>
	<polygon id="XMLID_495_" class="st5" points="47.9,73.6 42.8,73.6 42.8,73.5 47.9,73.5 47.9,73.6 	"/>
	<polygon id="XMLID_494_" class="st5" points="47.9,72.4 42.8,72.4 42.8,72.2 47.9,72.2 47.9,72.4 	"/>
	<polygon id="XMLID_493_" class="st0" points="54.2,76.7 53,76.7 53,57.7 54.2,57.7 54.2,76.7 	"/>
	<polygon id="XMLID_492_" class="st3" points="67,75.5 61.9,75.5 61.9,85.7 67,85.7 67,75.5 	"/>
	<polygon id="XMLID_491_" class="st3" points="179,75.5 173.9,75.5 173.9,85.7 179,85.7 179,75.5 	"/>
	<path id="XMLID_490_" class="st3" d="M161.2,81.8c0,1.4-1.1,2.5-2.5,2.5c-1.4,0-2.5-1.1-2.5-2.5c0-1.4,1.1-2.5,2.5-2.5
		C160,79.3,161.2,80.4,161.2,81.8L161.2,81.8z"/>
	<polygon id="XMLID_489_" class="st3" points="161.2,84.4 156.1,84.4 156.1,81.8 161.2,81.8 161.2,84.4 	"/>
	<polygon id="XMLID_488_" class="st7" points="171.4,93.3 69.5,93.3 69.5,83.1 171.4,83.1 171.4,93.3 	"/>
	<polygon id="XMLID_487_" class="st2" points="73.1,82.1 73.1,82.1 73.1,82.1 	"/>
	<polygon id="XMLID_486_" class="st2" points="73.1,82.1 73.1,82.1 73.1,82.1 	"/>
	<polygon id="XMLID_485_" class="st2" points="73.1,82.1 73.1,82.1 73.1,82.1 	"/>
	<polygon id="XMLID_484_" class="st2" points="73.1,82.1 73.1,82.1 73.1,82.1 	"/>
	<polygon id="XMLID_483_" class="st3" points="130.6,83.1 79.7,83.1 79.7,81.8 130.6,81.8 130.6,83.1 	"/>
	<polygon id="XMLID_482_" class="st3" points="156.1,83.1 130.6,83.1 130.6,81.8 156.1,81.8 156.1,83.1 	"/>
	<polygon id="XMLID_481_" class="st7" points="151.2,83.1 150.8,83.1 150.8,81.8 151.2,81.8 151.2,83.1 	"/>
	<polygon id="XMLID_480_" class="st7" points="150.5,83.1 150.2,83.1 150.2,81.8 150.5,81.8 150.5,83.1 	"/>
	<polygon id="XMLID_479_" class="st7" points="149.9,83.1 149.6,83.1 149.6,81.8 149.9,81.8 149.9,83.1 	"/>
	<polygon id="XMLID_478_" class="st7" points="149.2,83.1 148.9,83.1 148.9,81.8 149.2,81.8 149.2,83.1 	"/>
	<polygon id="XMLID_477_" class="st7" points="148.6,83.1 148.3,83.1 148.3,81.8 148.6,81.8 148.6,83.1 	"/>
	<polygon id="XMLID_476_" class="st7" points="148,83.1 147.7,83.1 147.7,81.8 148,81.8 148,83.1 	"/>
	<polygon id="XMLID_475_" class="st7" points="147.3,83.1 147,83.1 147,81.8 147.3,81.8 147.3,83.1 	"/>
	<polygon id="XMLID_474_" class="st7" points="146.7,83.1 146.4,83.1 146.4,81.8 146.7,81.8 146.7,83.1 	"/>
	<polygon id="XMLID_473_" class="st7" points="146.1,83.1 145.7,83.1 145.7,81.8 146.1,81.8 146.1,83.1 	"/>
	<polygon id="XMLID_472_" class="st7" points="145.4,83.1 145.1,83.1 145.1,81.8 145.4,81.8 145.4,83.1 	"/>
	<polygon id="XMLID_471_" class="st7" points="144.8,83.1 144.5,83.1 144.5,81.8 144.8,81.8 144.8,83.1 	"/>
	<polygon id="XMLID_470_" class="st7" points="144.2,83.1 143.8,83.1 143.8,81.8 144.2,81.8 144.2,83.1 	"/>
	<polygon id="XMLID_469_" class="st7" points="143.5,83.1 143.2,83.1 143.2,81.8 143.5,81.8 143.5,83.1 	"/>
	<polygon id="XMLID_468_" class="st7" points="142.9,83.1 142.6,83.1 142.6,81.8 142.9,81.8 142.9,83.1 	"/>
	<polygon id="XMLID_467_" class="st7" points="142.2,83.1 141.9,83.1 141.9,81.8 142.2,81.8 142.2,83.1 	"/>
	<polygon id="XMLID_466_" class="st7" points="141.6,83.1 141.3,83.1 141.3,81.8 141.6,81.8 141.6,83.1 	"/>
	<polygon id="XMLID_465_" class="st7" points="141,83.1 140.7,83.1 140.7,81.8 141,81.8 141,83.1 	"/>
	<path id="XMLID_464_" class="st1" d="M159.4,81.8c0,0.4-0.4,0.8-0.8,0.8c-0.4,0-0.8-0.4-0.8-0.8c0-0.4,0.4-0.8,0.8-0.8
		C159.1,81,159.4,81.4,159.4,81.8L159.4,81.8z"/>
	<polygon id="XMLID_463_" class="st1" points="161.2,83.7 156.1,83.7 156.1,83.1 161.2,83.1 161.2,83.7 	"/>
	<polygon id="XMLID_462_" class="st0" points="186.6,76.7 54.2,76.7 54.2,74.2 186.6,74.2 186.6,76.7 	"/>
	<path id="XMLID_461_" class="st2" d="M135.9,144.1h-15.4h-0.1h-15.2H50.7c0.8,12.3,2.9,24.7,2.9,36.9c0,0,0,10.2,10.2,10.2
		c6.4,0,107,0,113.3,0c10.2,0,10.2-10.2,10.2-10.2c0-12.2,2.1-24.6,2.9-36.9H135.9L135.9,144.1z"/>
	<path id="XMLID_460_" class="st2" d="M176.5,77.9h-5.1c-1.4,0-2.7,0.6-3.6,1.5l0,0v0l-7.2,7.2v0c-0.9,0.9-2.2,1.5-3.6,1.5h-36.4
		l0,6.4h-0.2l0-6.4H83.9c-1.4,0-2.7-0.6-3.6-1.5v0l-7.2-7.2v0l0,0c-0.9-0.9-2.2-1.5-3.6-1.5h-5.1c-10.2,0-14,9.1-14,20.4
		c0,0,0,32.8,0,36.9c0,0.8,0,1.7,0,2.5c0,0.3,0,0.6,0,0.9c0.1,0.6,0.3,1.2,0.6,1.7c0.9,1.5,2.5,2.5,4.4,2.5h5.1H95h25.4h0.1h25.4
		h34.4h5.1c1.9,0,3.5-1,4.4-2.5c0.3-0.6,0.5-1.2,0.6-1.9c0-0.2,0-0.5,0-0.7c0-0.8,0-1.7,0-2.5c0-4.2,0-36.9,0-36.9
		C190.5,87,186.7,77.9,176.5,77.9L176.5,77.9z"/>
	<path id="XMLID_459_" class="st7" d="M185.4,142.8h4.9c0-0.8,0.1-1.7,0.1-2.5h-0.6C188.9,141.8,187.2,142.8,185.4,142.8
		L185.4,142.8z"/>
	<path id="XMLID_458_" class="st7" d="M189.8,140.3h0.6c0-0.6,0-1.2,0.1-1.9C190.3,139.1,190.1,139.7,189.8,140.3L189.8,140.3z"/>
	<path id="XMLID_457_" class="st7" d="M51.1,140.3h-0.6c0,0.8,0.1,1.7,0.1,2.5h4.8C53.6,142.8,52,141.8,51.1,140.3L51.1,140.3z"/>
	<path id="XMLID_456_" class="st7" d="M50.5,138.6c0,0.6,0,1.1,0.1,1.7h0.6C50.8,139.8,50.6,139.2,50.5,138.6L50.5,138.6z"/>
	<path id="XMLID_455_" class="st7" d="M190.5,137.7L190.5,137.7c0,0.2,0,0.5,0,0.7C190.4,138.2,190.5,138,190.5,137.7L190.5,137.7z"
		/>
	<path id="XMLID_454_" class="st7" d="M50.4,137.7L50.4,137.7c-0.1,0.3,0,0.6,0,0.9C50.5,138.3,50.5,138,50.4,137.7L50.4,137.7z"/>
	<path id="XMLID_453_" class="st8" d="M120.4,138c28.2,0,51.1-22.1,52.5-49.9V77.9h-1.6c-1.4,0-2.7,0.6-3.6,1.5l0,0v0l-7.2,7.2v0
		c-0.9,0.9-2.2,1.5-3.6,1.5h-36.4l0,6.4h-0.2l0-6.4H83.9c-1.4,0-2.7-0.6-3.6-1.5v0l-7.2-7.2v0l0,0c-0.9-0.9-2.2-1.5-3.6-1.5h-1.6
		v10.2C69.3,115.9,92.3,138,120.4,138L120.4,138z"/>
	<path id="XMLID_452_" class="st8" d="M120.4,85.6L70.8,96.8c5.1,22.7,25.4,39.6,49.7,39.6c24.2,0,44.5-16.9,49.7-39.6L120.4,85.6
		L120.4,85.6z"/>
	<path id="XMLID_451_" class="st7" d="M142.4,98.2c-4.4,7.6-12.6,12.8-22.1,12.8c-9.4,0-17.6-5.1-22-12.7l-19.2,11.1
		c8.3,14.3,23.7,23.9,41.3,23.9c17.7,0,33.1-9.6,41.3-23.9L142.4,98.2L142.4,98.2z"/>
	<path id="XMLID_450_" class="st2" d="M120.3,111c9.4,0,17.7-5.1,22.1-12.8l-22-12.7L98.3,98.3C102.7,105.9,110.9,111,120.3,111
		L120.3,111z"/>
	<path id="XMLID_449_" class="st3" d="M134,92.5c-2.5,5-7.7,8.3-13.6,8.3c-5.9,0-11.1-3.4-13.6-8.3l-2.3,1.2c2.9,5.8,9,9.7,15.9,9.7
		c6.9,0,12.9-4,15.9-9.7L134,92.5L134,92.5z"/>
	<polygon id="XMLID_448_" class="st9" points="122.5,127.1 120.3,85.6 120.6,85.5 122.8,127.1 122.5,127.1 	"/>
	<polygon id="XMLID_447_" class="st9" points="123.5,132.1 122.2,132.2 122.1,127.1 123.1,127.1 123.5,132.1 	"/>
	<polygon id="XMLID_446_" class="st9" points="124.6,126.9 120.3,85.6 120.6,85.5 124.9,126.9 124.6,126.9 	"/>
	<polygon id="XMLID_445_" class="st9" points="125.9,131.9 124.7,132 124.3,127 125.3,126.9 125.9,131.9 	"/>
	<polygon id="XMLID_444_" class="st9" points="126.8,126.6 120.3,85.6 120.6,85.5 127.1,126.6 126.8,126.6 	"/>
	<polygon id="XMLID_443_" class="st9" points="128.4,131.6 127.1,131.8 126.5,126.7 127.4,126.5 128.4,131.6 	"/>
	<polygon id="XMLID_442_" class="st9" points="128.9,126.3 120.3,85.6 120.6,85.5 129.2,126.2 128.9,126.3 	"/>
	<polygon id="XMLID_441_" class="st9" points="130.8,131.1 129.5,131.3 128.6,126.3 129.5,126.1 130.8,131.1 	"/>
	<polygon id="XMLID_440_" class="st9" points="131,125.8 120.3,85.6 120.6,85.5 131.4,125.7 131,125.8 	"/>
	<polygon id="XMLID_439_" class="st9" points="133.1,130.5 131.9,130.8 130.7,125.8 131.7,125.6 133.1,130.5 	"/>
	<polygon id="XMLID_438_" class="st9" points="133.1,125.1 120.3,85.6 120.6,85.5 133.4,125 133.1,125.1 	"/>
	<polygon id="XMLID_437_" class="st9" points="135.5,129.7 134.3,130.1 132.8,125.2 133.7,125 135.5,129.7 	"/>
	<polygon id="XMLID_436_" class="st9" points="135.2,124.4 120.3,85.6 120.6,85.5 135.5,124.3 135.2,124.4 	"/>
	<polygon id="XMLID_435_" class="st9" points="137.8,128.9 136.6,129.4 134.9,124.5 135.8,124.2 137.8,128.9 	"/>
	<polygon id="XMLID_434_" class="st9" points="137.2,123.6 120.3,85.6 120.6,85.5 137.5,123.5 137.2,123.6 	"/>
	<polygon id="XMLID_433_" class="st9" points="140,127.9 138.8,128.5 136.9,123.7 137.8,123.3 140,127.9 	"/>
	<polygon id="XMLID_432_" class="st9" points="139.2,122.7 120.3,85.6 120.6,85.5 139.5,122.5 139.2,122.7 	"/>
	<polygon id="XMLID_431_" class="st9" points="142.2,126.8 141.1,127.4 138.9,122.8 139.7,122.4 142.2,126.8 	"/>
	<polygon id="XMLID_430_" class="st9" points="141.1,121.6 120.3,85.6 120.6,85.5 141.4,121.5 141.1,121.6 	"/>
	<polygon id="XMLID_429_" class="st9" points="144.3,125.7 143.2,126.3 140.8,121.8 141.6,121.3 144.3,125.7 	"/>
	<polygon id="XMLID_428_" class="st9" points="142.9,120.5 120.3,85.6 120.6,85.5 143.2,120.3 142.9,120.5 	"/>
	<polygon id="XMLID_427_" class="st9" points="146.4,124.3 145.3,125 142.7,120.7 143.5,120.2 146.4,124.3 	"/>
	<polygon id="XMLID_426_" class="st9" points="144.7,119.3 120.3,85.6 120.6,85.5 145,119.1 144.7,119.3 	"/>
	<polygon id="XMLID_425_" class="st9" points="148.4,122.9 147.4,123.7 144.5,119.5 145.3,118.9 148.4,122.9 	"/>
	<polygon id="XMLID_424_" class="st9" points="146.5,118 120.3,85.7 120.6,85.5 146.7,117.8 146.5,118 	"/>
	<polygon id="XMLID_423_" class="st9" points="150.3,121.4 149.3,122.2 146.2,118.2 147,117.6 150.3,121.4 	"/>
	<polygon id="XMLID_422_" class="st9" points="148.1,116.6 120.3,85.7 120.6,85.4 148.4,116.3 148.1,116.6 	"/>
	<polygon id="XMLID_421_" class="st9" points="152.1,119.8 151.2,120.7 147.9,116.8 148.6,116.1 152.1,119.8 	"/>
	<polygon id="XMLID_420_" class="st9" points="149.7,115.1 120.3,85.7 120.5,85.4 150,114.8 149.7,115.1 	"/>
	<polygon id="XMLID_419_" class="st9" points="153.9,118.1 153,119 149.5,115.3 150.2,114.6 153.9,118.1 	"/>
	<polygon id="XMLID_418_" class="st9" points="151.2,113.5 120.3,85.7 120.5,85.4 151.4,113.3 151.2,113.5 	"/>
	<polygon id="XMLID_417_" class="st9" points="155.5,116.3 154.7,117.3 151,113.7 151.7,113 155.5,116.3 	"/>
	<polygon id="XMLID_416_" class="st9" points="152.6,111.8 120.3,85.7 120.5,85.4 152.8,111.6 152.6,111.8 	"/>
	<polygon id="XMLID_415_" class="st9" points="157.1,114.4 156.3,115.4 152.4,112.1 153,111.4 157.1,114.4 	"/>
	<polygon id="XMLID_414_" class="st9" points="154,110.1 120.3,85.7 120.5,85.4 154.2,109.9 154,110.1 	"/>
	<polygon id="XMLID_413_" class="st9" points="158.6,112.5 157.8,113.5 153.8,110.4 154.4,109.6 158.6,112.5 	"/>
	<polygon id="XMLID_412_" class="st9" points="155.2,108.3 120.3,85.7 120.5,85.4 155.4,108.1 155.2,108.3 	"/>
	<polygon id="XMLID_411_" class="st9" points="159.9,110.4 159.2,111.5 155,108.6 155.6,107.8 159.9,110.4 	"/>
	<polygon id="XMLID_410_" class="st9" points="85.7,108.3 85.5,108.1 120.3,85.4 120.5,85.7 85.7,108.3 	"/>
	<polygon id="XMLID_409_" class="st9" points="81.6,111.5 80.9,110.4 85.3,107.8 85.8,108.6 81.6,111.5 	"/>
	<polygon id="XMLID_408_" class="st9" points="86.9,110.1 86.7,109.9 120.3,85.4 120.5,85.7 86.9,110.1 	"/>
	<polygon id="XMLID_407_" class="st9" points="83.1,113.5 82.3,112.5 86.5,109.6 87.1,110.4 83.1,113.5 	"/>
	<polygon id="XMLID_406_" class="st9" points="88.2,111.8 88,111.6 120.3,85.4 120.5,85.7 88.2,111.8 	"/>
	<polygon id="XMLID_405_" class="st9" points="84.6,115.4 83.8,114.4 87.8,111.3 88.4,112.1 84.6,115.4 	"/>
	<polygon id="XMLID_404_" class="st9" points="89.6,113.5 89.4,113.3 120.3,85.4 120.5,85.7 89.6,113.5 	"/>
	<polygon id="XMLID_403_" class="st9" points="86.2,117.3 85.3,116.3 89.2,113 89.9,113.7 86.2,117.3 	"/>
	<polygon id="XMLID_402_" class="st9" points="91.1,115.1 90.9,114.8 120.3,85.4 120.5,85.7 91.1,115.1 	"/>
	<polygon id="XMLID_401_" class="st9" points="87.9,119 87,118.1 90.7,114.6 91.4,115.3 87.9,119 	"/>
	<polygon id="XMLID_400_" class="st9" points="92.7,116.6 92.5,116.3 120.3,85.4 120.6,85.7 92.7,116.6 	"/>
	<polygon id="XMLID_399_" class="st9" points="89.7,120.7 88.7,119.8 92.3,116.1 93,116.8 89.7,120.7 	"/>
	<polygon id="XMLID_398_" class="st9" points="94.4,118 94.1,117.8 120.3,85.5 120.6,85.7 94.4,118 	"/>
	<polygon id="XMLID_397_" class="st9" points="91.6,122.2 90.6,121.4 93.9,117.6 94.6,118.2 91.6,122.2 	"/>
	<polygon id="XMLID_396_" class="st9" points="96.1,119.3 95.9,119.1 120.3,85.5 120.6,85.6 96.1,119.3 	"/>
	<polygon id="XMLID_395_" class="st9" points="93.5,123.7 92.5,122.9 95.6,118.9 96.4,119.5 93.5,123.7 	"/>
	<polygon id="XMLID_394_" class="st9" points="97.9,120.5 97.7,120.3 120.3,85.5 120.6,85.6 97.9,120.5 	"/>
	<polygon id="XMLID_393_" class="st9" points="95.5,125 94.5,124.3 97.4,120.2 98.2,120.7 95.5,125 	"/>
	<polygon id="XMLID_392_" class="st9" points="99.8,121.6 99.5,121.5 120.3,85.5 120.6,85.6 99.8,121.6 	"/>
	<polygon id="XMLID_391_" class="st9" points="97.7,126.3 96.5,125.7 99.2,121.3 100.1,121.8 97.7,126.3 	"/>
	<polygon id="XMLID_390_" class="st9" points="101.7,122.7 101.4,122.5 120.3,85.5 120.6,85.6 101.7,122.7 	"/>
	<polygon id="XMLID_389_" class="st9" points="99.8,127.4 98.7,126.9 101.1,122.4 102,122.8 99.8,127.4 	"/>
	<polygon id="XMLID_388_" class="st9" points="103.7,123.6 103.4,123.5 120.3,85.5 120.6,85.6 103.7,123.6 	"/>
	<polygon id="XMLID_387_" class="st9" points="102,128.4 100.9,127.9 103.1,123.3 104,123.7 102,128.4 	"/>
	<polygon id="XMLID_386_" class="st9" points="105.7,124.4 105.4,124.3 120.3,85.5 120.6,85.6 105.7,124.4 	"/>
	<polygon id="XMLID_385_" class="st9" points="104.3,129.4 103.1,128.9 105.1,124.2 106,124.5 104.3,129.4 	"/>
	<polygon id="XMLID_384_" class="st9" points="107.7,125.1 107.4,125 120.3,85.5 120.6,85.6 107.7,125.1 	"/>
	<polygon id="XMLID_383_" class="st9" points="106.6,130.1 105.4,129.7 107.1,125 108,125.2 106.6,130.1 	"/>
	<polygon id="XMLID_382_" class="st9" points="109.8,125.8 109.5,125.7 120.3,85.5 120.6,85.6 109.8,125.8 	"/>
	<polygon id="XMLID_381_" class="st9" points="109,130.8 107.7,130.5 109.2,125.6 110.1,125.8 109,130.8 	"/>
	<polygon id="XMLID_380_" class="st9" points="111.9,126.3 111.6,126.2 120.3,85.5 120.6,85.6 111.9,126.3 	"/>
	<polygon id="XMLID_379_" class="st9" points="111.4,131.3 110.1,131.1 111.3,126.1 112.3,126.3 111.4,131.3 	"/>
	<polygon id="XMLID_378_" class="st9" points="114.1,126.6 113.8,126.6 120.3,85.5 120.6,85.6 114.1,126.6 	"/>
	<polygon id="XMLID_377_" class="st9" points="113.8,131.8 112.5,131.6 113.5,126.5 114.4,126.7 113.8,131.8 	"/>
	<polygon id="XMLID_376_" class="st9" points="116.2,126.9 115.9,126.9 120.3,85.5 120.6,85.6 116.2,126.9 	"/>
	<polygon id="XMLID_375_" class="st9" points="116.2,132 114.9,131.9 115.6,126.9 116.6,127 116.2,132 	"/>
	<polygon id="XMLID_374_" class="st9" points="118.4,127.1 118.1,127.1 120.3,85.5 120.6,85.6 118.4,127.1 	"/>
	<polygon id="XMLID_373_" class="st9" points="118.6,132.2 117.4,132.1 117.8,127.1 118.7,127.1 118.6,132.2 	"/>
	<polygon id="XMLID_372_" class="st9" points="120.6,127.1 120.3,127.1 120.3,85.6 120.6,85.6 120.6,127.1 	"/>
	<polygon id="XMLID_371_" class="st9" points="121.1,132.2 119.8,132.2 120,127.1 120.9,127.1 121.1,132.2 	"/>
	<path id="XMLID_370_" class="st9" d="M134,92.5c-2.5,5-7.7,8.3-13.6,8.3c-5.9,0-11.1-3.4-13.6-8.3l-2.3,1.2c2.9,5.8,9,9.7,15.9,9.7
		c6.9,0,12.9-4,15.9-9.7L134,92.5L134,92.5z"/>
	<path id="XMLID_369_" class="st7" d="M161.8,109.4c1.5-2.6,2.7-5.3,3.7-8.1l-45.1-15.8L161.8,109.4L161.8,109.4z"/>
	<path id="XMLID_368_" class="st7" d="M75.4,101.3c1,2.8,2.2,5.5,3.7,8.1l41.3-23.9L75.4,101.3L75.4,101.3z"/>
	<polygon id="XMLID_367_" class="st7" points="137.3,88.7 103.6,88.7 103.6,83.6 137.3,83.6 137.3,88.7 	"/>
	<polygon id="XMLID_366_" class="st8" points="83.8,137.7 57.1,137.7 57.1,135.2 83.8,135.2 83.8,137.7 	"/>
	<polygon id="XMLID_365_" class="st9" points="83.8,139 57.1,139 57.1,136.5 83.8,136.5 83.8,139 	"/>
	<path id="XMLID_364_" class="st8" d="M178.8,150.5h-58.4v35.6h56.6c2.8,0,5.1-2.3,5-5.1c0,0-0.1-6.2,0.4-10.2
		c0.4-3.1,0.9-15.3,0.9-15.3C183.7,152.8,181.6,150.5,178.8,150.5L178.8,150.5z"/>
	<path id="XMLID_363_" class="st8" d="M62,150.5h58.4v35.6H63.8c-2.8,0-5.1-2.3-5-5.1c0,0,0.1-6.2-0.4-10.2
		c-0.4-3.1-0.9-15.3-0.9-15.3C57.2,152.8,59.2,150.5,62,150.5L62,150.5z"/>
	<path id="XMLID_362_" class="st7" d="M180.9,181.7c0,2.1-1.7,3.8-3.8,3.8H63.8c-2.1,0-3.8-1.7-3.8-3.8v-22.3c0-2.1,1.7-3.8,3.8-3.8
		h113.3c2.1,0,3.8,1.7,3.8,3.8V181.7L180.9,181.7z"/>
	<path id="XMLID_361_" class="st8" d="M104.7,88.1c1.2,7.6,7.8,13.4,15.7,13.4c7.9,0,14.5-5.8,15.7-13.4H104.7L104.7,88.1z"/>
	<path id="XMLID_360_" class="st5" d="M173.9,159.4c0,0.7,0.6,1.3,1.3,1.3h2.5c0.7,0,1.3-0.6,1.3-1.3v-2.5c0-0.7-0.6-1.3-1.3-1.3
		h-2.5c-0.7,0-1.3,0.6-1.3,1.3V159.4L173.9,159.4z"/>
	<path id="XMLID_359_" class="st9" d="M173.9,158.1c0,0.7,0.6,1.3,1.3,1.3h2.5c0.7,0,1.3-0.6,1.3-1.3v-2.5c0-0.7-0.6-1.3-1.3-1.3
		h-2.5c-0.7,0-1.3,0.6-1.3,1.3V158.1L173.9,158.1z"/>
	<path id="XMLID_358_" class="st5" d="M166.9,159.4c0,0.7,0.6,1.3,1.3,1.3h2.5c0.7,0,1.3-0.6,1.3-1.3v-2.5c0-0.7-0.6-1.3-1.3-1.3
		h-2.5c-0.7,0-1.3,0.6-1.3,1.3V159.4L166.9,159.4z"/>
	<path id="XMLID_357_" class="st9" d="M166.9,158.1c0,0.7,0.6,1.3,1.3,1.3h2.5c0.7,0,1.3-0.6,1.3-1.3v-2.5c0-0.7-0.6-1.3-1.3-1.3
		h-2.5c-0.7,0-1.3,0.6-1.3,1.3V158.1L166.9,158.1z"/>
	<path id="XMLID_356_" class="st5" d="M159.9,159.4c0,0.7,0.6,1.3,1.3,1.3h2.5c0.7,0,1.3-0.6,1.3-1.3v-2.5c0-0.7-0.6-1.3-1.3-1.3
		h-2.5c-0.7,0-1.3,0.6-1.3,1.3V159.4L159.9,159.4z"/>
	<path id="XMLID_355_" class="st9" d="M159.9,158.1c0,0.7,0.6,1.3,1.3,1.3h2.5c0.7,0,1.3-0.6,1.3-1.3v-2.5c0-0.7-0.6-1.3-1.3-1.3
		h-2.5c-0.7,0-1.3,0.6-1.3,1.3V158.1L159.9,158.1z"/>
	<path id="XMLID_354_" class="st5" d="M152.9,159.4c0,0.7,0.6,1.3,1.3,1.3h2.5c0.7,0,1.3-0.6,1.3-1.3v-2.5c0-0.7-0.6-1.3-1.3-1.3
		h-2.5c-0.7,0-1.3,0.6-1.3,1.3V159.4L152.9,159.4z"/>
	<path id="XMLID_353_" class="st9" d="M152.9,158.1c0,0.7,0.6,1.3,1.3,1.3h2.5c0.7,0,1.3-0.6,1.3-1.3v-2.5c0-0.7-0.6-1.3-1.3-1.3
		h-2.5c-0.7,0-1.3,0.6-1.3,1.3V158.1L152.9,158.1z"/>
	<path id="XMLID_352_" class="st5" d="M145.9,159.4c0,0.7,0.6,1.3,1.3,1.3h2.5c0.7,0,1.3-0.6,1.3-1.3v-2.5c0-0.7-0.6-1.3-1.3-1.3
		h-2.5c-0.7,0-1.3,0.6-1.3,1.3V159.4L145.9,159.4z"/>
	<path id="XMLID_351_" class="st9" d="M145.9,158.1c0,0.7,0.6,1.3,1.3,1.3h2.5c0.7,0,1.3-0.6,1.3-1.3v-2.5c0-0.7-0.6-1.3-1.3-1.3
		h-2.5c-0.7,0-1.3,0.6-1.3,1.3V158.1L145.9,158.1z"/>
	<path id="XMLID_350_" class="st5" d="M138.9,159.4c0,0.7,0.6,1.3,1.3,1.3h2.5c0.7,0,1.3-0.6,1.3-1.3v-2.5c0-0.7-0.6-1.3-1.3-1.3
		h-2.5c-0.7,0-1.3,0.6-1.3,1.3V159.4L138.9,159.4z"/>
	<path id="XMLID_349_" class="st9" d="M138.9,158.1c0,0.7,0.6,1.3,1.3,1.3h2.5c0.7,0,1.3-0.6,1.3-1.3v-2.5c0-0.7-0.6-1.3-1.3-1.3
		h-2.5c-0.7,0-1.3,0.6-1.3,1.3V158.1L138.9,158.1z"/>
	<path id="XMLID_348_" class="st5" d="M131.9,159.4c0,0.7,0.6,1.3,1.3,1.3h2.5c0.7,0,1.3-0.6,1.3-1.3v-2.5c0-0.7-0.6-1.3-1.3-1.3
		h-2.5c-0.7,0-1.3,0.6-1.3,1.3V159.4L131.9,159.4z"/>
	<path id="XMLID_347_" class="st9" d="M131.9,158.1c0,0.7,0.6,1.3,1.3,1.3h2.5c0.7,0,1.3-0.6,1.3-1.3v-2.5c0-0.7-0.6-1.3-1.3-1.3
		h-2.5c-0.7,0-1.3,0.6-1.3,1.3V158.1L131.9,158.1z"/>
	<path id="XMLID_346_" class="st5" d="M124.9,159.4c0,0.7,0.6,1.3,1.3,1.3h2.5c0.7,0,1.3-0.6,1.3-1.3v-2.5c0-0.7-0.6-1.3-1.3-1.3
		h-2.5c-0.7,0-1.3,0.6-1.3,1.3V159.4L124.9,159.4z"/>
	<path id="XMLID_345_" class="st9" d="M124.9,158.1c0,0.7,0.6,1.3,1.3,1.3h2.5c0.7,0,1.3-0.6,1.3-1.3v-2.5c0-0.7-0.6-1.3-1.3-1.3
		h-2.5c-0.7,0-1.3,0.6-1.3,1.3V158.1L124.9,158.1z"/>
	<path id="XMLID_344_" class="st5" d="M117.9,159.4c0,0.7,0.6,1.3,1.3,1.3h2.5c0.7,0,1.3-0.6,1.3-1.3v-2.5c0-0.7-0.6-1.3-1.3-1.3
		h-2.5c-0.7,0-1.3,0.6-1.3,1.3V159.4L117.9,159.4z"/>
	<path id="XMLID_343_" class="st9" d="M117.9,158.1c0,0.7,0.6,1.3,1.3,1.3h2.5c0.7,0,1.3-0.6,1.3-1.3v-2.5c0-0.7-0.6-1.3-1.3-1.3
		h-2.5c-0.7,0-1.3,0.6-1.3,1.3V158.1L117.9,158.1z"/>
	<path id="XMLID_342_" class="st5" d="M110.9,159.4c0,0.7,0.6,1.3,1.3,1.3h2.5c0.7,0,1.3-0.6,1.3-1.3v-2.5c0-0.7-0.6-1.3-1.3-1.3
		h-2.5c-0.7,0-1.3,0.6-1.3,1.3V159.4L110.9,159.4z"/>
	<path id="XMLID_341_" class="st9" d="M110.9,158.1c0,0.7,0.6,1.3,1.3,1.3h2.5c0.7,0,1.3-0.6,1.3-1.3v-2.5c0-0.7-0.6-1.3-1.3-1.3
		h-2.5c-0.7,0-1.3,0.6-1.3,1.3V158.1L110.9,158.1z"/>
	<path id="XMLID_340_" class="st5" d="M103.9,159.4c0,0.7,0.6,1.3,1.3,1.3h2.5c0.7,0,1.3-0.6,1.3-1.3v-2.5c0-0.7-0.6-1.3-1.3-1.3
		h-2.5c-0.7,0-1.3,0.6-1.3,1.3V159.4L103.9,159.4z"/>
	<path id="XMLID_339_" class="st9" d="M103.9,158.1c0,0.7,0.6,1.3,1.3,1.3h2.5c0.7,0,1.3-0.6,1.3-1.3v-2.5c0-0.7-0.6-1.3-1.3-1.3
		h-2.5c-0.7,0-1.3,0.6-1.3,1.3V158.1L103.9,158.1z"/>
	<path id="XMLID_338_" class="st5" d="M96.9,159.4c0,0.7,0.6,1.3,1.3,1.3h2.5c0.7,0,1.3-0.6,1.3-1.3v-2.5c0-0.7-0.6-1.3-1.3-1.3
		h-2.5c-0.7,0-1.3,0.6-1.3,1.3V159.4L96.9,159.4z"/>
	<path id="XMLID_337_" class="st9" d="M96.9,158.1c0,0.7,0.6,1.3,1.3,1.3h2.5c0.7,0,1.3-0.6,1.3-1.3v-2.5c0-0.7-0.6-1.3-1.3-1.3
		h-2.5c-0.7,0-1.3,0.6-1.3,1.3V158.1L96.9,158.1z"/>
	<path id="XMLID_336_" class="st5" d="M89.9,159.4c0,0.7,0.6,1.3,1.3,1.3h2.5c0.7,0,1.3-0.6,1.3-1.3v-2.5c0-0.7-0.6-1.3-1.3-1.3
		h-2.5c-0.7,0-1.3,0.6-1.3,1.3V159.4L89.9,159.4z"/>
	<path id="XMLID_335_" class="st9" d="M89.9,158.1c0,0.7,0.6,1.3,1.3,1.3h2.5c0.7,0,1.3-0.6,1.3-1.3v-2.5c0-0.7-0.6-1.3-1.3-1.3
		h-2.5c-0.7,0-1.3,0.6-1.3,1.3V158.1L89.9,158.1z"/>
	<path id="XMLID_334_" class="st5" d="M82.9,159.4c0,0.7,0.6,1.3,1.3,1.3h2.5c0.7,0,1.3-0.6,1.3-1.3v-2.5c0-0.7-0.6-1.3-1.3-1.3
		h-2.5c-0.7,0-1.3,0.6-1.3,1.3V159.4L82.9,159.4z"/>
	<path id="XMLID_333_" class="st9" d="M82.9,158.1c0,0.7,0.6,1.3,1.3,1.3h2.5c0.7,0,1.3-0.6,1.3-1.3v-2.5c0-0.7-0.6-1.3-1.3-1.3
		h-2.5c-0.7,0-1.3,0.6-1.3,1.3V158.1L82.9,158.1z"/>
	<path id="XMLID_332_" class="st5" d="M75.9,159.4c0,0.7,0.6,1.3,1.3,1.3h2.5c0.7,0,1.3-0.6,1.3-1.3v-2.5c0-0.7-0.6-1.3-1.3-1.3
		h-2.5c-0.7,0-1.3,0.6-1.3,1.3V159.4L75.9,159.4z"/>
	<path id="XMLID_331_" class="st9" d="M75.9,158.1c0,0.7,0.6,1.3,1.3,1.3h2.5c0.7,0,1.3-0.6,1.3-1.3v-2.5c0-0.7-0.6-1.3-1.3-1.3
		h-2.5c-0.7,0-1.3,0.6-1.3,1.3V158.1L75.9,158.1z"/>
	<path id="XMLID_330_" class="st5" d="M68.9,159.4c0,0.7,0.6,1.3,1.3,1.3h2.5c0.7,0,1.3-0.6,1.3-1.3v-2.5c0-0.7-0.6-1.3-1.3-1.3
		h-2.5c-0.7,0-1.3,0.6-1.3,1.3V159.4L68.9,159.4z"/>
	<path id="XMLID_329_" class="st9" d="M68.9,158.1c0,0.7,0.6,1.3,1.3,1.3h2.5c0.7,0,1.3-0.6,1.3-1.3v-2.5c0-0.7-0.6-1.3-1.3-1.3
		h-2.5c-0.7,0-1.3,0.6-1.3,1.3V158.1L68.9,158.1z"/>
	<path id="XMLID_328_" class="st5" d="M61.9,159.4c0,0.7,0.6,1.3,1.3,1.3h2.5c0.7,0,1.3-0.6,1.3-1.3v-2.5c0-0.7-0.6-1.3-1.3-1.3
		h-2.5c-0.7,0-1.3,0.6-1.3,1.3V159.4L61.9,159.4z"/>
	<path id="XMLID_327_" class="st9" d="M61.9,158.1c0,0.7,0.6,1.3,1.3,1.3h2.5c0.7,0,1.3-0.6,1.3-1.3v-2.5c0-0.7-0.6-1.3-1.3-1.3
		h-2.5c-0.7,0-1.3,0.6-1.3,1.3V158.1L61.9,158.1z"/>
	<path id="XMLID_326_" class="st5" d="M170.4,167c0,0.7,0.6,1.3,1.3,1.3h2.5c0.7,0,1.3-0.6,1.3-1.3v-2.5c0-0.7-0.6-1.3-1.3-1.3h-2.5
		c-0.7,0-1.3,0.6-1.3,1.3V167L170.4,167z"/>
	<path id="XMLID_325_" class="st9" d="M170.4,165.8c0,0.7,0.6,1.3,1.3,1.3h2.5c0.7,0,1.3-0.6,1.3-1.3v-2.5c0-0.7-0.6-1.3-1.3-1.3
		h-2.5c-0.7,0-1.3,0.6-1.3,1.3V165.8L170.4,165.8z"/>
	<path id="XMLID_324_" class="st5" d="M163.4,167c0,0.7,0.6,1.3,1.3,1.3h2.5c0.7,0,1.3-0.6,1.3-1.3v-2.5c0-0.7-0.6-1.3-1.3-1.3h-2.5
		c-0.7,0-1.3,0.6-1.3,1.3V167L163.4,167z"/>
	<path id="XMLID_323_" class="st9" d="M163.4,165.8c0,0.7,0.6,1.3,1.3,1.3h2.5c0.7,0,1.3-0.6,1.3-1.3v-2.5c0-0.7-0.6-1.3-1.3-1.3
		h-2.5c-0.7,0-1.3,0.6-1.3,1.3V165.8L163.4,165.8z"/>
	<path id="XMLID_322_" class="st5" d="M156.4,167c0,0.7,0.6,1.3,1.3,1.3h2.5c0.7,0,1.3-0.6,1.3-1.3v-2.5c0-0.7-0.6-1.3-1.3-1.3h-2.5
		c-0.7,0-1.3,0.6-1.3,1.3V167L156.4,167z"/>
	<path id="XMLID_321_" class="st9" d="M156.4,165.8c0,0.7,0.6,1.3,1.3,1.3h2.5c0.7,0,1.3-0.6,1.3-1.3v-2.5c0-0.7-0.6-1.3-1.3-1.3
		h-2.5c-0.7,0-1.3,0.6-1.3,1.3V165.8L156.4,165.8z"/>
	<path id="XMLID_320_" class="st5" d="M149.4,167c0,0.7,0.6,1.3,1.3,1.3h2.5c0.7,0,1.3-0.6,1.3-1.3v-2.5c0-0.7-0.6-1.3-1.3-1.3h-2.5
		c-0.7,0-1.3,0.6-1.3,1.3V167L149.4,167z"/>
	<path id="XMLID_319_" class="st9" d="M149.4,165.8c0,0.7,0.6,1.3,1.3,1.3h2.5c0.7,0,1.3-0.6,1.3-1.3v-2.5c0-0.7-0.6-1.3-1.3-1.3
		h-2.5c-0.7,0-1.3,0.6-1.3,1.3V165.8L149.4,165.8z"/>
	<path id="XMLID_318_" class="st5" d="M142.4,167c0,0.7,0.6,1.3,1.3,1.3h2.5c0.7,0,1.3-0.6,1.3-1.3v-2.5c0-0.7-0.6-1.3-1.3-1.3h-2.5
		c-0.7,0-1.3,0.6-1.3,1.3V167L142.4,167z"/>
	<path id="XMLID_317_" class="st9" d="M142.4,165.8c0,0.7,0.6,1.3,1.3,1.3h2.5c0.7,0,1.3-0.6,1.3-1.3v-2.5c0-0.7-0.6-1.3-1.3-1.3
		h-2.5c-0.7,0-1.3,0.6-1.3,1.3V165.8L142.4,165.8z"/>
	<path id="XMLID_316_" class="st5" d="M135.4,167c0,0.7,0.6,1.3,1.3,1.3h2.5c0.7,0,1.3-0.6,1.3-1.3v-2.5c0-0.7-0.6-1.3-1.3-1.3h-2.5
		c-0.7,0-1.3,0.6-1.3,1.3V167L135.4,167z"/>
	<path id="XMLID_315_" class="st9" d="M135.4,165.8c0,0.7,0.6,1.3,1.3,1.3h2.5c0.7,0,1.3-0.6,1.3-1.3v-2.5c0-0.7-0.6-1.3-1.3-1.3
		h-2.5c-0.7,0-1.3,0.6-1.3,1.3V165.8L135.4,165.8z"/>
	<path id="XMLID_314_" class="st5" d="M128.4,167c0,0.7,0.6,1.3,1.3,1.3h2.5c0.7,0,1.3-0.6,1.3-1.3v-2.5c0-0.7-0.6-1.3-1.3-1.3h-2.5
		c-0.7,0-1.3,0.6-1.3,1.3V167L128.4,167z"/>
	<path id="XMLID_313_" class="st9" d="M128.4,165.8c0,0.7,0.6,1.3,1.3,1.3h2.5c0.7,0,1.3-0.6,1.3-1.3v-2.5c0-0.7-0.6-1.3-1.3-1.3
		h-2.5c-0.7,0-1.3,0.6-1.3,1.3V165.8L128.4,165.8z"/>
	<path id="XMLID_312_" class="st5" d="M121.4,167c0,0.7,0.6,1.3,1.3,1.3h2.5c0.7,0,1.3-0.6,1.3-1.3v-2.5c0-0.7-0.6-1.3-1.3-1.3h-2.5
		c-0.7,0-1.3,0.6-1.3,1.3V167L121.4,167z"/>
	<path id="XMLID_311_" class="st9" d="M121.4,165.8c0,0.7,0.6,1.3,1.3,1.3h2.5c0.7,0,1.3-0.6,1.3-1.3v-2.5c0-0.7-0.6-1.3-1.3-1.3
		h-2.5c-0.7,0-1.3,0.6-1.3,1.3V165.8L121.4,165.8z"/>
	<path id="XMLID_310_" class="st5" d="M114.4,167c0,0.7,0.6,1.3,1.3,1.3h2.5c0.7,0,1.3-0.6,1.3-1.3v-2.5c0-0.7-0.6-1.3-1.3-1.3h-2.5
		c-0.7,0-1.3,0.6-1.3,1.3V167L114.4,167z"/>
	<path id="XMLID_309_" class="st9" d="M114.4,165.8c0,0.7,0.6,1.3,1.3,1.3h2.5c0.7,0,1.3-0.6,1.3-1.3v-2.5c0-0.7-0.6-1.3-1.3-1.3
		h-2.5c-0.7,0-1.3,0.6-1.3,1.3V165.8L114.4,165.8z"/>
	<path id="XMLID_308_" class="st5" d="M107.4,167c0,0.7,0.6,1.3,1.3,1.3h2.5c0.7,0,1.3-0.6,1.3-1.3v-2.5c0-0.7-0.6-1.3-1.3-1.3h-2.5
		c-0.7,0-1.3,0.6-1.3,1.3V167L107.4,167z"/>
	<path id="XMLID_307_" class="st9" d="M107.4,165.8c0,0.7,0.6,1.3,1.3,1.3h2.5c0.7,0,1.3-0.6,1.3-1.3v-2.5c0-0.7-0.6-1.3-1.3-1.3
		h-2.5c-0.7,0-1.3,0.6-1.3,1.3V165.8L107.4,165.8z"/>
	<path id="XMLID_306_" class="st5" d="M100.4,167c0,0.7,0.6,1.3,1.3,1.3h2.5c0.7,0,1.3-0.6,1.3-1.3v-2.5c0-0.7-0.6-1.3-1.3-1.3h-2.5
		c-0.7,0-1.3,0.6-1.3,1.3V167L100.4,167z"/>
	<path id="XMLID_305_" class="st9" d="M100.4,165.8c0,0.7,0.6,1.3,1.3,1.3h2.5c0.7,0,1.3-0.6,1.3-1.3v-2.5c0-0.7-0.6-1.3-1.3-1.3
		h-2.5c-0.7,0-1.3,0.6-1.3,1.3V165.8L100.4,165.8z"/>
	<path id="XMLID_304_" class="st5" d="M93.4,167c0,0.7,0.6,1.3,1.3,1.3h2.5c0.7,0,1.3-0.6,1.3-1.3v-2.5c0-0.7-0.6-1.3-1.3-1.3h-2.5
		c-0.7,0-1.3,0.6-1.3,1.3V167L93.4,167z"/>
	<path id="XMLID_303_" class="st9" d="M93.4,165.8c0,0.7,0.6,1.3,1.3,1.3h2.5c0.7,0,1.3-0.6,1.3-1.3v-2.5c0-0.7-0.6-1.3-1.3-1.3
		h-2.5c-0.7,0-1.3,0.6-1.3,1.3V165.8L93.4,165.8z"/>
	<path id="XMLID_302_" class="st5" d="M86.4,167c0,0.7,0.6,1.3,1.3,1.3h2.5c0.7,0,1.3-0.6,1.3-1.3v-2.5c0-0.7-0.6-1.3-1.3-1.3h-2.5
		c-0.7,0-1.3,0.6-1.3,1.3V167L86.4,167z"/>
	<path id="XMLID_301_" class="st9" d="M86.4,165.8c0,0.7,0.6,1.3,1.3,1.3h2.5c0.7,0,1.3-0.6,1.3-1.3v-2.5c0-0.7-0.6-1.3-1.3-1.3
		h-2.5c-0.7,0-1.3,0.6-1.3,1.3V165.8L86.4,165.8z"/>
	<path id="XMLID_300_" class="st5" d="M79.4,167c0,0.7,0.6,1.3,1.3,1.3h2.5c0.7,0,1.3-0.6,1.3-1.3v-2.5c0-0.7-0.6-1.3-1.3-1.3h-2.5
		c-0.7,0-1.3,0.6-1.3,1.3V167L79.4,167z"/>
	<path id="XMLID_299_" class="st9" d="M79.4,165.8c0,0.7,0.6,1.3,1.3,1.3h2.5c0.7,0,1.3-0.6,1.3-1.3v-2.5c0-0.7-0.6-1.3-1.3-1.3
		h-2.5c-0.7,0-1.3,0.6-1.3,1.3V165.8L79.4,165.8z"/>
	<path id="XMLID_298_" class="st5" d="M72.4,167c0,0.7,0.6,1.3,1.3,1.3h2.5c0.7,0,1.3-0.6,1.3-1.3v-2.5c0-0.7-0.6-1.3-1.3-1.3h-2.5
		c-0.7,0-1.3,0.6-1.3,1.3V167L72.4,167z"/>
	<path id="XMLID_297_" class="st9" d="M72.4,165.8c0,0.7,0.6,1.3,1.3,1.3h2.5c0.7,0,1.3-0.6,1.3-1.3v-2.5c0-0.7-0.6-1.3-1.3-1.3
		h-2.5c-0.7,0-1.3,0.6-1.3,1.3V165.8L72.4,165.8z"/>
	<path id="XMLID_296_" class="st5" d="M65.4,167c0,0.7,0.6,1.3,1.3,1.3h2.5c0.7,0,1.3-0.6,1.3-1.3v-2.5c0-0.7-0.6-1.3-1.3-1.3h-2.5
		c-0.7,0-1.3,0.6-1.3,1.3V167L65.4,167z"/>
	<path id="XMLID_295_" class="st9" d="M65.4,165.8c0,0.7,0.6,1.3,1.3,1.3h2.5c0.7,0,1.3-0.6,1.3-1.3v-2.5c0-0.7-0.6-1.3-1.3-1.3
		h-2.5c-0.7,0-1.3,0.6-1.3,1.3V165.8L65.4,165.8z"/>
	<path id="XMLID_294_" class="st5" d="M173.9,174.7c0,0.7,0.6,1.3,1.3,1.3h2.5c0.7,0,1.3-0.6,1.3-1.3v-2.5c0-0.7-0.6-1.3-1.3-1.3
		h-2.5c-0.7,0-1.3,0.6-1.3,1.3V174.7L173.9,174.7z"/>
	<path id="XMLID_293_" class="st9" d="M173.9,173.4c0,0.7,0.6,1.3,1.3,1.3h2.5c0.7,0,1.3-0.6,1.3-1.3v-2.5c0-0.7-0.6-1.3-1.3-1.3
		h-2.5c-0.7,0-1.3,0.6-1.3,1.3V173.4L173.9,173.4z"/>
	<path id="XMLID_292_" class="st5" d="M166.9,174.7c0,0.7,0.6,1.3,1.3,1.3h2.5c0.7,0,1.3-0.6,1.3-1.3v-2.5c0-0.7-0.6-1.3-1.3-1.3
		h-2.5c-0.7,0-1.3,0.6-1.3,1.3V174.7L166.9,174.7z"/>
	<path id="XMLID_291_" class="st9" d="M166.9,173.4c0,0.7,0.6,1.3,1.3,1.3h2.5c0.7,0,1.3-0.6,1.3-1.3v-2.5c0-0.7-0.6-1.3-1.3-1.3
		h-2.5c-0.7,0-1.3,0.6-1.3,1.3V173.4L166.9,173.4z"/>
	<path id="XMLID_290_" class="st5" d="M159.9,174.7c0,0.7,0.6,1.3,1.3,1.3h2.5c0.7,0,1.3-0.6,1.3-1.3v-2.5c0-0.7-0.6-1.3-1.3-1.3
		h-2.5c-0.7,0-1.3,0.6-1.3,1.3V174.7L159.9,174.7z"/>
	<path id="XMLID_289_" class="st9" d="M159.9,173.4c0,0.7,0.6,1.3,1.3,1.3h2.5c0.7,0,1.3-0.6,1.3-1.3v-2.5c0-0.7-0.6-1.3-1.3-1.3
		h-2.5c-0.7,0-1.3,0.6-1.3,1.3V173.4L159.9,173.4z"/>
	<path id="XMLID_288_" class="st5" d="M152.9,174.7c0,0.7,0.6,1.3,1.3,1.3h2.5c0.7,0,1.3-0.6,1.3-1.3v-2.5c0-0.7-0.6-1.3-1.3-1.3
		h-2.5c-0.7,0-1.3,0.6-1.3,1.3V174.7L152.9,174.7z"/>
	<path id="XMLID_287_" class="st9" d="M152.9,173.4c0,0.7,0.6,1.3,1.3,1.3h2.5c0.7,0,1.3-0.6,1.3-1.3v-2.5c0-0.7-0.6-1.3-1.3-1.3
		h-2.5c-0.7,0-1.3,0.6-1.3,1.3V173.4L152.9,173.4z"/>
	<path id="XMLID_286_" class="st5" d="M145.9,174.7c0,0.7,0.6,1.3,1.3,1.3h2.5c0.7,0,1.3-0.6,1.3-1.3v-2.5c0-0.7-0.6-1.3-1.3-1.3
		h-2.5c-0.7,0-1.3,0.6-1.3,1.3V174.7L145.9,174.7z"/>
	<path id="XMLID_285_" class="st9" d="M145.9,173.4c0,0.7,0.6,1.3,1.3,1.3h2.5c0.7,0,1.3-0.6,1.3-1.3v-2.5c0-0.7-0.6-1.3-1.3-1.3
		h-2.5c-0.7,0-1.3,0.6-1.3,1.3V173.4L145.9,173.4z"/>
	<path id="XMLID_284_" class="st5" d="M138.9,174.7c0,0.7,0.6,1.3,1.3,1.3h2.5c0.7,0,1.3-0.6,1.3-1.3v-2.5c0-0.7-0.6-1.3-1.3-1.3
		h-2.5c-0.7,0-1.3,0.6-1.3,1.3V174.7L138.9,174.7z"/>
	<path id="XMLID_283_" class="st9" d="M138.9,173.4c0,0.7,0.6,1.3,1.3,1.3h2.5c0.7,0,1.3-0.6,1.3-1.3v-2.5c0-0.7-0.6-1.3-1.3-1.3
		h-2.5c-0.7,0-1.3,0.6-1.3,1.3V173.4L138.9,173.4z"/>
	<path id="XMLID_282_" class="st5" d="M131.9,174.7c0,0.7,0.6,1.3,1.3,1.3h2.5c0.7,0,1.3-0.6,1.3-1.3v-2.5c0-0.7-0.6-1.3-1.3-1.3
		h-2.5c-0.7,0-1.3,0.6-1.3,1.3V174.7L131.9,174.7z"/>
	<path id="XMLID_281_" class="st9" d="M131.9,173.4c0,0.7,0.6,1.3,1.3,1.3h2.5c0.7,0,1.3-0.6,1.3-1.3v-2.5c0-0.7-0.6-1.3-1.3-1.3
		h-2.5c-0.7,0-1.3,0.6-1.3,1.3V173.4L131.9,173.4z"/>
	<path id="XMLID_280_" class="st5" d="M124.9,174.7c0,0.7,0.6,1.3,1.3,1.3h2.5c0.7,0,1.3-0.6,1.3-1.3v-2.5c0-0.7-0.6-1.3-1.3-1.3
		h-2.5c-0.7,0-1.3,0.6-1.3,1.3V174.7L124.9,174.7z"/>
	<path id="XMLID_279_" class="st9" d="M124.9,173.4c0,0.7,0.6,1.3,1.3,1.3h2.5c0.7,0,1.3-0.6,1.3-1.3v-2.5c0-0.7-0.6-1.3-1.3-1.3
		h-2.5c-0.7,0-1.3,0.6-1.3,1.3V173.4L124.9,173.4z"/>
	<path id="XMLID_278_" class="st5" d="M117.9,174.7c0,0.7,0.6,1.3,1.3,1.3h2.5c0.7,0,1.3-0.6,1.3-1.3v-2.5c0-0.7-0.6-1.3-1.3-1.3
		h-2.5c-0.7,0-1.3,0.6-1.3,1.3V174.7L117.9,174.7z"/>
	<path id="XMLID_277_" class="st9" d="M117.9,173.4c0,0.7,0.6,1.3,1.3,1.3h2.5c0.7,0,1.3-0.6,1.3-1.3v-2.5c0-0.7-0.6-1.3-1.3-1.3
		h-2.5c-0.7,0-1.3,0.6-1.3,1.3V173.4L117.9,173.4z"/>
	<path id="XMLID_276_" class="st5" d="M110.9,174.7c0,0.7,0.6,1.3,1.3,1.3h2.5c0.7,0,1.3-0.6,1.3-1.3v-2.5c0-0.7-0.6-1.3-1.3-1.3
		h-2.5c-0.7,0-1.3,0.6-1.3,1.3V174.7L110.9,174.7z"/>
	<path id="XMLID_275_" class="st9" d="M110.9,173.4c0,0.7,0.6,1.3,1.3,1.3h2.5c0.7,0,1.3-0.6,1.3-1.3v-2.5c0-0.7-0.6-1.3-1.3-1.3
		h-2.5c-0.7,0-1.3,0.6-1.3,1.3V173.4L110.9,173.4z"/>
	<path id="XMLID_274_" class="st5" d="M103.9,174.7c0,0.7,0.6,1.3,1.3,1.3h2.5c0.7,0,1.3-0.6,1.3-1.3v-2.5c0-0.7-0.6-1.3-1.3-1.3
		h-2.5c-0.7,0-1.3,0.6-1.3,1.3V174.7L103.9,174.7z"/>
	<path id="XMLID_273_" class="st9" d="M103.9,173.4c0,0.7,0.6,1.3,1.3,1.3h2.5c0.7,0,1.3-0.6,1.3-1.3v-2.5c0-0.7-0.6-1.3-1.3-1.3
		h-2.5c-0.7,0-1.3,0.6-1.3,1.3V173.4L103.9,173.4z"/>
	<path id="XMLID_272_" class="st5" d="M96.9,174.7c0,0.7,0.6,1.3,1.3,1.3h2.5c0.7,0,1.3-0.6,1.3-1.3v-2.5c0-0.7-0.6-1.3-1.3-1.3
		h-2.5c-0.7,0-1.3,0.6-1.3,1.3V174.7L96.9,174.7z"/>
	<path id="XMLID_271_" class="st9" d="M96.9,173.4c0,0.7,0.6,1.3,1.3,1.3h2.5c0.7,0,1.3-0.6,1.3-1.3v-2.5c0-0.7-0.6-1.3-1.3-1.3
		h-2.5c-0.7,0-1.3,0.6-1.3,1.3V173.4L96.9,173.4z"/>
	<path id="XMLID_270_" class="st5" d="M89.9,174.7c0,0.7,0.6,1.3,1.3,1.3h2.5c0.7,0,1.3-0.6,1.3-1.3v-2.5c0-0.7-0.6-1.3-1.3-1.3
		h-2.5c-0.7,0-1.3,0.6-1.3,1.3V174.7L89.9,174.7z"/>
	<path id="XMLID_269_" class="st9" d="M89.9,173.4c0,0.7,0.6,1.3,1.3,1.3h2.5c0.7,0,1.3-0.6,1.3-1.3v-2.5c0-0.7-0.6-1.3-1.3-1.3
		h-2.5c-0.7,0-1.3,0.6-1.3,1.3V173.4L89.9,173.4z"/>
	<path id="XMLID_268_" class="st5" d="M82.9,174.7c0,0.7,0.6,1.3,1.3,1.3h2.5c0.7,0,1.3-0.6,1.3-1.3v-2.5c0-0.7-0.6-1.3-1.3-1.3
		h-2.5c-0.7,0-1.3,0.6-1.3,1.3V174.7L82.9,174.7z"/>
	<path id="XMLID_267_" class="st9" d="M82.9,173.4c0,0.7,0.6,1.3,1.3,1.3h2.5c0.7,0,1.3-0.6,1.3-1.3v-2.5c0-0.7-0.6-1.3-1.3-1.3
		h-2.5c-0.7,0-1.3,0.6-1.3,1.3V173.4L82.9,173.4z"/>
	<path id="XMLID_266_" class="st5" d="M75.9,174.7c0,0.7,0.6,1.3,1.3,1.3h2.5c0.7,0,1.3-0.6,1.3-1.3v-2.5c0-0.7-0.6-1.3-1.3-1.3
		h-2.5c-0.7,0-1.3,0.6-1.3,1.3V174.7L75.9,174.7z"/>
	<path id="XMLID_265_" class="st9" d="M75.9,173.4c0,0.7,0.6,1.3,1.3,1.3h2.5c0.7,0,1.3-0.6,1.3-1.3v-2.5c0-0.7-0.6-1.3-1.3-1.3
		h-2.5c-0.7,0-1.3,0.6-1.3,1.3V173.4L75.9,173.4z"/>
	<path id="XMLID_264_" class="st5" d="M68.9,174.7c0,0.7,0.6,1.3,1.3,1.3h2.5c0.7,0,1.3-0.6,1.3-1.3v-2.5c0-0.7-0.6-1.3-1.3-1.3
		h-2.5c-0.7,0-1.3,0.6-1.3,1.3V174.7L68.9,174.7z"/>
	<path id="XMLID_263_" class="st9" d="M68.9,173.4c0,0.7,0.6,1.3,1.3,1.3h2.5c0.7,0,1.3-0.6,1.3-1.3v-2.5c0-0.7-0.6-1.3-1.3-1.3
		h-2.5c-0.7,0-1.3,0.6-1.3,1.3V173.4L68.9,173.4z"/>
	<path id="XMLID_262_" class="st5" d="M61.9,174.7c0,0.7,0.6,1.3,1.3,1.3h2.5c0.7,0,1.3-0.6,1.3-1.3v-2.5c0-0.7-0.6-1.3-1.3-1.3
		h-2.5c-0.7,0-1.3,0.6-1.3,1.3V174.7L61.9,174.7z"/>
	<path id="XMLID_261_" class="st9" d="M61.9,173.4c0,0.7,0.6,1.3,1.3,1.3h2.5c0.7,0,1.3-0.6,1.3-1.3v-2.5c0-0.7-0.6-1.3-1.3-1.3
		h-2.5c-0.7,0-1.3,0.6-1.3,1.3V173.4L61.9,173.4z"/>
	<path id="XMLID_260_" class="st5" d="M170.4,182.3c0,0.7,0.6,1.3,1.3,1.3h2.5c0.7,0,1.3-0.6,1.3-1.3v-2.5c0-0.7-0.6-1.3-1.3-1.3
		h-2.5c-0.7,0-1.3,0.6-1.3,1.3V182.3L170.4,182.3z"/>
	<path id="XMLID_259_" class="st9" d="M170.4,181c0,0.7,0.6,1.3,1.3,1.3h2.5c0.7,0,1.3-0.6,1.3-1.3v-2.5c0-0.7-0.6-1.3-1.3-1.3h-2.5
		c-0.7,0-1.3,0.6-1.3,1.3V181L170.4,181z"/>
	<path id="XMLID_258_" class="st5" d="M163.4,182.3c0,0.7,0.6,1.3,1.3,1.3h2.5c0.7,0,1.3-0.6,1.3-1.3v-2.5c0-0.7-0.6-1.3-1.3-1.3
		h-2.5c-0.7,0-1.3,0.6-1.3,1.3V182.3L163.4,182.3z"/>
	<path id="XMLID_257_" class="st9" d="M163.4,181c0,0.7,0.6,1.3,1.3,1.3h2.5c0.7,0,1.3-0.6,1.3-1.3v-2.5c0-0.7-0.6-1.3-1.3-1.3h-2.5
		c-0.7,0-1.3,0.6-1.3,1.3V181L163.4,181z"/>
	<path id="XMLID_256_" class="st5" d="M156.4,182.3c0,0.7,0.6,1.3,1.3,1.3h2.5c0.7,0,1.3-0.6,1.3-1.3v-2.5c0-0.7-0.6-1.3-1.3-1.3
		h-2.5c-0.7,0-1.3,0.6-1.3,1.3V182.3L156.4,182.3z"/>
	<path id="XMLID_255_" class="st9" d="M156.4,181c0,0.7,0.6,1.3,1.3,1.3h2.5c0.7,0,1.3-0.6,1.3-1.3v-2.5c0-0.7-0.6-1.3-1.3-1.3h-2.5
		c-0.7,0-1.3,0.6-1.3,1.3V181L156.4,181z"/>
	<path id="XMLID_254_" class="st5" d="M149.4,182.3c0,0.7,0.6,1.3,1.3,1.3h2.5c0.7,0,1.3-0.6,1.3-1.3v-2.5c0-0.7-0.6-1.3-1.3-1.3
		h-2.5c-0.7,0-1.3,0.6-1.3,1.3V182.3L149.4,182.3z"/>
	<path id="XMLID_253_" class="st9" d="M149.4,181c0,0.7,0.6,1.3,1.3,1.3h2.5c0.7,0,1.3-0.6,1.3-1.3v-2.5c0-0.7-0.6-1.3-1.3-1.3h-2.5
		c-0.7,0-1.3,0.6-1.3,1.3V181L149.4,181z"/>
	<path id="XMLID_252_" class="st5" d="M142.4,182.3c0,0.7,0.6,1.3,1.3,1.3h2.5c0.7,0,1.3-0.6,1.3-1.3v-2.5c0-0.7-0.6-1.3-1.3-1.3
		h-2.5c-0.7,0-1.3,0.6-1.3,1.3V182.3L142.4,182.3z"/>
	<path id="XMLID_251_" class="st9" d="M142.4,181c0,0.7,0.6,1.3,1.3,1.3h2.5c0.7,0,1.3-0.6,1.3-1.3v-2.5c0-0.7-0.6-1.3-1.3-1.3h-2.5
		c-0.7,0-1.3,0.6-1.3,1.3V181L142.4,181z"/>
	<path id="XMLID_250_" class="st5" d="M93.4,182.3c0,0.7,0.6,1.3,1.3,1.3h2.5c0.7,0,1.3-0.6,1.3-1.3v-2.5c0-0.7-0.6-1.3-1.3-1.3
		h-2.5c-0.7,0-1.3,0.6-1.3,1.3V182.3L93.4,182.3z"/>
	<path id="XMLID_249_" class="st9" d="M93.4,181c0,0.7,0.6,1.3,1.3,1.3h2.5c0.7,0,1.3-0.6,1.3-1.3v-2.5c0-0.7-0.6-1.3-1.3-1.3h-2.5
		c-0.7,0-1.3,0.6-1.3,1.3V181L93.4,181z"/>
	<path id="XMLID_248_" class="st5" d="M86.4,182.3c0,0.7,0.6,1.3,1.3,1.3h2.5c0.7,0,1.3-0.6,1.3-1.3v-2.5c0-0.7-0.6-1.3-1.3-1.3
		h-2.5c-0.7,0-1.3,0.6-1.3,1.3V182.3L86.4,182.3z"/>
	<path id="XMLID_247_" class="st9" d="M86.4,181c0,0.7,0.6,1.3,1.3,1.3h2.5c0.7,0,1.3-0.6,1.3-1.3v-2.5c0-0.7-0.6-1.3-1.3-1.3h-2.5
		c-0.7,0-1.3,0.6-1.3,1.3V181L86.4,181z"/>
	<path id="XMLID_246_" class="st5" d="M79.4,182.3c0,0.7,0.6,1.3,1.3,1.3h2.5c0.7,0,1.3-0.6,1.3-1.3v-2.5c0-0.7-0.6-1.3-1.3-1.3
		h-2.5c-0.7,0-1.3,0.6-1.3,1.3V182.3L79.4,182.3z"/>
	<path id="XMLID_245_" class="st9" d="M79.4,181c0,0.7,0.6,1.3,1.3,1.3h2.5c0.7,0,1.3-0.6,1.3-1.3v-2.5c0-0.7-0.6-1.3-1.3-1.3h-2.5
		c-0.7,0-1.3,0.6-1.3,1.3V181L79.4,181z"/>
	<path id="XMLID_244_" class="st5" d="M72.4,182.3c0,0.7,0.6,1.3,1.3,1.3h2.5c0.7,0,1.3-0.6,1.3-1.3v-2.5c0-0.7-0.6-1.3-1.3-1.3
		h-2.5c-0.7,0-1.3,0.6-1.3,1.3V182.3L72.4,182.3z"/>
	<path id="XMLID_243_" class="st9" d="M72.4,181c0,0.7,0.6,1.3,1.3,1.3h2.5c0.7,0,1.3-0.6,1.3-1.3v-2.5c0-0.7-0.6-1.3-1.3-1.3h-2.5
		c-0.7,0-1.3,0.6-1.3,1.3V181L72.4,181z"/>
	<path id="XMLID_242_" class="st5" d="M65.4,182.3c0,0.7,0.6,1.3,1.3,1.3h2.5c0.7,0,1.3-0.6,1.3-1.3v-2.5c0-0.7-0.6-1.3-1.3-1.3
		h-2.5c-0.7,0-1.3,0.6-1.3,1.3V182.3L65.4,182.3z"/>
	<path id="XMLID_241_" class="st9" d="M65.4,181c0,0.7,0.6,1.3,1.3,1.3h2.5c0.7,0,1.3-0.6,1.3-1.3v-2.5c0-0.7-0.6-1.3-1.3-1.3h-2.5
		c-0.7,0-1.3,0.6-1.3,1.3V181L65.4,181z"/>
	<path id="XMLID_240_" class="st5" d="M100.4,182.3c0,0.7,0.6,1.3,1.3,1.3h37.7c0.7,0,1.3-0.6,1.3-1.3v-2.5c0-0.7-0.6-1.3-1.3-1.3
		h-37.7c-0.7,0-1.3,0.6-1.3,1.3V182.3L100.4,182.3z"/>
	<path id="XMLID_239_" class="st9" d="M100.4,181c0,0.7,0.6,1.3,1.3,1.3h37.7c0.7,0,1.3-0.6,1.3-1.3v-2.5c0-0.7-0.6-1.3-1.3-1.3
		h-37.7c-0.7,0-1.3,0.6-1.3,1.3V181L100.4,181z"/>
	<path id="XMLID_238_" class="st7" d="M185.4,142.8h-5.1H60.6h-5.1h-4.8c0,0.4,0.1,0.8,0.1,1.3h139.4c0-0.4,0.1-0.8,0.1-1.3H185.4
		L185.4,142.8z"/>
	<path id="XMLID_237_" class="st2" d="M106.3,88.1c1.2,6.7,7.1,11.8,14.1,11.8c7,0,12.9-5.1,14.1-11.8H106.3L106.3,88.1z"/>
	<path id="XMLID_236_" class="st8" d="M128.1,95.7c0,0.7-0.6,1.3-1.3,1.3c-0.7,0-1.3-0.6-1.3-1.3c0-0.7,0.6-1.3,1.3-1.3
		C127.5,94.5,128.1,95,128.1,95.7L128.1,95.7z"/>
	<path id="XMLID_235_" class="st8" d="M115.3,95.7c0,0.7-0.6,1.3-1.3,1.3c-0.7,0-1.3-0.6-1.3-1.3c0-0.7,0.6-1.3,1.3-1.3
		C114.8,94.5,115.3,95,115.3,95.7L115.3,95.7z"/>
	<path id="XMLID_234_" class="st9" d="M123,95.1c0,0.4-0.3,0.6-0.6,0.6c-0.4,0-0.6-0.3-0.6-0.6c0-0.4,0.3-0.6,0.6-0.6
		C122.7,94.5,123,94.7,123,95.1L123,95.1z"/>
	<path id="XMLID_233_" class="st9" d="M119.2,95.1c0,0.4-0.3,0.6-0.6,0.6c-0.4,0-0.6-0.3-0.6-0.6c0-0.4,0.3-0.6,0.6-0.6
		C118.9,94.5,119.2,94.7,119.2,95.1L119.2,95.1z"/>
	<polygon id="XMLID_232_" class="st1" points="130.6,89.1 110,89.1 110,88.4 130.6,88.4 130.6,89.1 	"/>
	<path id="XMLID_231_" class="st0" d="M189.8,76.7c0,0.9-0.7,1.6-1.6,1.6c-0.9,0-1.6-0.7-1.6-1.6c0-0.9,0.7-1.6,1.6-1.6
		C189.1,75.2,189.8,75.9,189.8,76.7L189.8,76.7z"/>
	<polygon id="XMLID_230_" class="st7" points="124.3,83.1 116.6,83.1 116.6,80.6 124.3,80.6 124.3,83.1 	"/>
	<polygon id="XMLID_229_" class="st3" points="179.1,75.5 178.9,75.5 178.9,74.2 179.1,74.2 179.1,75.5 	"/>
	<polygon id="XMLID_228_" class="st3" points="176.5,75.5 176.4,75.5 176.4,74.2 176.5,74.2 176.5,75.5 	"/>
	<polygon id="XMLID_227_" class="st3" points="174,75.5 173.8,75.5 173.8,74.2 174,74.2 174,75.5 	"/>
	<polygon id="XMLID_226_" class="st3" points="171.4,75.5 171.3,75.5 171.3,74.2 171.4,74.2 171.4,75.5 	"/>
	<polygon id="XMLID_225_" class="st3" points="168.9,75.5 168.7,75.5 168.7,74.2 168.9,74.2 168.9,75.5 	"/>
	<polygon id="XMLID_224_" class="st3" points="166.3,75.5 166.2,75.5 166.2,74.2 166.3,74.2 166.3,75.5 	"/>
	<polygon id="XMLID_223_" class="st3" points="163.8,75.5 163.6,75.5 163.6,74.2 163.8,74.2 163.8,75.5 	"/>
	<polygon id="XMLID_222_" class="st3" points="161.3,75.5 161.1,75.5 161.1,74.2 161.3,74.2 161.3,75.5 	"/>
	<polygon id="XMLID_221_" class="st3" points="158.7,75.5 158.5,75.5 158.5,74.2 158.7,74.2 158.7,75.5 	"/>
	<polygon id="XMLID_220_" class="st3" points="156.2,75.5 156,75.5 156,74.2 156.2,74.2 156.2,75.5 	"/>
	<polygon id="XMLID_219_" class="st3" points="153.6,75.5 153.5,75.5 153.5,74.2 153.6,74.2 153.6,75.5 	"/>
	<polygon id="XMLID_218_" class="st3" points="151.1,75.5 150.9,75.5 150.9,74.2 151.1,74.2 151.1,75.5 	"/>
	<polygon id="XMLID_217_" class="st3" points="148.5,75.5 148.4,75.5 148.4,74.2 148.5,74.2 148.5,75.5 	"/>
	<polygon id="XMLID_216_" class="st3" points="146,75.5 145.8,75.5 145.8,74.2 146,74.2 146,75.5 	"/>
	<polygon id="XMLID_215_" class="st3" points="143.4,75.5 143.3,75.5 143.3,74.2 143.4,74.2 143.4,75.5 	"/>
	<polygon id="XMLID_214_" class="st3" points="140.9,75.5 140.7,75.5 140.7,74.2 140.9,74.2 140.9,75.5 	"/>
	<polygon id="XMLID_213_" class="st3" points="138.3,75.5 138.2,75.5 138.2,74.2 138.3,74.2 138.3,75.5 	"/>
	<polygon id="XMLID_212_" class="st3" points="135.8,75.5 135.6,75.5 135.6,74.2 135.8,74.2 135.8,75.5 	"/>
	<polygon id="XMLID_211_" class="st3" points="133.2,75.5 133.1,75.5 133.1,74.2 133.2,74.2 133.2,75.5 	"/>
	<polygon id="XMLID_210_" class="st3" points="130.7,75.5 130.5,75.5 130.5,74.2 130.7,74.2 130.7,75.5 	"/>
	<polygon id="XMLID_209_" class="st3" points="128.2,75.5 128,75.5 128,74.2 128.2,74.2 128.2,75.5 	"/>
	<polygon id="XMLID_208_" class="st3" points="125.6,75.5 125.4,75.5 125.4,74.2 125.6,74.2 125.6,75.5 	"/>
	<polygon id="XMLID_207_" class="st3" points="123.1,75.5 122.9,75.5 122.9,74.2 123.1,74.2 123.1,75.5 	"/>
	<polygon id="XMLID_206_" class="st3" points="120.5,75.5 120.4,75.5 120.4,74.2 120.5,74.2 120.5,75.5 	"/>
	<polygon id="XMLID_205_" class="st3" points="118,75.5 117.8,75.5 117.8,74.2 118,74.2 118,75.5 	"/>
	<polygon id="XMLID_204_" class="st3" points="115.4,75.5 115.3,75.5 115.3,74.2 115.4,74.2 115.4,75.5 	"/>
	<polygon id="XMLID_203_" class="st3" points="112.9,75.5 112.7,75.5 112.7,74.2 112.9,74.2 112.9,75.5 	"/>
	<polygon id="XMLID_202_" class="st3" points="110.3,75.5 110.2,75.5 110.2,74.2 110.3,74.2 110.3,75.5 	"/>
	<polygon id="XMLID_201_" class="st3" points="107.8,75.5 107.6,75.5 107.6,74.2 107.8,74.2 107.8,75.5 	"/>
	<polygon id="XMLID_200_" class="st3" points="105.2,75.5 105.1,75.5 105.1,74.2 105.2,74.2 105.2,75.5 	"/>
	<polygon id="XMLID_199_" class="st3" points="102.7,75.5 102.5,75.5 102.5,74.2 102.7,74.2 102.7,75.5 	"/>
	<polygon id="XMLID_198_" class="st3" points="100.1,75.5 100,75.5 100,74.2 100.1,74.2 100.1,75.5 	"/>
	<polygon id="XMLID_197_" class="st3" points="97.6,75.5 97.4,75.5 97.4,74.2 97.6,74.2 97.6,75.5 	"/>
	<polygon id="XMLID_196_" class="st3" points="95.1,75.5 94.9,75.5 94.9,74.2 95.1,74.2 95.1,75.5 	"/>
	<polygon id="XMLID_195_" class="st3" points="92.5,75.5 92.4,75.5 92.4,74.2 92.5,74.2 92.5,75.5 	"/>
	<polygon id="XMLID_194_" class="st3" points="90,75.5 89.8,75.5 89.8,74.2 90,74.2 90,75.5 	"/>
	<polygon id="XMLID_193_" class="st3" points="87.4,75.5 87.3,75.5 87.3,74.2 87.4,74.2 87.4,75.5 	"/>
	<polygon id="XMLID_192_" class="st3" points="84.9,75.5 84.7,75.5 84.7,74.2 84.9,74.2 84.9,75.5 	"/>
	<polygon id="XMLID_191_" class="st3" points="82.3,75.5 82.2,75.5 82.2,74.2 82.3,74.2 82.3,75.5 	"/>
	<polygon id="XMLID_190_" class="st3" points="79.8,75.5 79.6,75.5 79.6,74.2 79.8,74.2 79.8,75.5 	"/>
	<polygon id="XMLID_189_" class="st3" points="77.2,75.5 77.1,75.5 77.1,74.2 77.2,74.2 77.2,75.5 	"/>
	<polygon id="XMLID_188_" class="st3" points="74.7,75.5 74.5,75.5 74.5,74.2 74.7,74.2 74.7,75.5 	"/>
	<polygon id="XMLID_187_" class="st3" points="72.1,75.5 72,75.5 72,74.2 72.1,74.2 72.1,75.5 	"/>
	<polygon id="XMLID_186_" class="st3" points="69.6,75.5 69.4,75.5 69.4,74.2 69.6,74.2 69.6,75.5 	"/>
	<polygon id="XMLID_185_" class="st3" points="67,75.5 66.9,75.5 66.9,74.2 67,74.2 67,75.5 	"/>
	<polygon id="XMLID_184_" class="st3" points="64.5,75.5 64.3,75.5 64.3,74.2 64.5,74.2 64.5,75.5 	"/>
	<polygon id="XMLID_183_" class="st3" points="62,75.5 61.8,75.5 61.8,74.2 62,74.2 62,75.5 	"/>
	<polygon id="XMLID_182_" class="st3" points="177.8,74.8 177.6,74.8 177.6,74.2 177.8,74.2 177.8,74.8 	"/>
	<polygon id="XMLID_181_" class="st3" points="175.3,74.8 175.1,74.8 175.1,74.2 175.3,74.2 175.3,74.8 	"/>
	<polygon id="XMLID_180_" class="st3" points="172.7,74.8 172.5,74.8 172.5,74.2 172.7,74.2 172.7,74.8 	"/>
	<polygon id="XMLID_179_" class="st3" points="170.2,74.8 170,74.8 170,74.2 170.2,74.2 170.2,74.8 	"/>
	<polygon id="XMLID_178_" class="st3" points="167.6,74.8 167.5,74.8 167.5,74.2 167.6,74.2 167.6,74.8 	"/>
	<polygon id="XMLID_177_" class="st3" points="165.1,74.8 164.9,74.8 164.9,74.2 165.1,74.2 165.1,74.8 	"/>
	<polygon id="XMLID_176_" class="st3" points="162.5,74.8 162.4,74.8 162.4,74.2 162.5,74.2 162.5,74.8 	"/>
	<polygon id="XMLID_175_" class="st3" points="160,74.8 159.8,74.8 159.8,74.2 160,74.2 160,74.8 	"/>
	<polygon id="XMLID_174_" class="st3" points="157.4,74.8 157.3,74.8 157.3,74.2 157.4,74.2 157.4,74.8 	"/>
	<polygon id="XMLID_172_" class="st3" points="154.9,74.8 154.7,74.8 154.7,74.2 154.9,74.2 154.9,74.8 	"/>
	<polygon id="XMLID_171_" class="st3" points="152.3,74.8 152.2,74.8 152.2,74.2 152.3,74.2 152.3,74.8 	"/>
	<polygon id="XMLID_151_" class="st3" points="149.8,74.8 149.6,74.8 149.6,74.2 149.8,74.2 149.8,74.8 	"/>
	<polygon id="XMLID_150_" class="st3" points="147.2,74.8 147.1,74.8 147.1,74.2 147.2,74.2 147.2,74.8 	"/>
	<polygon id="XMLID_149_" class="st3" points="144.7,74.8 144.5,74.8 144.5,74.2 144.7,74.2 144.7,74.8 	"/>
	<polygon id="XMLID_148_" class="st3" points="142.2,74.8 142,74.8 142,74.2 142.2,74.2 142.2,74.8 	"/>
	<polygon id="XMLID_145_" class="st3" points="139.6,74.8 139.5,74.8 139.5,74.2 139.6,74.2 139.6,74.8 	"/>
	<polygon id="XMLID_130_" class="st3" points="137.1,74.8 136.9,74.8 136.9,74.2 137.1,74.2 137.1,74.8 	"/>
	<polygon id="XMLID_129_" class="st3" points="134.5,74.8 134.4,74.8 134.4,74.2 134.5,74.2 134.5,74.8 	"/>
	<polygon id="XMLID_128_" class="st3" points="132,74.8 131.8,74.8 131.8,74.2 132,74.2 132,74.8 	"/>
	<polygon id="XMLID_127_" class="st3" points="129.4,74.8 129.3,74.8 129.3,74.2 129.4,74.2 129.4,74.8 	"/>
	<polygon id="XMLID_126_" class="st3" points="126.9,74.8 126.7,74.8 126.7,74.2 126.9,74.2 126.9,74.8 	"/>
	<polygon id="XMLID_124_" class="st3" points="124.3,74.8 124.2,74.8 124.2,74.2 124.3,74.2 124.3,74.8 	"/>
	<polygon id="XMLID_123_" class="st3" points="121.8,74.8 121.6,74.8 121.6,74.2 121.8,74.2 121.8,74.8 	"/>
	<polygon id="XMLID_122_" class="st3" points="119.2,74.8 119.1,74.8 119.1,74.2 119.2,74.2 119.2,74.8 	"/>
	<polygon id="XMLID_121_" class="st3" points="116.7,74.8 116.5,74.8 116.5,74.2 116.7,74.2 116.7,74.8 	"/>
	<polygon id="XMLID_120_" class="st3" points="114.2,74.8 114,74.8 114,74.2 114.2,74.2 114.2,74.8 	"/>
	<polygon id="XMLID_119_" class="st3" points="111.6,74.8 111.4,74.8 111.4,74.2 111.6,74.2 111.6,74.8 	"/>
	<polygon id="XMLID_118_" class="st3" points="109.1,74.8 108.9,74.8 108.9,74.2 109.1,74.2 109.1,74.8 	"/>
	<polygon id="XMLID_117_" class="st3" points="106.5,74.8 106.4,74.8 106.4,74.2 106.5,74.2 106.5,74.8 	"/>
	<polygon id="XMLID_116_" class="st3" points="104,74.8 103.8,74.8 103.8,74.2 104,74.2 104,74.8 	"/>
	<polygon id="XMLID_115_" class="st3" points="101.4,74.8 101.3,74.8 101.3,74.2 101.4,74.2 101.4,74.8 	"/>
	<polygon id="XMLID_114_" class="st3" points="98.9,74.8 98.7,74.8 98.7,74.2 98.9,74.2 98.9,74.8 	"/>
	<polygon id="XMLID_113_" class="st3" points="96.3,74.8 96.2,74.8 96.2,74.2 96.3,74.2 96.3,74.8 	"/>
	<polygon id="XMLID_112_" class="st3" points="93.8,74.8 93.6,74.8 93.6,74.2 93.8,74.2 93.8,74.8 	"/>
	<polygon id="XMLID_111_" class="st3" points="91.2,74.8 91.1,74.8 91.1,74.2 91.2,74.2 91.2,74.8 	"/>
	<polygon id="XMLID_110_" class="st3" points="88.7,74.8 88.5,74.8 88.5,74.2 88.7,74.2 88.7,74.8 	"/>
	<polygon id="XMLID_109_" class="st3" points="86.1,74.8 86,74.8 86,74.2 86.1,74.2 86.1,74.8 	"/>
	<polygon id="XMLID_108_" class="st3" points="83.6,74.8 83.4,74.8 83.4,74.2 83.6,74.2 83.6,74.8 	"/>
	<polygon id="XMLID_107_" class="st3" points="81.1,74.8 80.9,74.8 80.9,74.2 81.1,74.2 81.1,74.8 	"/>
	<polygon id="XMLID_106_" class="st3" points="78.5,74.8 78.3,74.8 78.3,74.2 78.5,74.2 78.5,74.8 	"/>
	<polygon id="XMLID_104_" class="st3" points="76,74.8 75.8,74.8 75.8,74.2 76,74.2 76,74.8 	"/>
	<polygon id="XMLID_103_" class="st3" points="73.4,74.8 73.3,74.8 73.3,74.2 73.4,74.2 73.4,74.8 	"/>
	<polygon id="XMLID_102_" class="st3" points="70.9,74.8 70.7,74.8 70.7,74.2 70.9,74.2 70.9,74.8 	"/>
	<polygon id="XMLID_101_" class="st3" points="68.3,74.8 68.2,74.8 68.2,74.2 68.3,74.2 68.3,74.8 	"/>
	<polygon id="XMLID_100_" class="st3" points="65.8,74.8 65.6,74.8 65.6,74.2 65.8,74.2 65.8,74.8 	"/>
	<polygon id="XMLID_99_" class="st3" points="63.2,74.8 63.1,74.8 63.1,74.2 63.2,74.2 63.2,74.8 	"/>
	<path id="XMLID_85_" class="st0" d="M120.4,87.4c-0.4,0-0.6-0.3-0.6-0.6c0-0.4,0.3-0.6,0.6-0.6c0.4,0,0.6,0.3,0.6,0.6
		C121,87.1,120.8,87.4,120.4,87.4L120.4,87.4z M120.8,77.9V83c0,0.2-0.1,0.3-0.3,0.3c-0.2,0-0.3-0.1-0.3-0.3v-5.1h-2.3V88h5.1V77.9
		H120.8L120.8,77.9z"/>
	<path id="XMLID_96_" class="st5" d="M74,70.6c-0.7,0-1.3,0.6-1.3,1.3V77c0,0.7,0.6,1.3,1.3,1.3c0.7,0,1.3-0.6,1.3-1.3v-5.1
		C75.2,71.2,74.7,70.6,74,70.6L74,70.6z"/>
	<path id="XMLID_95_" class="st5" d="M166.9,70.6c-0.7,0-1.3,0.6-1.3,1.3V77c0,0.7,0.6,1.3,1.3,1.3c0.7,0,1.3-0.6,1.3-1.3v-5.1
		C168.2,71.2,167.6,70.6,166.9,70.6L166.9,70.6z"/>
</g>
</svg>
