<?xml version="1.0" encoding="utf-8"?>
<!-- Generator: Adobe Illustrator 19.0.0, SVG Export Plug-In . SVG Version: 6.00 Build 0)  -->
<svg version="1.1" id="Слой_1" xmlns="http://www.w3.org/2000/svg" xmlns:xlink="http://www.w3.org/1999/xlink" x="0px" y="0px"
	 viewBox="0 0 105 108.3" style="enable-background:new 0 0 105 108.3;" xml:space="preserve">
<style type="text/css">
	.st0{clip-path:url(#XMLID_49_);}
</style>
<g id="XMLID_7_">
	<g id="XMLID_8_">
		<defs>
			<rect id="XMLID_1_" x="0" y="0" width="105" height="108.3"/>
		</defs>
		<clipPath id="XMLID_49_">
			<use xlink:href="#XMLID_1_"  style="overflow:visible;"/>
		</clipPath>
		<path id="XMLID_10_" class="st0" d="M98,29.5C83.5,4.4,51.4-4.2,26.3,10.3C1.2,24.8-7.5,56.9,7,82c14.5,25.1,46.6,33.7,71.7,19.2
			C103.9,86.7,112.5,54.6,98,29.5L98,29.5z M73.5,92.1c-20.1,11.6-45.8,4.7-57.4-15.4C4.5,56.7,11.4,31,31.5,19.4
			c20.1-11.6,45.8-4.7,57.4,15.4C100.5,54.9,93.6,80.5,73.5,92.1L73.5,92.1z M71.4,53.6l-27.5-16c-2.5-1.5-4.5-0.3-4.5,2.6L39.5,72
			c0,2.9,2.1,4.1,4.6,2.6l27.3-15.8C73.9,57.5,73.9,55.1,71.4,53.6L71.4,53.6z M71.4,53.6"/>
	</g>
</g>
</svg>
