<?xml version="1.0" encoding="utf-8"?>
<!-- Generator: Adobe Illustrator 19.0.0, SVG Export Plug-In . SVG Version: 6.00 Build 0)  -->
<svg version="1.1" id="Слой_1" xmlns="http://www.w3.org/2000/svg" xmlns:xlink="http://www.w3.org/1999/xlink" x="0px" y="0px"
	 viewBox="-177 300.9 240 240" style="enable-background:new -177 300.9 240 240;" xml:space="preserve">
<style type="text/css">
	.st0{fill:#EB5545;}
	.st1{fill:#61323F;}
	.st2{fill:#49262F;}
	.st3{fill:#D13430;}
	.st4{fill:#2F6F85;}
	.st5{fill:#235364;}
	.st6{fill:#FFC33E;}
	.st7{fill:#FFA631;}
	.st8{fill:#138891;}
	.st9{fill:#21B3B7;}
</style>
<g>
	<polygon class="st0" points="-131.8,446.9 -130.9,452.3 -127.1,455.1 -92.3,409.3 -99.2,404 	"/>
	<g>
		<path class="st1" d="M-99.1,397.6l-3.1,4.1l10,7.6l5.3-6.9l-11.9-9C-98.1,394.7-98.1,396.4-99.1,397.6z"/>
		<path class="st2" d="M-82.3,416.9l3.1-4.1c1-1.3,2.6-1.8,4.1-1.4l-11.9-9l-5.3,6.9L-82.3,416.9z"/>
	</g>
	<g>
		<path class="st1" d="M-37.8,385.4l-23-17.5l-2.7,3.6l23,17.5c0.7,0.5,0.9,1.6,0.3,2.3L-59,416c-0.5,0.7-1.6,0.9-2.3,0.3l-23-17.5
			l-2.7,3.6l23,17.5c2.7,2,6.5,1.5,8.6-1.2l18.8-24.7C-34.6,391.3-35.1,387.5-37.8,385.4z"/>
		<path class="st2" d="M-107.3,381.3c-0.7-0.5-0.9-1.6-0.3-2.3l18.8-24.7c0.5-0.7,1.6-0.9,2.3-0.3l23,17.5l2.7-3.6l-23-17.5
			c-2.7-2-6.5-1.5-8.6,1.2l-18.8,24.7c-2,2.7-1.5,6.5,1.2,8.6l23,17.5l2.7-3.6L-107.3,381.3z"/>
		<path class="st1" d="M-88.8,354.3l-18.8,24.7c-0.5,0.7-0.4,1.7,0.3,2.3l23,17.5l12.4-16.3l-7.7-5.9c-0.7-0.5-0.9-1.6-0.3-2.3
			l3.2-4.2c0.5-0.7,1.6-0.9,2.3-0.3l7.7,5.9l3.1-4.1l-23-17.5C-87.2,353.5-88.2,353.6-88.8,354.3z"/>
		<path class="st2" d="M-58.9,381.5c0.7,0.5,0.9,1.6,0.3,2.3l-3.2,4.2c-0.5,0.7-1.6,0.9-2.3,0.3l-7.7-5.9l-12.4,16.3l23,17.5
			c0.7,0.5,1.7,0.4,2.3-0.3l18.8-24.7c0.5-0.7,0.4-1.7-0.3-2.3l-23-17.5l-3.1,4.1L-58.9,381.5z"/>
	</g>
	
		<rect x="-113.9" y="402" transform="matrix(-0.7957 -0.6057 0.6057 -0.7957 -461.2755 705.9955)" class="st3" width="4.7" height="57.6"/>
	<path class="st0" d="M-102.1,430.1l5.6-0.9l2.6-3.5l-0.9-3c0,0,1.7-0.1,3.3-0.2l6.1-8l-6.9-5.3l-34.9,45.8l3.7,2.9l4.9-0.5l0.2-3.1
		l4.2-1.9l2.1-2.8l-0.5-5.8l4.6,0.5l1.4-4.1l1.5,0.3l1.6-2.1l-1-5.2L-102.1,430.1z"/>
</g>
<g>
	<polygon class="st4" points="-94.2,468.9 -94.7,478.3 -91.2,481 -50.5,427.5 -58.2,421.7 	"/>
	<polygon class="st4" points="-78.8,480.6 -87.7,483.6 -91.2,481 -50.5,427.5 -42.9,433.4 	"/>
	
		<rect x="-70.5" y="406.7" transform="matrix(-0.7957 -0.6057 0.6057 -0.7957 -393.6634 761.8716)" class="st5" width="4.4" height="81.3"/>
	<polygon class="st5" points="-75.6,460.4 -74.5,465 -80,466.3 	"/>
	<polygon class="st5" points="-81.8,468.6 -80.7,473.1 -86.2,474.4 	"/>
	<path class="st6" d="M-47.3,394.5c0.9,1.5,0.8,3.5-0.3,5l-14.6,19.2l11.6,8.9l17.1-22.5L-47.3,394.5z"/>
	<path class="st7" d="M-33.4,405.1l-17.1,22.5l11.6,8.9l14.6-19.2c1.1-1.5,3-2.1,4.7-1.6L-33.4,405.1L-33.4,405.1z"/>
	<polygon class="st5" points="-59.6,439.5 -60.7,446.9 -69.5,452.5 	"/>
	<path class="st6" d="M19.8,389.8c0,0-5.4-10.4-23.3-24.1l-5,6.5c12.9,9.8,18.7,17.8,20.4,20.4L4.1,403l-22.8-17.3l-5.8,7.6
		l22.8,17.3l-2.4,3.1c-3-1-12.2-4.4-25.1-14.2l-5,6.5c17.9,13.6,29.4,16,29.4,16c2.2,0.5,5.1-0.6,6.5-2.4l0.8-1.1
		c1.4-1.8,3.6-4.7,5-6.5l0.5-0.7c1.4-1.8,2.5-3.3,2.5-3.3s1.1-1.5,2.5-3.3l0.5-0.7c1.4-1.8,3.6-4.7,5-6.5l0.8-1.1
		C20.5,394.9,20.8,391.8,19.8,389.8z"/>
	<path class="st7" d="M-49.7,379.2l2.4-3.1l22.8,17.3l5.8-7.6l-22.8-17.3l7.9-10.4c3,1,12.2,4.4,25.1,14.2l5-6.5
		c-17.9-13.6-29.4-16-29.4-16c-2.2-0.5-5.1,0.6-6.5,2.4l-6.3,8.2c-1.4,1.8-2.5,3.3-2.5,3.3s-1.1,1.5-2.5,3.3l-6.3,8.2
		c-1.4,1.8-1.6,4.9-0.6,6.9c0,0,5.4,10.4,23.3,24.1l5-6.5C-42.4,389.6-48,381.7-49.7,379.2z"/>
	<path class="st7" d="M-3.8,384.2c-1.6,2.1-6.8,0.8-11.6-2.8l-3.3,4.3L4.1,403l7.9-10.4c-1.7-2.7-7.5-10.6-20.4-20.4l-1.2,1.6
		C-4.8,377.5-2.2,382.1-3.8,384.2z"/>
	<path class="st6" d="M-41.5,368.4l22.8,17.3l3.3-4.3c-4.8-3.7-7.4-8.3-5.8-10.4c1.6-2.1,6.8-0.8,11.6,2.8l1.2-1.6
		c-12.9-9.8-22.1-13.3-25.1-14.2L-41.5,368.4z"/>
	<path class="st7" d="M-4.1,413.8l2.4-3.1l-22.8-17.3l-4.7,6.2C-16.3,409.4-7.2,412.8-4.1,413.8z"/>
	<path class="st6" d="M-49.7,379.2c1.6,2.6,7.3,10.4,20.4,20.4l4.7-6.2L-47.3,376L-49.7,379.2z"/>
</g>
<g>
	<polygon class="st8" points="-19,441.4 -59.9,495.1 -59.2,500.4 -18,446.3 -14,449.3 -56.5,505.2 -56.5,505.2 -11.6,446.2 	"/>
	<polygon class="st8" points="-13.5,466.4 -7.9,464.6 -9.7,458.1 -1.6,452.9 -11.6,446.2 -56.5,505.2 -54.6,506.7 -48.5,505.8 
		-45.8,496.3 -40.5,495.6 -39.7,490.7 -32.7,486.3 -32.3,481.2 -26.6,478.1 -26,473.3 -13.5,470.6 	"/>
	<polygon class="st9" points="-18,446.3 -59.2,500.4 -58.8,503.5 -56.5,505.2 -14,449.3 	"/>
	<path class="st9" d="M17.9,426.1c3.8-4.9,2.8-12-2.1-15.8c-0.2-0.1-0.4-0.3-0.5-0.4l-2,2.6c0.2,0.1,0.4,0.2,0.5,0.4
		c3.5,2.7,4.2,7.7,1.5,11.2c-2.7,3.5-7.7,4.2-11.2,1.5c-0.2-0.1-0.3-0.3-0.5-0.4l-2,2.6c0.2,0.1,0.3,0.3,0.5,0.4
		C7,432,14.1,431.1,17.9,426.1z"/>
	<path class="st8" d="M2.5,414.5c2.5-3.3,7.2-4.1,10.7-1.9l2-2.6c-4.9-3.3-11.6-2.2-15.3,2.5c-3.6,4.8-2.9,11.5,1.6,15.4l2-2.6
		C0.5,422.5,0,417.8,2.5,414.5z"/>
	<path class="st9" d="M20.3,404.3c-0.2-0.1-0.4-0.3-0.5-0.4l-2,2.6c0.2,0.1,0.4,0.3,0.5,0.4c11.4,8.7,13.6,25.1,4.9,36.5
		c-8.7,11.4-25.1,13.6-36.5,4.9c-0.2-0.1-0.3-0.3-0.5-0.4l-2,2.6c0.2,0.1,0.3,0.3,0.5,0.4c12.9,9.8,31.3,7.3,41.1-5.6
		C35.7,432.5,33.2,414.1,20.3,404.3z"/>
	<path class="st8" d="M-18.2,411.9c8.6-11.2,24.5-13.6,35.9-5.3l2-2.6c-12.8-9.3-30.9-6.7-40.5,6c-9.7,12.7-7.4,30.8,5.1,40.6l2-2.6
		C-24.7,439.1-26.7,423.1-18.2,411.9z"/>
	<path class="st9" d="M-18.2,411.9c-8.6,11.2-6.5,27.3,4.4,36.1l15.3-20.1c-4.5-3.9-5.3-10.6-1.6-15.4c3.6-4.8,10.3-5.8,15.3-2.5
		l2.6-3.4C6.4,398.3-9.6,400.6-18.2,411.9z"/>
	<path class="st8" d="M15.7,410.3c4.9,3.8,5.9,10.8,2.1,15.8c-3.8,4.9-10.8,5.9-15.8,2.1c-0.2-0.1-0.3-0.3-0.5-0.4l-15.3,20.1
		c0.2,0.1,0.3,0.3,0.5,0.4c11.4,8.7,27.8,6.5,36.5-4.9c8.7-11.4,6.5-27.8-4.9-36.5c-0.2-0.1-0.4-0.3-0.5-0.4l-2.6,3.4
		C15.4,410.1,15.6,410.2,15.7,410.3z"/>
</g>
</svg>
