<?xml version="1.0" encoding="utf-8"?>
<!-- Generator: Adobe Illustrator 19.0.0, SVG Export Plug-In . SVG Version: 6.00 Build 0)  -->
<svg version="1.1" id="Слой_1" xmlns="http://www.w3.org/2000/svg" xmlns:xlink="http://www.w3.org/1999/xlink" x="0px" y="0px"
	 viewBox="0 0 240 240" style="enable-background:new 0 0 240 240;" xml:space="preserve">
<style type="text/css">
	.st0{fill:#DCAE36;}
	.st1{fill:#E9683E;}
	.st2{fill:#D3441E;}
	.st3{fill:#088484;}
	.st4{fill:#1099A0;}
	.st5{fill:#824C25;}
	.st6{fill:#1AAEBC;}
	.st7{fill:#EBF6F9;}
</style>
<g id="XMLID_146_">
	<circle id="XMLID_144_" class="st0" cx="121.8" cy="122.8" r="79"/>
	<g id="XMLID_173_">
		<polygon id="XMLID_143_" class="st1" points="141.6,65.1 91.3,65.1 91.3,35.9 141.6,35.9 127.2,50.5 		"/>
		<polygon id="XMLID_142_" class="st2" points="98.5,35.9 91.3,35.9 91.3,65.1 95,65.1 		"/>
	</g>
	<g id="XMLID_170_">
		<path id="XMLID_141_" class="st3" d="M124.4,201.8c26.4-0.8,49.6-14.7,63.3-35.3l-22.1-41.1L124.4,201.8z"/>
		<path id="XMLID_140_" class="st4" d="M174.6,168.3l6.9,6.3c2.2-2.6,4.3-5.3,6.2-8.2l-22.1-41.1l-33.1,61.5l12.5-11.7l2.1,18.2
			c0,0,17-13.6,17-11.4c0,0.7,1.1,3.1,2.6,5.9c3.3-2.3,6.4-4.8,9.3-7.5C175.3,173.8,174.6,168.3,174.6,168.3z"/>
	</g>
	<rect id="XMLID_139_" x="87.7" y="35.9" class="st5" width="5.6" height="65.8"/>
	<g id="XMLID_147_">
		<path id="XMLID_138_" class="st6" d="M90.2,83.4L50.6,157c12.7,26.5,39.9,44.8,71.3,44.8c10.3,0,20.2-2,29.2-5.6L90.2,83.4z"/>
		<path id="XMLID_137_" class="st4" d="M50.6,157c2.3,4.9,5.1,9.4,8.4,13.7l16-14.5c0,0-1.7,13.8-3.1,27.9c4.4,3.6,9.2,6.7,14.3,9.3
			c3.8-6.6,6.7-12.6,6.7-14.1c0-3.8,28.7,19.2,28.7,19.2l3.6-30.8l21.2,19.8L90.2,83.4L50.6,157z"/>
		<path id="XMLID_134_" class="st7" d="M117,133.1L90.2,83.4l-26.9,49.9c8.6-2.3,15.1-4.1,15.1-4.1l7.2,19.2
			c0,0,14.4-15.4,17.9-15.4C105.9,133.1,112.5,133.1,117,133.1z"/>
	</g>
</g>
</svg>
