<?xml version="1.0" encoding="utf-8"?>
<!-- Generator: Adobe Illustrator 19.0.0, SVG Export Plug-In . SVG Version: 6.00 Build 0)  -->
<svg version="1.1" id="Слой_1" xmlns="http://www.w3.org/2000/svg" xmlns:xlink="http://www.w3.org/1999/xlink" x="0px" y="0px"
	 viewBox="0 0 302.1 31.8" style="enable-background:new 0 0 302.1 31.8;" xml:space="preserve">
<style type="text/css">
	.st0{fill:#0C0E0F;}
</style>
<g id="XMLID_15_">
	<path id="XMLID_74_" class="st0" d="M12.9,16.7l0.4,0.1c0.7-1.4,1.5-2.8,2.3-4.1c0.8-1.3,1.7-2.7,2.7-4s2-2.7,3.1-4.1
		c1.1-1.4,2.3-2.8,3.6-4.3L27.6,2c-2.1,2-4.1,4.3-6.1,6.8c-2,2.5-3.8,5.1-5.4,7.8s-2.9,5.2-3.8,7.5l-2.8-0.8
		c0.3-2.2,0.5-3.8,0.7-4.6c0.5-3.7,0.9-6.6,1.1-8.9L11,9.6c-2.1,3.1-3.5,5.2-4.2,6.3C6,17,5.3,18.2,4.6,19.6
		c-0.7,1.4-1.3,2.9-1.8,4.5L0,23.3c0.2-2.5,0.4-4,0.4-4.8c0-0.6,0.1-1,0.1-1.4s0.1-1,0.2-1.9c0.2-1.7,0.3-3.6,0.4-5.7
		c0.1-1,0.1-2.2,0.2-3.5c0.2-1.8,0.3-3.9,0.3-6l3.5,0.9C5,2.9,4.8,4.4,4.6,5.6c-0.1,1.4-0.3,3-0.6,4.9c-0.1,0.6-0.1,1-0.2,1.5
		s-0.1,1-0.2,1.7c-0.1,0.5-0.1,1.1-0.2,1.6c-0.1,0.5-0.1,1-0.2,1.5l0.3,0.1c0.6-1.1,1.3-2.4,2.2-3.9S7.6,10,8.6,8.5
		c1-1.4,2-2.7,2.9-3.7l0.2-3.6l2.1,0.4l0.6-0.4L17.1,3l-2.8,3c-0.4,4.1-0.7,6.7-0.8,7.7C13.3,14.8,13.1,15.8,12.9,16.7z"/>
	<path id="XMLID_76_" class="st0" d="M33.5,11.1l2.4,1.3l-3,5.8c-0.5,1-0.8,1.7-0.8,2c0,0.4,0.1,0.6,0.4,0.6c0.2,0,0.7-0.2,1.6-0.6
		s1.5-0.7,2-1l-0.7,2.3c-0.7,0.5-1.5,1-2.3,1.5c-0.9,0.4-1.6,0.7-2.1,0.7c-0.6,0-1-0.2-1.4-0.5c-0.4-0.3-0.5-0.7-0.5-1.1
		c0-0.2,0-0.5,0.1-0.7c0.1-0.3,0.2-0.5,0.2-0.7c0.1-0.2,0.2-0.4,0.3-0.6c0.1-0.2,0.2-0.3,0.2-0.4l-0.1,0c-0.1,0.1-0.2,0.2-0.4,0.4
		c-0.6,0.8-1.6,1.6-2.8,2.4c-1.3,0.9-2.4,1.3-3.4,1.3c-0.7,0-1.3-0.3-1.9-0.8c-0.6-0.6-0.9-1.4-0.9-2.6c0-1.2,0.6-2.6,1.7-4.1
		c1.1-1.5,2.4-2.8,4-3.9c1.6-1.1,2.9-1.6,4.1-1.6c1.3,0,2.2,0.4,2.9,1.2L33.5,11.1z M30.7,16.4l1.7-3.3c-0.4-0.5-0.9-0.7-1.5-0.7
		c-0.7,0-1.7,0.4-2.8,1.2c-1.1,0.8-2.1,1.8-3,2.9c-0.9,1.1-1.3,2.1-1.3,3c0,1,0.3,1.5,1,1.5c0.4,0,1-0.3,1.8-0.8s1.6-1.2,2.4-1.9
		S30.5,17,30.7,16.4z"/>
	<path id="XMLID_79_" class="st0" d="M44.7,19.3L44,21.6c-2.5,1.4-4.1,2.1-4.9,2.1c-0.5,0-1-0.2-1.3-0.5c-0.3-0.4-0.5-0.8-0.5-1.5
		c0-1.5,1.3-4.7,4-9.6c-1.3,0.1-2.4,0.2-3.3,0.5l0.6-2.1c0.2,0,0.4-0.1,0.5-0.1s0.3-0.1,0.6-0.1c0.9-0.2,1.8-0.3,2.6-0.3
		c1.1-2.1,2-3.6,2.5-4.4l2.4,0.9c-0.6,0.8-1.2,1.9-2,3.3c0.5,0,1.3,0,2.2,0c0.9,0,1.6,0.1,2.2,0.2l-1.2,2.2
		c-0.8-0.2-1.4-0.3-1.9-0.3c-1.2,0-1.9,0-2.4,0.1c-1.5,2.9-2.5,4.9-3.1,6.1c-0.5,1.2-0.8,2-0.8,2.4c0,0.4,0.2,0.5,0.5,0.5
		c0.3,0,0.7-0.1,1.1-0.3C42.4,20.4,43.3,20,44.7,19.3z"/>
	<path id="XMLID_81_" class="st0" d="M57.2,15.7L55,14.5c0.3-0.6,0.5-1,0.5-1.2c0-0.1-0.1-0.2-0.2-0.3s-0.3-0.2-0.5-0.2
		c-0.6,0-1.4,0.4-2.3,1.3c-0.9,0.9-1.6,1.9-2.2,3.1s-0.9,2.2-0.9,3c0,0.3,0.1,0.6,0.4,0.8c0.2,0.3,0.6,0.4,1,0.4
		c1.2,0,3.4-0.7,6.4-2.1l-0.7,2.3c-1.2,0.6-2.2,1-3.1,1.3c-0.8,0.3-1.6,0.5-2.2,0.7c-0.7,0.1-1.3,0.2-1.9,0.2
		c-2.2,0-3.3-1.1-3.3-3.2c0-1.1,0.3-2.3,1-3.5c0.7-1.2,1.6-2.3,2.7-3.3c1.1-1,2.2-1.8,3.4-2.4c1.2-0.6,2.3-0.9,3.3-0.9
		c0.8,0,1.4,0.2,1.8,0.7c0.4,0.5,0.6,1.1,0.6,1.8c0,0.5-0.1,0.9-0.4,1.5C58,14.9,57.6,15.3,57.2,15.7z"/>
	<path id="XMLID_83_" class="st0" d="M58.8,23.9l-2.2-0.7c0.5-1.1,1-2.1,1.4-3c0.4-0.9,0.8-1.8,1.2-2.8s0.9-2,1.4-3.1
		C62,11,63,8.5,63.7,6.8c0.2-0.5,0.4-1,0.6-1.4c0.2-0.4,0.3-0.7,0.4-1C64.8,4.1,65,3.6,65.3,3L68,4l-6.1,13l0.3,0.2
		c0.9-1.1,1.7-2,2.4-2.8s1.5-1.4,2.2-2c0.8-0.5,1.5-0.8,2.1-0.8c0.6,0,1,0.2,1.4,0.6c0.4,0.4,0.6,0.9,0.6,1.6c0,0.2-0.1,0.5-0.2,0.8
		c-0.1,0.3-0.4,0.9-0.9,1.7c-0.5,0.8-0.8,1.5-1.1,1.9c-0.5,1-0.8,1.6-0.8,1.9c0,0.3,0.1,0.4,0.4,0.4c0.3,0,1.4-0.4,3.4-1.2L71,21.6
		c-2.4,1.4-3.9,2.1-4.6,2.1c-0.4,0-0.8-0.1-1.2-0.4c-0.4-0.3-0.6-0.8-0.6-1.4c0-0.4,0.1-0.9,0.3-1.4c0.2-0.5,0.4-1,0.7-1.6
		c0.3-0.6,0.7-1.3,1.1-2.1c0.4-0.9,0.6-1.4,0.6-1.5c0-0.1,0-0.2-0.1-0.2C67.1,15.1,67,15,66.8,15c-0.5,0-1.3,0.7-2.6,2.1
		s-2.4,2.8-3.5,4.3c-0.3,0.4-0.6,0.8-0.8,1.1S59.4,23.2,58.8,23.9z"/>
	<path id="XMLID_85_" class="st0" d="M90.8,6.6L93,7.7l-4.7,9l0.3,0.2c2-2,3.4-3.3,4.4-4s1.8-1,2.4-1c0.5,0,0.9,0.2,1.2,0.6
		c0.3,0.4,0.4,0.8,0.4,1.2c0,0.6-0.3,1.4-0.9,2.7c-0.4,0.9-0.9,1.7-1.4,2.5c-0.5,0.8-0.7,1.3-0.7,1.5c0,0.3,0.1,0.4,0.4,0.4
		c0.2,0,0.4-0.1,0.7-0.2c0.3-0.1,0.7-0.3,1.2-0.6c0.5-0.2,1-0.5,1.4-0.7l-0.7,2.3c-0.8,0.5-1.6,1-2.5,1.5s-1.7,0.7-2.2,0.7
		c-0.6,0-1.1-0.2-1.4-0.5c-0.3-0.3-0.4-0.7-0.4-1.1c0-0.8,0.5-2,1.4-3.6c0.3-0.5,0.6-0.9,0.8-1.4s0.5-0.7,0.6-0.9
		c0.1-0.2,0.1-0.3,0.2-0.4v-0.3c0-0.3-0.2-0.4-0.5-0.4c-0.6,0-1.3,0.5-2.1,1.4c-0.9,1-1.7,1.9-2.3,2.6c-0.6,0.7-1.3,1.9-2.2,3.3
		c-0.8,1.5-1.8,3.5-2.9,6c-0.4,1-0.7,1.7-0.9,2c-0.1,0.3-0.3,0.8-0.6,1.3l-2.4-0.6c1.2-3.2,2.5-6.2,3.7-9.1s2.3-5.4,3.3-7.4
		c1-2.1,1.7-3.6,2.3-4.7C89.5,9,90.1,7.8,90.8,6.6z"/>
	<path id="XMLID_87_" class="st0" d="M103.2,10.2l2.3,1l-2.5,5.3l0.2,0.1c1.2-1.3,2.2-2.4,2.9-3.1c0.7-0.7,1.5-1.3,2.3-1.7
		s1.6-0.6,2.5-0.6c0.8,0,1.4,0.2,1.9,0.7l-1.9,3.2c-0.4-0.6-0.9-0.8-1.5-0.8c-0.7,0-1.7,0.5-2.9,1.5s-2.3,2.2-3.5,3.6
		c-1.1,1.4-2,2.5-2.6,3.4L99.9,24l-2.6-0.7L103.2,10.2z"/>
	<path id="XMLID_89_" class="st0" d="M109,19.4l0.7-0.5c0.3-1,0.9-2,1.6-3c0.7-1,1.6-1.9,2.6-2.7s2-1.4,3.1-1.9
		c1.1-0.5,2.1-0.7,3-0.7c0.9,0,1.6,0.2,2.1,0.7c0.4,0.4,0.7,0.9,0.7,1.5c0,1.1-0.7,2.3-2,3.5c-1.3,1.3-4,2.4-7.9,3.4
		c0,0.2-0.1,0.3-0.1,0.4c0,0.4,0.2,0.8,0.5,1c0.4,0.3,0.9,0.4,1.5,0.4c0.5,0,1.1-0.1,1.8-0.3c0.7-0.2,1.4-0.5,2.1-0.8s1.4-0.7,2-1
		l-0.7,2.2c-1,0.6-2.1,1.1-3.4,1.5c-1.3,0.4-2.4,0.6-3.4,0.6c-0.7,0-1.3-0.1-1.8-0.4c-0.5-0.3-1-0.6-1.3-1.1s-0.4-0.9-0.4-1.4
		l-1.4,0.8L109,19.4z M113.5,17.7c2.9-0.8,4.8-2,5.8-3.7c0.1-0.2,0.2-0.5,0.2-0.6c0-0.4-0.2-0.6-0.6-0.6c-0.6,0-1.3,0.3-2,0.8
		c-0.7,0.6-1.4,1.2-2.1,2C114.2,16.5,113.7,17.2,113.5,17.7z"/>
	<path id="XMLID_92_" class="st0" d="M132.8,13.3l-2.1,1c-0.3-1-0.9-1.5-1.7-1.5c-0.4,0-0.8,0.1-1.1,0.4c-0.3,0.3-0.4,0.5-0.4,0.8
		c0,0.2,0.1,0.5,0.2,0.7c0.1,0.2,0.3,0.6,0.7,1c0.3,0.5,0.5,0.8,0.7,1.2c0.5,0.9,0.7,1.7,0.7,2.4c0,1.2-0.5,2.2-1.4,3.2
		c-1,1-2.3,1.4-4,1.4c-1.2,0-2.1-0.2-2.7-0.7c-0.7-0.4-1-1-1-1.8c0-0.4,0.1-0.8,0.3-1.3l2.8-0.4c-0.2,0.2-0.3,0.5-0.3,0.8
		c0,0.3,0.1,0.6,0.3,0.8c0.2,0.2,0.5,0.3,0.9,0.3c0.6,0,1.1-0.2,1.5-0.6c0.4-0.4,0.6-0.9,0.6-1.4c0-0.2,0-0.5-0.1-0.7
		c-0.1-0.2-0.2-0.5-0.3-0.7c-0.1-0.2-0.3-0.5-0.4-0.7c-0.1-0.2-0.4-0.6-0.7-1.1c-0.6-1-0.9-1.8-0.9-2.4c0-0.7,0.2-1.3,0.6-1.9
		c0.4-0.6,1-1.1,1.7-1.5c0.8-0.4,1.6-0.6,2.7-0.6c0.9,0,1.7,0.3,2.4,0.8S132.7,12.4,132.8,13.3z"/>
	<path id="XMLID_94_" class="st0" d="M130.4,19.4l0.7-0.5c0.3-1,0.9-2,1.6-3c0.7-1,1.6-1.9,2.6-2.7s2-1.4,3.1-1.9
		c1.1-0.5,2.1-0.7,3-0.7c0.9,0,1.6,0.2,2.1,0.7c0.4,0.4,0.7,0.9,0.7,1.5c0,1.1-0.7,2.3-2,3.5c-1.3,1.3-4,2.4-7.9,3.4
		c0,0.2-0.1,0.3-0.1,0.4c0,0.4,0.2,0.8,0.5,1c0.4,0.3,0.9,0.4,1.5,0.4c0.5,0,1.1-0.1,1.8-0.3c0.7-0.2,1.4-0.5,2.1-0.8s1.4-0.7,2-1
		l-0.7,2.2c-1,0.6-2.1,1.1-3.4,1.5c-1.3,0.4-2.4,0.6-3.4,0.6c-0.7,0-1.3-0.1-1.8-0.4c-0.5-0.3-1-0.6-1.3-1.1s-0.4-0.9-0.4-1.4
		l-1.4,0.8L130.4,19.4z M134.8,17.7c2.9-0.8,4.8-2,5.8-3.7c0.1-0.2,0.2-0.5,0.2-0.6c0-0.4-0.2-0.6-0.6-0.6c-0.6,0-1.3,0.3-2,0.8
		c-0.7,0.6-1.4,1.2-2.1,2C135.5,16.5,135.1,17.2,134.8,17.7z"/>
	<path id="XMLID_97_" class="st0" d="M148,10.2l2.2,1.1l-2.8,5.7l0.2,0.2c0.4-0.6,1.1-1.3,2-2.2c0.9-0.9,1.8-1.7,2.7-2.3
		c0.9-0.7,1.7-1,2.3-1s1.1,0.2,1.4,0.6c0.3,0.4,0.5,0.9,0.5,1.5c0,0.3-0.1,0.7-0.3,1c-0.2,0.4-0.8,1.5-1.9,3.4
		c-0.5,1-0.8,1.6-0.8,1.9c0,0.3,0.1,0.4,0.4,0.4c0.3,0,1.4-0.4,3.4-1.2l-0.7,2.3c-2.4,1.4-3.9,2.1-4.7,2.1c-0.4,0-0.8-0.1-1.2-0.4
		c-0.4-0.3-0.6-0.8-0.6-1.4c0-0.4,0.1-0.9,0.3-1.4c0.2-0.5,0.4-1,0.7-1.6c0.3-0.6,0.7-1.3,1.1-2.1c0.4-0.9,0.6-1.4,0.6-1.5
		c0-0.2-0.1-0.4-0.4-0.4c-0.5,0-1.6,0.9-3.2,2.7c-1.4,1.5-2.3,2.5-2.7,3.1c-0.6,0.8-1.5,1.8-2.7,3.1l-2.2-0.7L148,10.2z"/>
	<path id="XMLID_99_" class="st0" d="M165.6,19.3l-0.7,2.3c-2.5,1.4-4.1,2.1-4.9,2.1c-0.5,0-1-0.2-1.3-0.5c-0.3-0.4-0.5-0.8-0.5-1.5
		c0-1.5,1.3-4.7,4-9.6c-1.3,0.1-2.4,0.2-3.3,0.5l0.6-2.1c0.2,0,0.4-0.1,0.5-0.1s0.3-0.1,0.6-0.1c0.9-0.2,1.8-0.3,2.6-0.3
		c1.1-2.1,2-3.6,2.5-4.4l2.4,0.9c-0.6,0.8-1.2,1.9-2,3.3c0.5,0,1.3,0,2.2,0c0.9,0,1.6,0.1,2.2,0.2l-1.2,2.2
		c-0.8-0.2-1.4-0.3-1.9-0.3c-1.2,0-1.9,0-2.4,0.1c-1.5,2.9-2.5,4.9-3.1,6.1c-0.5,1.2-0.8,2-0.8,2.4c0,0.4,0.2,0.5,0.5,0.5
		c0.3,0,0.7-0.1,1.1-0.3C163.4,20.4,164.3,20,165.6,19.3z"/>
	<path id="XMLID_101_" class="st0" d="M179.9,11.1l2.4,1.3l-3,5.8c-0.5,1-0.8,1.7-0.8,2c0,0.4,0.1,0.6,0.4,0.6
		c0.2,0,0.7-0.2,1.6-0.6s1.5-0.7,2-1l-0.7,2.3c-0.7,0.5-1.5,1-2.3,1.5c-0.9,0.4-1.6,0.7-2.1,0.7c-0.6,0-1-0.2-1.4-0.5
		c-0.4-0.3-0.5-0.7-0.5-1.1c0-0.2,0-0.5,0.1-0.7c0.1-0.3,0.2-0.5,0.2-0.7c0.1-0.2,0.2-0.4,0.3-0.6c0.1-0.2,0.2-0.3,0.2-0.4l-0.1,0
		c-0.1,0.1-0.2,0.2-0.4,0.4c-0.6,0.8-1.6,1.6-2.8,2.4c-1.3,0.9-2.4,1.3-3.4,1.3c-0.7,0-1.3-0.3-1.9-0.8c-0.6-0.6-0.9-1.4-0.9-2.6
		c0-1.2,0.6-2.6,1.7-4.1c1.1-1.5,2.4-2.8,4-3.9c1.6-1.1,2.9-1.6,4.1-1.6c1.3,0,2.2,0.4,2.9,1.2L179.9,11.1z M177.1,16.4l1.7-3.3
		c-0.4-0.5-0.9-0.7-1.5-0.7c-0.7,0-1.7,0.4-2.8,1.2c-1.1,0.8-2.1,1.8-3,2.9c-0.9,1.1-1.3,2.1-1.3,3c0,1,0.3,1.5,1,1.5
		c0.4,0,1-0.3,1.8-0.8s1.6-1.2,2.4-1.9S176.9,17,177.1,16.4z"/>
	<path id="XMLID_104_" class="st0" d="M191.1,19.3l-0.7,2.3c-2.5,1.4-4.1,2.1-4.9,2.1c-0.5,0-1-0.2-1.3-0.5
		c-0.3-0.4-0.5-0.8-0.5-1.5c0-1.5,1.3-4.7,4-9.6c-1.3,0.1-2.4,0.2-3.3,0.5l0.6-2.1c0.2,0,0.4-0.1,0.5-0.1s0.3-0.1,0.6-0.1
		c0.9-0.2,1.8-0.3,2.6-0.3c1.1-2.1,2-3.6,2.5-4.4l2.4,0.9c-0.6,0.8-1.2,1.9-2,3.3c0.5,0,1.3,0,2.2,0c0.9,0,1.6,0.1,2.2,0.2l-1.2,2.2
		c-0.8-0.2-1.4-0.3-1.9-0.3c-1.2,0-1.9,0-2.4,0.1c-1.5,2.9-2.5,4.9-3.1,6.1c-0.5,1.2-0.8,2-0.8,2.4c0,0.4,0.2,0.5,0.5,0.5
		c0.3,0,0.7-0.1,1.1-0.3C188.9,20.4,189.7,20,191.1,19.3z"/>
	<path id="XMLID_106_" class="st0" d="M199.7,19.3l-0.8,2.3c-0.8,0.5-1.8,0.9-2.8,1.4s-1.8,0.7-2.4,0.7c-0.5,0-1-0.2-1.4-0.6
		c-0.4-0.4-0.5-0.9-0.5-1.5c0-0.5,0.2-1.1,0.5-1.9c0.3-0.8,0.9-2,1.8-3.5c0.8-1.5,2-3.6,3.6-6.3l2.4,1.2l-4.3,7.8
		c-0.3,0.6-0.5,1-0.5,1.3c0,0.3,0.2,0.4,0.5,0.4s0.7-0.1,1.1-0.2C197.3,20.4,198.2,20,199.7,19.3z M201.1,3.8h1.2
		c0.6,0,0.9,0.2,0.9,0.6c0,0.4-0.1,0.8-0.4,1.3c-0.3,0.4-0.6,0.8-1.1,1.1c-0.4,0.3-0.9,0.5-1.3,0.5c-0.6,0-1-0.2-1.1-0.6V6.2
		c0.1-0.8,0.4-1.4,0.7-1.8C200.4,4,200.8,3.8,201.1,3.8z"/>
	<path id="XMLID_109_" class="st0" d="M210.4,9.7l0.5,2c-1.1,0.3-2.1,0.8-3,1.5c-0.9,0.6-1.7,1.4-2.4,2.2c-0.7,0.8-1.2,1.6-1.5,2.3
		c-0.4,0.8-0.5,1.5-0.5,2.1c0,1.2,0.5,1.8,1.5,1.8c0.7,0,1.5-0.3,2.2-1s1.3-1.5,1.8-2.6s0.7-2.3,0.7-3.6c0-0.3,0-0.7-0.1-1.2
		l3.1-0.8c0.1,0.5,0.1,1,0.1,1.6c0,1.7-0.4,3.3-1.3,4.9c-0.9,1.5-2,2.7-3.4,3.6s-2.7,1.3-4,1.3c-2.5,0-3.7-1.2-3.7-3.7
		c0-1.3,0.4-2.5,1.2-3.9c0.8-1.3,1.9-2.5,3.5-3.7C206.6,11.4,208.4,10.5,210.4,9.7z"/>
	<path id="XMLID_111_" class="st0" d="M218.4,10.2l2.2,1.1l-2.8,5.7l0.2,0.2c0.4-0.6,1.1-1.3,2-2.2c0.9-0.9,1.8-1.7,2.7-2.3
		c0.9-0.7,1.7-1,2.3-1s1.1,0.2,1.4,0.6c0.3,0.4,0.5,0.9,0.5,1.5c0,0.3-0.1,0.7-0.3,1c-0.2,0.4-0.8,1.5-1.9,3.4
		c-0.5,1-0.8,1.6-0.8,1.9c0,0.3,0.1,0.4,0.4,0.4c0.3,0,1.4-0.4,3.4-1.2l-0.7,2.3c-2.4,1.4-3.9,2.1-4.7,2.1c-0.4,0-0.8-0.1-1.2-0.4
		c-0.4-0.3-0.6-0.8-0.6-1.4c0-0.4,0.1-0.9,0.3-1.4c0.2-0.5,0.4-1,0.7-1.6c0.3-0.6,0.7-1.3,1.1-2.1c0.4-0.9,0.6-1.4,0.6-1.5
		c0-0.2-0.1-0.4-0.4-0.4c-0.5,0-1.6,0.9-3.2,2.7c-1.4,1.5-2.3,2.5-2.7,3.1c-0.6,0.8-1.5,1.8-2.7,3.1l-2.2-0.7L218.4,10.2z"/>
	<path id="XMLID_113_" class="st0" d="M255.9,11l-0.4,2l-2.3,0.9c0,1.2-0.6,2.6-1.9,4.2c-1.3,1.6-2.7,2.9-4.3,4s-2.9,1.7-3.7,1.7
		c-0.8,0-1.5-0.3-2.1-1c-0.7-0.6-1-1.7-1-3c0-1.5,0.4-3.1,1.3-5c0.9-1.9,2-3.6,3.4-5.2l2.4,1.4c-0.7,0.8-1.3,1.7-1.9,2.6
		c-0.6,0.9-1.1,1.9-1.6,2.9c-0.5,1-0.7,2-0.7,2.9c0,0.9,0.3,1.4,1,1.4c0.4,0,1.1-0.4,2-1.2c0.9-0.8,1.8-1.7,2.6-2.7
		c0.8-1,1.3-1.8,1.4-2.4c-0.4,0.1-1,0.2-1.8,0.2l-0.3-1.7c0.6-0.6,1.1-1,1.4-1.3c0.3-0.2,0.8-0.3,1.3-0.3c0.9,0,1.5,0.3,1.9,0.9
		L255.9,11z"/>
	<path id="XMLID_115_" class="st0" d="M260.4,19.3l-0.8,2.3c-0.8,0.5-1.8,0.9-2.8,1.4c-1.1,0.5-1.8,0.7-2.4,0.7
		c-0.5,0-1-0.2-1.4-0.6c-0.4-0.4-0.5-0.9-0.5-1.5c0-0.5,0.2-1.1,0.5-1.9c0.3-0.8,0.9-2,1.8-3.5c0.8-1.5,2-3.6,3.6-6.3l2.4,1.2
		l-4.3,7.8c-0.3,0.6-0.5,1-0.5,1.3c0,0.3,0.2,0.4,0.5,0.4c0.3,0,0.7-0.1,1.1-0.2C258,20.4,258.9,20,260.4,19.3z M261.8,3.8h1.2
		c0.6,0,0.9,0.2,0.9,0.6c0,0.4-0.1,0.8-0.4,1.3c-0.3,0.4-0.6,0.8-1.1,1.1c-0.4,0.3-0.9,0.5-1.3,0.5c-0.6,0-1-0.2-1.1-0.6V6.2
		c0.1-0.8,0.4-1.4,0.7-1.8C261.2,4,261.5,3.8,261.8,3.8z"/>
	<path id="XMLID_118_" class="st0" d="M277.6,3l2.9,0.9c-0.8,1.6-1.3,2.8-1.7,3.6c-0.3,0.7-0.8,1.7-1.6,3.2c-0.7,1.5-1.4,2.9-2,4.2
		c-0.6,1.3-1.1,2.5-1.5,3.5c-0.4,1-0.6,1.7-0.6,2c0,0.3,0.2,0.5,0.5,0.5c0.2,0,0.5-0.1,0.9-0.3c0.4-0.2,1.4-0.6,2.9-1.3l-0.7,2.3
		c-0.7,0.4-1.6,0.9-2.7,1.4s-1.9,0.7-2.3,0.7c-0.5,0-0.9-0.2-1.3-0.5c-0.3-0.3-0.5-0.7-0.5-1.1c0-0.7,0.3-1.5,0.8-2.4l-0.2-0.1
		c-2.4,2.8-4.6,4.1-6.7,4.1c-0.7,0-1.3-0.3-1.9-0.8s-0.9-1.4-0.9-2.6c0-1.1,0.4-2.3,1.1-3.4s1.7-2.2,2.8-3.2
		c1.1-0.9,2.2-1.7,3.4-2.3c1.1-0.6,2.1-0.8,2.9-0.8c1,0,1.9,0.4,2.6,1.3C275.1,8.9,276.3,6,277.6,3z M273.1,13.2
		c-0.4-0.5-0.9-0.7-1.5-0.7c-0.8,0-1.8,0.4-2.9,1.3s-2.1,1.9-2.9,3.1s-1.2,2.2-1.2,3c0,0.8,0.4,1.2,1.2,1.2c0.6,0,1.3-0.3,2.1-0.8
		c0.7-0.5,1.5-1.2,2.2-2c0.7-0.8,1.3-1.7,1.9-2.6C272.4,14.8,272.8,13.9,273.1,13.2z"/>
	<path id="XMLID_121_" class="st0" d="M277.3,19.4l0.7-0.5c0.3-1,0.9-2,1.6-3c0.7-1,1.6-1.9,2.6-2.7c1-0.8,2-1.4,3.1-1.9
		c1.1-0.5,2.1-0.7,3-0.7c0.9,0,1.6,0.2,2.1,0.7c0.4,0.4,0.7,0.9,0.7,1.5c0,1.1-0.7,2.3-2,3.5c-1.3,1.3-4,2.4-7.9,3.4
		c0,0.2-0.1,0.3-0.1,0.4c0,0.4,0.2,0.8,0.5,1c0.4,0.3,0.9,0.4,1.5,0.4c0.5,0,1.1-0.1,1.8-0.3c0.7-0.2,1.4-0.5,2.1-0.8s1.4-0.7,2-1
		l-0.7,2.2c-1,0.6-2.1,1.1-3.4,1.5c-1.3,0.4-2.4,0.6-3.4,0.6c-0.7,0-1.3-0.1-1.8-0.4c-0.5-0.3-1-0.6-1.3-1.1
		c-0.3-0.4-0.4-0.9-0.4-1.4l-1.4,0.8L277.3,19.4z M281.8,17.7c2.9-0.8,4.8-2,5.8-3.7c0.1-0.2,0.2-0.5,0.2-0.6c0-0.4-0.2-0.6-0.6-0.6
		c-0.6,0-1.3,0.3-2,0.8c-0.7,0.6-1.4,1.2-2.1,2C282.5,16.5,282.1,17.2,281.8,17.7z"/>
	<path id="XMLID_124_" class="st0" d="M299.8,9.7l0.5,2c-1.1,0.3-2.1,0.8-3,1.5c-0.9,0.6-1.7,1.4-2.4,2.2s-1.2,1.6-1.5,2.3
		c-0.4,0.8-0.5,1.5-0.5,2.1c0,1.2,0.5,1.8,1.5,1.8c0.7,0,1.5-0.3,2.2-1s1.3-1.5,1.8-2.6s0.7-2.3,0.7-3.6c0-0.3,0-0.7-0.1-1.2
		l3.1-0.8c0.1,0.5,0.1,1,0.1,1.6c0,1.7-0.4,3.3-1.3,4.9c-0.9,1.5-2,2.7-3.4,3.6c-1.4,0.9-2.7,1.3-4,1.3c-2.5,0-3.7-1.2-3.7-3.7
		c0-1.3,0.4-2.5,1.2-3.9c0.8-1.3,1.9-2.5,3.5-3.7C295.9,11.4,297.7,10.5,299.8,9.7z"/>
</g>
</svg>
